M48
; DRILL file {KiCad 5.1.10} date Fri Sep 10 20:17:01 2021
; FORMAT={-:-/ absolute / metric / decimal}
; #@! TF.CreationDate,2021-09-10T20:17:01-07:00
; #@! TF.GenerationSoftware,Kicad,Pcbnew,5.1.10
; #@! TF.FileFunction,Plated,1,4,PTH
FMAT,2
METRIC
T1C0.300
T2C1.300
%
G90
G05
T1
X146.85Y-87.1
X146.85Y-102.9
X147.75Y-95.4
X147.75Y-97.8
X147.75Y-100.2
X147.75Y-102.6
X147.8Y-90.6
X147.8Y-93.0
X155.3Y-89.75
X156.1Y-93.05
X156.235Y-89.75
X156.925Y-89.75
X157.615Y-89.75
X164.15Y-91.0
X164.15Y-92.5
X164.15Y-94.0
X164.15Y-95.5
X164.15Y-98.5
X164.7Y-86.95
X164.7Y-103.05
X167.85Y-86.95
X167.85Y-103.05
T2
X168.3Y-90.489
X168.3Y-99.489
T0
M30
