%FSLAX45Y45*%
G04 Gerber Fmt 4.5, Leading zero omitted, Abs format (unit mm)*
G04 Created by KiCad (PCBNEW 5.1.10) date 2021-09-10 20:17:04*
%MOMM*%
%LPD*%
G01*
G04 APERTURE LIST*
%TA.AperFunction,Profile*%
%ADD10C,0.050000*%
%TD*%
%ADD11C,0.200000*%
%ADD12C,0.300000*%
G04 APERTURE END LIST*
D10*
X17350000Y-8505000D02*
X14540000Y-8505000D01*
X17350000Y-10492500D02*
X17350000Y-8505000D01*
X14625000Y-10492500D02*
X17350000Y-10492500D01*
X14540000Y-10492500D02*
X14625000Y-10492500D01*
X14540000Y-8527500D02*
X14540000Y-10492500D01*
X14540000Y-8505000D02*
X14540000Y-8527500D01*
D11*
D12*
X14823928Y-10960714D02*
X14823928Y-10660714D01*
X14895357Y-10660714D01*
X14938214Y-10675000D01*
X14966786Y-10703572D01*
X14981071Y-10732143D01*
X14995357Y-10789286D01*
X14995357Y-10832143D01*
X14981071Y-10889286D01*
X14966786Y-10917857D01*
X14938214Y-10946429D01*
X14895357Y-10960714D01*
X14823928Y-10960714D01*
X15123928Y-10960714D02*
X15123928Y-10760714D01*
X15123928Y-10817857D02*
X15138214Y-10789286D01*
X15152500Y-10775000D01*
X15181071Y-10760714D01*
X15209643Y-10760714D01*
X15309643Y-10960714D02*
X15309643Y-10760714D01*
X15309643Y-10660714D02*
X15295357Y-10675000D01*
X15309643Y-10689286D01*
X15323928Y-10675000D01*
X15309643Y-10660714D01*
X15309643Y-10689286D01*
X15495357Y-10960714D02*
X15466786Y-10946429D01*
X15452500Y-10917857D01*
X15452500Y-10660714D01*
X15652500Y-10960714D02*
X15623928Y-10946429D01*
X15609643Y-10917857D01*
X15609643Y-10660714D01*
X15995357Y-10960714D02*
X15995357Y-10660714D01*
X16095357Y-10875000D01*
X16195357Y-10660714D01*
X16195357Y-10960714D01*
X16466786Y-10960714D02*
X16466786Y-10803572D01*
X16452500Y-10775000D01*
X16423928Y-10760714D01*
X16366786Y-10760714D01*
X16338214Y-10775000D01*
X16466786Y-10946429D02*
X16438214Y-10960714D01*
X16366786Y-10960714D01*
X16338214Y-10946429D01*
X16323928Y-10917857D01*
X16323928Y-10889286D01*
X16338214Y-10860714D01*
X16366786Y-10846429D01*
X16438214Y-10846429D01*
X16466786Y-10832143D01*
X16609643Y-10760714D02*
X16609643Y-11060714D01*
X16609643Y-10775000D02*
X16638214Y-10760714D01*
X16695357Y-10760714D01*
X16723928Y-10775000D01*
X16738214Y-10789286D01*
X16752500Y-10817857D01*
X16752500Y-10903572D01*
X16738214Y-10932143D01*
X16723928Y-10946429D01*
X16695357Y-10960714D01*
X16638214Y-10960714D01*
X16609643Y-10946429D01*
X16881071Y-10932143D02*
X16895357Y-10946429D01*
X16881071Y-10960714D01*
X16866786Y-10946429D01*
X16881071Y-10932143D01*
X16881071Y-10960714D01*
X16881071Y-10775000D02*
X16895357Y-10789286D01*
X16881071Y-10803572D01*
X16866786Y-10789286D01*
X16881071Y-10775000D01*
X16881071Y-10803572D01*
M02*
