G04 #@! TF.GenerationSoftware,KiCad,Pcbnew,5.1.10*
G04 #@! TF.CreationDate,2021-09-10T20:16:30-07:00*
G04 #@! TF.ProjectId,ACORN-CLE-DVI,41434f52-4e2d-4434-9c45-2d4456492e6b,rev?*
G04 #@! TF.SameCoordinates,Original*
G04 #@! TF.FileFunction,Copper,L1,Top*
G04 #@! TF.FilePolarity,Positive*
%FSLAX46Y46*%
G04 Gerber Fmt 4.6, Leading zero omitted, Abs format (unit mm)*
G04 Created by KiCad (PCBNEW 5.1.10) date 2021-09-10 20:16:30*
%MOMM*%
%LPD*%
G01*
G04 APERTURE LIST*
G04 #@! TA.AperFunction,SMDPad,CuDef*
%ADD10R,1.200000X3.200000*%
G04 #@! TD*
G04 #@! TA.AperFunction,ComponentPad*
%ADD11C,1.300000*%
G04 #@! TD*
G04 #@! TA.AperFunction,SMDPad,CuDef*
%ADD12R,1.400000X1.300000*%
G04 #@! TD*
G04 #@! TA.AperFunction,SMDPad,CuDef*
%ADD13R,2.200000X1.300000*%
G04 #@! TD*
G04 #@! TA.AperFunction,SMDPad,CuDef*
%ADD14R,2.600000X0.280000*%
G04 #@! TD*
G04 #@! TA.AperFunction,ViaPad*
%ADD15C,0.600000*%
G04 #@! TD*
G04 #@! TA.AperFunction,Conductor*
%ADD16C,0.152400*%
G04 #@! TD*
G04 #@! TA.AperFunction,Conductor*
%ADD17C,0.125984*%
G04 #@! TD*
G04 APERTURE END LIST*
G04 #@! TA.AperFunction,SMDPad,CuDef*
G36*
G01*
X149970000Y-97270000D02*
X149970000Y-96930000D01*
G75*
G02*
X150110000Y-96790000I140000J0D01*
G01*
X150390000Y-96790000D01*
G75*
G02*
X150530000Y-96930000I0J-140000D01*
G01*
X150530000Y-97270000D01*
G75*
G02*
X150390000Y-97410000I-140000J0D01*
G01*
X150110000Y-97410000D01*
G75*
G02*
X149970000Y-97270000I0J140000D01*
G01*
G37*
G04 #@! TD.AperFunction*
G04 #@! TA.AperFunction,SMDPad,CuDef*
G36*
G01*
X150930000Y-97270000D02*
X150930000Y-96930000D01*
G75*
G02*
X151070000Y-96790000I140000J0D01*
G01*
X151350000Y-96790000D01*
G75*
G02*
X151490000Y-96930000I0J-140000D01*
G01*
X151490000Y-97270000D01*
G75*
G02*
X151350000Y-97410000I-140000J0D01*
G01*
X151070000Y-97410000D01*
G75*
G02*
X150930000Y-97270000I0J140000D01*
G01*
G37*
G04 #@! TD.AperFunction*
G04 #@! TA.AperFunction,SMDPad,CuDef*
G36*
G01*
X149970000Y-96270000D02*
X149970000Y-95930000D01*
G75*
G02*
X150110000Y-95790000I140000J0D01*
G01*
X150390000Y-95790000D01*
G75*
G02*
X150530000Y-95930000I0J-140000D01*
G01*
X150530000Y-96270000D01*
G75*
G02*
X150390000Y-96410000I-140000J0D01*
G01*
X150110000Y-96410000D01*
G75*
G02*
X149970000Y-96270000I0J140000D01*
G01*
G37*
G04 #@! TD.AperFunction*
G04 #@! TA.AperFunction,SMDPad,CuDef*
G36*
G01*
X150930000Y-96270000D02*
X150930000Y-95930000D01*
G75*
G02*
X151070000Y-95790000I140000J0D01*
G01*
X151350000Y-95790000D01*
G75*
G02*
X151490000Y-95930000I0J-140000D01*
G01*
X151490000Y-96270000D01*
G75*
G02*
X151350000Y-96410000I-140000J0D01*
G01*
X151070000Y-96410000D01*
G75*
G02*
X150930000Y-96270000I0J140000D01*
G01*
G37*
G04 #@! TD.AperFunction*
G04 #@! TA.AperFunction,SMDPad,CuDef*
G36*
G01*
X149970000Y-94870000D02*
X149970000Y-94530000D01*
G75*
G02*
X150110000Y-94390000I140000J0D01*
G01*
X150390000Y-94390000D01*
G75*
G02*
X150530000Y-94530000I0J-140000D01*
G01*
X150530000Y-94870000D01*
G75*
G02*
X150390000Y-95010000I-140000J0D01*
G01*
X150110000Y-95010000D01*
G75*
G02*
X149970000Y-94870000I0J140000D01*
G01*
G37*
G04 #@! TD.AperFunction*
G04 #@! TA.AperFunction,SMDPad,CuDef*
G36*
G01*
X150930000Y-94870000D02*
X150930000Y-94530000D01*
G75*
G02*
X151070000Y-94390000I140000J0D01*
G01*
X151350000Y-94390000D01*
G75*
G02*
X151490000Y-94530000I0J-140000D01*
G01*
X151490000Y-94870000D01*
G75*
G02*
X151350000Y-95010000I-140000J0D01*
G01*
X151070000Y-95010000D01*
G75*
G02*
X150930000Y-94870000I0J140000D01*
G01*
G37*
G04 #@! TD.AperFunction*
G04 #@! TA.AperFunction,SMDPad,CuDef*
G36*
G01*
X149960000Y-93870000D02*
X149960000Y-93530000D01*
G75*
G02*
X150100000Y-93390000I140000J0D01*
G01*
X150380000Y-93390000D01*
G75*
G02*
X150520000Y-93530000I0J-140000D01*
G01*
X150520000Y-93870000D01*
G75*
G02*
X150380000Y-94010000I-140000J0D01*
G01*
X150100000Y-94010000D01*
G75*
G02*
X149960000Y-93870000I0J140000D01*
G01*
G37*
G04 #@! TD.AperFunction*
G04 #@! TA.AperFunction,SMDPad,CuDef*
G36*
G01*
X150920000Y-93870000D02*
X150920000Y-93530000D01*
G75*
G02*
X151060000Y-93390000I140000J0D01*
G01*
X151340000Y-93390000D01*
G75*
G02*
X151480000Y-93530000I0J-140000D01*
G01*
X151480000Y-93870000D01*
G75*
G02*
X151340000Y-94010000I-140000J0D01*
G01*
X151060000Y-94010000D01*
G75*
G02*
X150920000Y-93870000I0J140000D01*
G01*
G37*
G04 #@! TD.AperFunction*
G04 #@! TA.AperFunction,SMDPad,CuDef*
G36*
G01*
X149960000Y-92470000D02*
X149960000Y-92130000D01*
G75*
G02*
X150100000Y-91990000I140000J0D01*
G01*
X150380000Y-91990000D01*
G75*
G02*
X150520000Y-92130000I0J-140000D01*
G01*
X150520000Y-92470000D01*
G75*
G02*
X150380000Y-92610000I-140000J0D01*
G01*
X150100000Y-92610000D01*
G75*
G02*
X149960000Y-92470000I0J140000D01*
G01*
G37*
G04 #@! TD.AperFunction*
G04 #@! TA.AperFunction,SMDPad,CuDef*
G36*
G01*
X150920000Y-92470000D02*
X150920000Y-92130000D01*
G75*
G02*
X151060000Y-91990000I140000J0D01*
G01*
X151340000Y-91990000D01*
G75*
G02*
X151480000Y-92130000I0J-140000D01*
G01*
X151480000Y-92470000D01*
G75*
G02*
X151340000Y-92610000I-140000J0D01*
G01*
X151060000Y-92610000D01*
G75*
G02*
X150920000Y-92470000I0J140000D01*
G01*
G37*
G04 #@! TD.AperFunction*
G04 #@! TA.AperFunction,SMDPad,CuDef*
G36*
G01*
X149960000Y-91470000D02*
X149960000Y-91130000D01*
G75*
G02*
X150100000Y-90990000I140000J0D01*
G01*
X150380000Y-90990000D01*
G75*
G02*
X150520000Y-91130000I0J-140000D01*
G01*
X150520000Y-91470000D01*
G75*
G02*
X150380000Y-91610000I-140000J0D01*
G01*
X150100000Y-91610000D01*
G75*
G02*
X149960000Y-91470000I0J140000D01*
G01*
G37*
G04 #@! TD.AperFunction*
G04 #@! TA.AperFunction,SMDPad,CuDef*
G36*
G01*
X150920000Y-91470000D02*
X150920000Y-91130000D01*
G75*
G02*
X151060000Y-90990000I140000J0D01*
G01*
X151340000Y-90990000D01*
G75*
G02*
X151480000Y-91130000I0J-140000D01*
G01*
X151480000Y-91470000D01*
G75*
G02*
X151340000Y-91610000I-140000J0D01*
G01*
X151060000Y-91610000D01*
G75*
G02*
X150920000Y-91470000I0J140000D01*
G01*
G37*
G04 #@! TD.AperFunction*
G04 #@! TA.AperFunction,SMDPad,CuDef*
G36*
G01*
X149960000Y-90070000D02*
X149960000Y-89730000D01*
G75*
G02*
X150100000Y-89590000I140000J0D01*
G01*
X150380000Y-89590000D01*
G75*
G02*
X150520000Y-89730000I0J-140000D01*
G01*
X150520000Y-90070000D01*
G75*
G02*
X150380000Y-90210000I-140000J0D01*
G01*
X150100000Y-90210000D01*
G75*
G02*
X149960000Y-90070000I0J140000D01*
G01*
G37*
G04 #@! TD.AperFunction*
G04 #@! TA.AperFunction,SMDPad,CuDef*
G36*
G01*
X150920000Y-90070000D02*
X150920000Y-89730000D01*
G75*
G02*
X151060000Y-89590000I140000J0D01*
G01*
X151340000Y-89590000D01*
G75*
G02*
X151480000Y-89730000I0J-140000D01*
G01*
X151480000Y-90070000D01*
G75*
G02*
X151340000Y-90210000I-140000J0D01*
G01*
X151060000Y-90210000D01*
G75*
G02*
X150920000Y-90070000I0J140000D01*
G01*
G37*
G04 #@! TD.AperFunction*
G04 #@! TA.AperFunction,SMDPad,CuDef*
G36*
G01*
X149960000Y-89070000D02*
X149960000Y-88730000D01*
G75*
G02*
X150100000Y-88590000I140000J0D01*
G01*
X150380000Y-88590000D01*
G75*
G02*
X150520000Y-88730000I0J-140000D01*
G01*
X150520000Y-89070000D01*
G75*
G02*
X150380000Y-89210000I-140000J0D01*
G01*
X150100000Y-89210000D01*
G75*
G02*
X149960000Y-89070000I0J140000D01*
G01*
G37*
G04 #@! TD.AperFunction*
G04 #@! TA.AperFunction,SMDPad,CuDef*
G36*
G01*
X150920000Y-89070000D02*
X150920000Y-88730000D01*
G75*
G02*
X151060000Y-88590000I140000J0D01*
G01*
X151340000Y-88590000D01*
G75*
G02*
X151480000Y-88730000I0J-140000D01*
G01*
X151480000Y-89070000D01*
G75*
G02*
X151340000Y-89210000I-140000J0D01*
G01*
X151060000Y-89210000D01*
G75*
G02*
X150920000Y-89070000I0J140000D01*
G01*
G37*
G04 #@! TD.AperFunction*
G04 #@! TA.AperFunction,SMDPad,CuDef*
G36*
G01*
X148385000Y-87139000D02*
X149135000Y-87139000D01*
G75*
G02*
X149260000Y-87264000I0J-125000D01*
G01*
X149260000Y-87514000D01*
G75*
G02*
X149135000Y-87639000I-125000J0D01*
G01*
X148385000Y-87639000D01*
G75*
G02*
X148260000Y-87514000I0J125000D01*
G01*
X148260000Y-87264000D01*
G75*
G02*
X148385000Y-87139000I125000J0D01*
G01*
G37*
G04 #@! TD.AperFunction*
G04 #@! TA.AperFunction,SMDPad,CuDef*
G36*
G01*
X148385000Y-87939000D02*
X149135000Y-87939000D01*
G75*
G02*
X149260000Y-88064000I0J-125000D01*
G01*
X149260000Y-88314000D01*
G75*
G02*
X149135000Y-88439000I-125000J0D01*
G01*
X148385000Y-88439000D01*
G75*
G02*
X148260000Y-88314000I0J125000D01*
G01*
X148260000Y-88064000D01*
G75*
G02*
X148385000Y-87939000I125000J0D01*
G01*
G37*
G04 #@! TD.AperFunction*
G04 #@! TA.AperFunction,SMDPad,CuDef*
G36*
G01*
X148385000Y-88739000D02*
X149135000Y-88739000D01*
G75*
G02*
X149260000Y-88864000I0J-125000D01*
G01*
X149260000Y-89114000D01*
G75*
G02*
X149135000Y-89239000I-125000J0D01*
G01*
X148385000Y-89239000D01*
G75*
G02*
X148260000Y-89114000I0J125000D01*
G01*
X148260000Y-88864000D01*
G75*
G02*
X148385000Y-88739000I125000J0D01*
G01*
G37*
G04 #@! TD.AperFunction*
G04 #@! TA.AperFunction,SMDPad,CuDef*
G36*
G01*
X148385000Y-89539000D02*
X149135000Y-89539000D01*
G75*
G02*
X149260000Y-89664000I0J-125000D01*
G01*
X149260000Y-89914000D01*
G75*
G02*
X149135000Y-90039000I-125000J0D01*
G01*
X148385000Y-90039000D01*
G75*
G02*
X148260000Y-89914000I0J125000D01*
G01*
X148260000Y-89664000D01*
G75*
G02*
X148385000Y-89539000I125000J0D01*
G01*
G37*
G04 #@! TD.AperFunction*
G04 #@! TA.AperFunction,SMDPad,CuDef*
G36*
G01*
X148385000Y-90339000D02*
X149135000Y-90339000D01*
G75*
G02*
X149260000Y-90464000I0J-125000D01*
G01*
X149260000Y-90714000D01*
G75*
G02*
X149135000Y-90839000I-125000J0D01*
G01*
X148385000Y-90839000D01*
G75*
G02*
X148260000Y-90714000I0J125000D01*
G01*
X148260000Y-90464000D01*
G75*
G02*
X148385000Y-90339000I125000J0D01*
G01*
G37*
G04 #@! TD.AperFunction*
G04 #@! TA.AperFunction,SMDPad,CuDef*
G36*
G01*
X148385000Y-91139000D02*
X149135000Y-91139000D01*
G75*
G02*
X149260000Y-91264000I0J-125000D01*
G01*
X149260000Y-91514000D01*
G75*
G02*
X149135000Y-91639000I-125000J0D01*
G01*
X148385000Y-91639000D01*
G75*
G02*
X148260000Y-91514000I0J125000D01*
G01*
X148260000Y-91264000D01*
G75*
G02*
X148385000Y-91139000I125000J0D01*
G01*
G37*
G04 #@! TD.AperFunction*
G04 #@! TA.AperFunction,SMDPad,CuDef*
G36*
G01*
X148385000Y-91939000D02*
X149135000Y-91939000D01*
G75*
G02*
X149260000Y-92064000I0J-125000D01*
G01*
X149260000Y-92314000D01*
G75*
G02*
X149135000Y-92439000I-125000J0D01*
G01*
X148385000Y-92439000D01*
G75*
G02*
X148260000Y-92314000I0J125000D01*
G01*
X148260000Y-92064000D01*
G75*
G02*
X148385000Y-91939000I125000J0D01*
G01*
G37*
G04 #@! TD.AperFunction*
G04 #@! TA.AperFunction,SMDPad,CuDef*
G36*
G01*
X148385000Y-92739000D02*
X149135000Y-92739000D01*
G75*
G02*
X149260000Y-92864000I0J-125000D01*
G01*
X149260000Y-93114000D01*
G75*
G02*
X149135000Y-93239000I-125000J0D01*
G01*
X148385000Y-93239000D01*
G75*
G02*
X148260000Y-93114000I0J125000D01*
G01*
X148260000Y-92864000D01*
G75*
G02*
X148385000Y-92739000I125000J0D01*
G01*
G37*
G04 #@! TD.AperFunction*
G04 #@! TA.AperFunction,SMDPad,CuDef*
G36*
G01*
X148385000Y-93539000D02*
X149135000Y-93539000D01*
G75*
G02*
X149260000Y-93664000I0J-125000D01*
G01*
X149260000Y-93914000D01*
G75*
G02*
X149135000Y-94039000I-125000J0D01*
G01*
X148385000Y-94039000D01*
G75*
G02*
X148260000Y-93914000I0J125000D01*
G01*
X148260000Y-93664000D01*
G75*
G02*
X148385000Y-93539000I125000J0D01*
G01*
G37*
G04 #@! TD.AperFunction*
G04 #@! TA.AperFunction,SMDPad,CuDef*
G36*
G01*
X148385000Y-94339000D02*
X149135000Y-94339000D01*
G75*
G02*
X149260000Y-94464000I0J-125000D01*
G01*
X149260000Y-94714000D01*
G75*
G02*
X149135000Y-94839000I-125000J0D01*
G01*
X148385000Y-94839000D01*
G75*
G02*
X148260000Y-94714000I0J125000D01*
G01*
X148260000Y-94464000D01*
G75*
G02*
X148385000Y-94339000I125000J0D01*
G01*
G37*
G04 #@! TD.AperFunction*
G04 #@! TA.AperFunction,SMDPad,CuDef*
G36*
G01*
X148385000Y-95139000D02*
X149135000Y-95139000D01*
G75*
G02*
X149260000Y-95264000I0J-125000D01*
G01*
X149260000Y-95514000D01*
G75*
G02*
X149135000Y-95639000I-125000J0D01*
G01*
X148385000Y-95639000D01*
G75*
G02*
X148260000Y-95514000I0J125000D01*
G01*
X148260000Y-95264000D01*
G75*
G02*
X148385000Y-95139000I125000J0D01*
G01*
G37*
G04 #@! TD.AperFunction*
G04 #@! TA.AperFunction,SMDPad,CuDef*
G36*
G01*
X148385000Y-95939000D02*
X149135000Y-95939000D01*
G75*
G02*
X149260000Y-96064000I0J-125000D01*
G01*
X149260000Y-96314000D01*
G75*
G02*
X149135000Y-96439000I-125000J0D01*
G01*
X148385000Y-96439000D01*
G75*
G02*
X148260000Y-96314000I0J125000D01*
G01*
X148260000Y-96064000D01*
G75*
G02*
X148385000Y-95939000I125000J0D01*
G01*
G37*
G04 #@! TD.AperFunction*
G04 #@! TA.AperFunction,SMDPad,CuDef*
G36*
G01*
X148385000Y-96739000D02*
X149135000Y-96739000D01*
G75*
G02*
X149260000Y-96864000I0J-125000D01*
G01*
X149260000Y-97114000D01*
G75*
G02*
X149135000Y-97239000I-125000J0D01*
G01*
X148385000Y-97239000D01*
G75*
G02*
X148260000Y-97114000I0J125000D01*
G01*
X148260000Y-96864000D01*
G75*
G02*
X148385000Y-96739000I125000J0D01*
G01*
G37*
G04 #@! TD.AperFunction*
G04 #@! TA.AperFunction,SMDPad,CuDef*
G36*
G01*
X148385000Y-97539000D02*
X149135000Y-97539000D01*
G75*
G02*
X149260000Y-97664000I0J-125000D01*
G01*
X149260000Y-97914000D01*
G75*
G02*
X149135000Y-98039000I-125000J0D01*
G01*
X148385000Y-98039000D01*
G75*
G02*
X148260000Y-97914000I0J125000D01*
G01*
X148260000Y-97664000D01*
G75*
G02*
X148385000Y-97539000I125000J0D01*
G01*
G37*
G04 #@! TD.AperFunction*
G04 #@! TA.AperFunction,SMDPad,CuDef*
G36*
G01*
X148385000Y-98339000D02*
X149135000Y-98339000D01*
G75*
G02*
X149260000Y-98464000I0J-125000D01*
G01*
X149260000Y-98714000D01*
G75*
G02*
X149135000Y-98839000I-125000J0D01*
G01*
X148385000Y-98839000D01*
G75*
G02*
X148260000Y-98714000I0J125000D01*
G01*
X148260000Y-98464000D01*
G75*
G02*
X148385000Y-98339000I125000J0D01*
G01*
G37*
G04 #@! TD.AperFunction*
G04 #@! TA.AperFunction,SMDPad,CuDef*
G36*
G01*
X148385000Y-99139000D02*
X149135000Y-99139000D01*
G75*
G02*
X149260000Y-99264000I0J-125000D01*
G01*
X149260000Y-99514000D01*
G75*
G02*
X149135000Y-99639000I-125000J0D01*
G01*
X148385000Y-99639000D01*
G75*
G02*
X148260000Y-99514000I0J125000D01*
G01*
X148260000Y-99264000D01*
G75*
G02*
X148385000Y-99139000I125000J0D01*
G01*
G37*
G04 #@! TD.AperFunction*
G04 #@! TA.AperFunction,SMDPad,CuDef*
G36*
G01*
X148385000Y-99939000D02*
X149135000Y-99939000D01*
G75*
G02*
X149260000Y-100064000I0J-125000D01*
G01*
X149260000Y-100314000D01*
G75*
G02*
X149135000Y-100439000I-125000J0D01*
G01*
X148385000Y-100439000D01*
G75*
G02*
X148260000Y-100314000I0J125000D01*
G01*
X148260000Y-100064000D01*
G75*
G02*
X148385000Y-99939000I125000J0D01*
G01*
G37*
G04 #@! TD.AperFunction*
G04 #@! TA.AperFunction,SMDPad,CuDef*
G36*
G01*
X148385000Y-100739000D02*
X149135000Y-100739000D01*
G75*
G02*
X149260000Y-100864000I0J-125000D01*
G01*
X149260000Y-101114000D01*
G75*
G02*
X149135000Y-101239000I-125000J0D01*
G01*
X148385000Y-101239000D01*
G75*
G02*
X148260000Y-101114000I0J125000D01*
G01*
X148260000Y-100864000D01*
G75*
G02*
X148385000Y-100739000I125000J0D01*
G01*
G37*
G04 #@! TD.AperFunction*
G04 #@! TA.AperFunction,SMDPad,CuDef*
G36*
G01*
X148385000Y-101539000D02*
X149135000Y-101539000D01*
G75*
G02*
X149260000Y-101664000I0J-125000D01*
G01*
X149260000Y-101914000D01*
G75*
G02*
X149135000Y-102039000I-125000J0D01*
G01*
X148385000Y-102039000D01*
G75*
G02*
X148260000Y-101914000I0J125000D01*
G01*
X148260000Y-101664000D01*
G75*
G02*
X148385000Y-101539000I125000J0D01*
G01*
G37*
G04 #@! TD.AperFunction*
G04 #@! TA.AperFunction,SMDPad,CuDef*
G36*
G01*
X148385000Y-102339000D02*
X149135000Y-102339000D01*
G75*
G02*
X149260000Y-102464000I0J-125000D01*
G01*
X149260000Y-102714000D01*
G75*
G02*
X149135000Y-102839000I-125000J0D01*
G01*
X148385000Y-102839000D01*
G75*
G02*
X148260000Y-102714000I0J125000D01*
G01*
X148260000Y-102464000D01*
G75*
G02*
X148385000Y-102339000I125000J0D01*
G01*
G37*
G04 #@! TD.AperFunction*
G04 #@! TA.AperFunction,SMDPad,CuDef*
G36*
G01*
X146265000Y-85689000D02*
X147415000Y-85689000D01*
G75*
G02*
X147640000Y-85914000I0J-225000D01*
G01*
X147640000Y-86364000D01*
G75*
G02*
X147415000Y-86589000I-225000J0D01*
G01*
X146265000Y-86589000D01*
G75*
G02*
X146040000Y-86364000I0J225000D01*
G01*
X146040000Y-85914000D01*
G75*
G02*
X146265000Y-85689000I225000J0D01*
G01*
G37*
G04 #@! TD.AperFunction*
G04 #@! TA.AperFunction,SMDPad,CuDef*
G36*
G01*
X146265000Y-103389000D02*
X147415000Y-103389000D01*
G75*
G02*
X147640000Y-103614000I0J-225000D01*
G01*
X147640000Y-104064000D01*
G75*
G02*
X147415000Y-104289000I-225000J0D01*
G01*
X146265000Y-104289000D01*
G75*
G02*
X146040000Y-104064000I0J225000D01*
G01*
X146040000Y-103614000D01*
G75*
G02*
X146265000Y-103389000I225000J0D01*
G01*
G37*
G04 #@! TD.AperFunction*
D10*
X156100000Y-93050000D03*
G04 #@! TA.AperFunction,SMDPad,CuDef*
G36*
G01*
X157125000Y-91353400D02*
X157125000Y-91146600D01*
G75*
G02*
X157131600Y-91140000I6600J0D01*
G01*
X157708400Y-91140000D01*
G75*
G02*
X157715000Y-91146600I0J-6600D01*
G01*
X157715000Y-91353400D01*
G75*
G02*
X157708400Y-91360000I-6600J0D01*
G01*
X157131600Y-91360000D01*
G75*
G02*
X157125000Y-91353400I0J6600D01*
G01*
G37*
G04 #@! TD.AperFunction*
G04 #@! TA.AperFunction,SMDPad,CuDef*
G36*
G01*
X157125000Y-91753400D02*
X157125000Y-91546600D01*
G75*
G02*
X157131600Y-91540000I6600J0D01*
G01*
X157708400Y-91540000D01*
G75*
G02*
X157715000Y-91546600I0J-6600D01*
G01*
X157715000Y-91753400D01*
G75*
G02*
X157708400Y-91760000I-6600J0D01*
G01*
X157131600Y-91760000D01*
G75*
G02*
X157125000Y-91753400I0J6600D01*
G01*
G37*
G04 #@! TD.AperFunction*
G04 #@! TA.AperFunction,SMDPad,CuDef*
G36*
G01*
X157125000Y-92153400D02*
X157125000Y-91946600D01*
G75*
G02*
X157131600Y-91940000I6600J0D01*
G01*
X157708400Y-91940000D01*
G75*
G02*
X157715000Y-91946600I0J-6600D01*
G01*
X157715000Y-92153400D01*
G75*
G02*
X157708400Y-92160000I-6600J0D01*
G01*
X157131600Y-92160000D01*
G75*
G02*
X157125000Y-92153400I0J6600D01*
G01*
G37*
G04 #@! TD.AperFunction*
G04 #@! TA.AperFunction,SMDPad,CuDef*
G36*
G01*
X157125000Y-92553400D02*
X157125000Y-92346600D01*
G75*
G02*
X157131600Y-92340000I6600J0D01*
G01*
X157708400Y-92340000D01*
G75*
G02*
X157715000Y-92346600I0J-6600D01*
G01*
X157715000Y-92553400D01*
G75*
G02*
X157708400Y-92560000I-6600J0D01*
G01*
X157131600Y-92560000D01*
G75*
G02*
X157125000Y-92553400I0J6600D01*
G01*
G37*
G04 #@! TD.AperFunction*
G04 #@! TA.AperFunction,SMDPad,CuDef*
G36*
G01*
X157125000Y-92953400D02*
X157125000Y-92746600D01*
G75*
G02*
X157131600Y-92740000I6600J0D01*
G01*
X157708400Y-92740000D01*
G75*
G02*
X157715000Y-92746600I0J-6600D01*
G01*
X157715000Y-92953400D01*
G75*
G02*
X157708400Y-92960000I-6600J0D01*
G01*
X157131600Y-92960000D01*
G75*
G02*
X157125000Y-92953400I0J6600D01*
G01*
G37*
G04 #@! TD.AperFunction*
G04 #@! TA.AperFunction,SMDPad,CuDef*
G36*
G01*
X157125000Y-93353400D02*
X157125000Y-93146600D01*
G75*
G02*
X157131600Y-93140000I6600J0D01*
G01*
X157708400Y-93140000D01*
G75*
G02*
X157715000Y-93146600I0J-6600D01*
G01*
X157715000Y-93353400D01*
G75*
G02*
X157708400Y-93360000I-6600J0D01*
G01*
X157131600Y-93360000D01*
G75*
G02*
X157125000Y-93353400I0J6600D01*
G01*
G37*
G04 #@! TD.AperFunction*
G04 #@! TA.AperFunction,SMDPad,CuDef*
G36*
G01*
X157125000Y-93753400D02*
X157125000Y-93546600D01*
G75*
G02*
X157131600Y-93540000I6600J0D01*
G01*
X157708400Y-93540000D01*
G75*
G02*
X157715000Y-93546600I0J-6600D01*
G01*
X157715000Y-93753400D01*
G75*
G02*
X157708400Y-93760000I-6600J0D01*
G01*
X157131600Y-93760000D01*
G75*
G02*
X157125000Y-93753400I0J6600D01*
G01*
G37*
G04 #@! TD.AperFunction*
G04 #@! TA.AperFunction,SMDPad,CuDef*
G36*
G01*
X157125000Y-94153400D02*
X157125000Y-93946600D01*
G75*
G02*
X157131600Y-93940000I6600J0D01*
G01*
X157708400Y-93940000D01*
G75*
G02*
X157715000Y-93946600I0J-6600D01*
G01*
X157715000Y-94153400D01*
G75*
G02*
X157708400Y-94160000I-6600J0D01*
G01*
X157131600Y-94160000D01*
G75*
G02*
X157125000Y-94153400I0J6600D01*
G01*
G37*
G04 #@! TD.AperFunction*
G04 #@! TA.AperFunction,SMDPad,CuDef*
G36*
G01*
X157125000Y-94553400D02*
X157125000Y-94346600D01*
G75*
G02*
X157131600Y-94340000I6600J0D01*
G01*
X157708400Y-94340000D01*
G75*
G02*
X157715000Y-94346600I0J-6600D01*
G01*
X157715000Y-94553400D01*
G75*
G02*
X157708400Y-94560000I-6600J0D01*
G01*
X157131600Y-94560000D01*
G75*
G02*
X157125000Y-94553400I0J6600D01*
G01*
G37*
G04 #@! TD.AperFunction*
G04 #@! TA.AperFunction,SMDPad,CuDef*
G36*
G01*
X157125000Y-94953400D02*
X157125000Y-94746600D01*
G75*
G02*
X157131600Y-94740000I6600J0D01*
G01*
X157708400Y-94740000D01*
G75*
G02*
X157715000Y-94746600I0J-6600D01*
G01*
X157715000Y-94953400D01*
G75*
G02*
X157708400Y-94960000I-6600J0D01*
G01*
X157131600Y-94960000D01*
G75*
G02*
X157125000Y-94953400I0J6600D01*
G01*
G37*
G04 #@! TD.AperFunction*
G04 #@! TA.AperFunction,SMDPad,CuDef*
G36*
G01*
X154485000Y-94953400D02*
X154485000Y-94746600D01*
G75*
G02*
X154491600Y-94740000I6600J0D01*
G01*
X155068400Y-94740000D01*
G75*
G02*
X155075000Y-94746600I0J-6600D01*
G01*
X155075000Y-94953400D01*
G75*
G02*
X155068400Y-94960000I-6600J0D01*
G01*
X154491600Y-94960000D01*
G75*
G02*
X154485000Y-94953400I0J6600D01*
G01*
G37*
G04 #@! TD.AperFunction*
G04 #@! TA.AperFunction,SMDPad,CuDef*
G36*
G01*
X154485000Y-94553400D02*
X154485000Y-94346600D01*
G75*
G02*
X154491600Y-94340000I6600J0D01*
G01*
X155068400Y-94340000D01*
G75*
G02*
X155075000Y-94346600I0J-6600D01*
G01*
X155075000Y-94553400D01*
G75*
G02*
X155068400Y-94560000I-6600J0D01*
G01*
X154491600Y-94560000D01*
G75*
G02*
X154485000Y-94553400I0J6600D01*
G01*
G37*
G04 #@! TD.AperFunction*
G04 #@! TA.AperFunction,SMDPad,CuDef*
G36*
G01*
X154485000Y-94153400D02*
X154485000Y-93946600D01*
G75*
G02*
X154491600Y-93940000I6600J0D01*
G01*
X155068400Y-93940000D01*
G75*
G02*
X155075000Y-93946600I0J-6600D01*
G01*
X155075000Y-94153400D01*
G75*
G02*
X155068400Y-94160000I-6600J0D01*
G01*
X154491600Y-94160000D01*
G75*
G02*
X154485000Y-94153400I0J6600D01*
G01*
G37*
G04 #@! TD.AperFunction*
G04 #@! TA.AperFunction,SMDPad,CuDef*
G36*
G01*
X154485000Y-93753400D02*
X154485000Y-93546600D01*
G75*
G02*
X154491600Y-93540000I6600J0D01*
G01*
X155068400Y-93540000D01*
G75*
G02*
X155075000Y-93546600I0J-6600D01*
G01*
X155075000Y-93753400D01*
G75*
G02*
X155068400Y-93760000I-6600J0D01*
G01*
X154491600Y-93760000D01*
G75*
G02*
X154485000Y-93753400I0J6600D01*
G01*
G37*
G04 #@! TD.AperFunction*
G04 #@! TA.AperFunction,SMDPad,CuDef*
G36*
G01*
X154485000Y-93353400D02*
X154485000Y-93146600D01*
G75*
G02*
X154491600Y-93140000I6600J0D01*
G01*
X155068400Y-93140000D01*
G75*
G02*
X155075000Y-93146600I0J-6600D01*
G01*
X155075000Y-93353400D01*
G75*
G02*
X155068400Y-93360000I-6600J0D01*
G01*
X154491600Y-93360000D01*
G75*
G02*
X154485000Y-93353400I0J6600D01*
G01*
G37*
G04 #@! TD.AperFunction*
G04 #@! TA.AperFunction,SMDPad,CuDef*
G36*
G01*
X154485000Y-92953400D02*
X154485000Y-92746600D01*
G75*
G02*
X154491600Y-92740000I6600J0D01*
G01*
X155068400Y-92740000D01*
G75*
G02*
X155075000Y-92746600I0J-6600D01*
G01*
X155075000Y-92953400D01*
G75*
G02*
X155068400Y-92960000I-6600J0D01*
G01*
X154491600Y-92960000D01*
G75*
G02*
X154485000Y-92953400I0J6600D01*
G01*
G37*
G04 #@! TD.AperFunction*
G04 #@! TA.AperFunction,SMDPad,CuDef*
G36*
G01*
X154485000Y-92553400D02*
X154485000Y-92346600D01*
G75*
G02*
X154491600Y-92340000I6600J0D01*
G01*
X155068400Y-92340000D01*
G75*
G02*
X155075000Y-92346600I0J-6600D01*
G01*
X155075000Y-92553400D01*
G75*
G02*
X155068400Y-92560000I-6600J0D01*
G01*
X154491600Y-92560000D01*
G75*
G02*
X154485000Y-92553400I0J6600D01*
G01*
G37*
G04 #@! TD.AperFunction*
G04 #@! TA.AperFunction,SMDPad,CuDef*
G36*
G01*
X154485000Y-92153400D02*
X154485000Y-91946600D01*
G75*
G02*
X154491600Y-91940000I6600J0D01*
G01*
X155068400Y-91940000D01*
G75*
G02*
X155075000Y-91946600I0J-6600D01*
G01*
X155075000Y-92153400D01*
G75*
G02*
X155068400Y-92160000I-6600J0D01*
G01*
X154491600Y-92160000D01*
G75*
G02*
X154485000Y-92153400I0J6600D01*
G01*
G37*
G04 #@! TD.AperFunction*
G04 #@! TA.AperFunction,SMDPad,CuDef*
G36*
G01*
X154485000Y-91753400D02*
X154485000Y-91546600D01*
G75*
G02*
X154491600Y-91540000I6600J0D01*
G01*
X155068400Y-91540000D01*
G75*
G02*
X155075000Y-91546600I0J-6600D01*
G01*
X155075000Y-91753400D01*
G75*
G02*
X155068400Y-91760000I-6600J0D01*
G01*
X154491600Y-91760000D01*
G75*
G02*
X154485000Y-91753400I0J6600D01*
G01*
G37*
G04 #@! TD.AperFunction*
G04 #@! TA.AperFunction,SMDPad,CuDef*
G36*
G01*
X154485000Y-91353400D02*
X154485000Y-91146600D01*
G75*
G02*
X154491600Y-91140000I6600J0D01*
G01*
X155068400Y-91140000D01*
G75*
G02*
X155075000Y-91146600I0J-6600D01*
G01*
X155075000Y-91353400D01*
G75*
G02*
X155068400Y-91360000I-6600J0D01*
G01*
X154491600Y-91360000D01*
G75*
G02*
X154485000Y-91353400I0J6600D01*
G01*
G37*
G04 #@! TD.AperFunction*
G04 #@! TA.AperFunction,SMDPad,CuDef*
G36*
G01*
X155190000Y-91018400D02*
X155190000Y-90441600D01*
G75*
G02*
X155196600Y-90435000I6600J0D01*
G01*
X155403400Y-90435000D01*
G75*
G02*
X155410000Y-90441600I0J-6600D01*
G01*
X155410000Y-91018400D01*
G75*
G02*
X155403400Y-91025000I-6600J0D01*
G01*
X155196600Y-91025000D01*
G75*
G02*
X155190000Y-91018400I0J6600D01*
G01*
G37*
G04 #@! TD.AperFunction*
G04 #@! TA.AperFunction,SMDPad,CuDef*
G36*
G01*
X155590000Y-91018400D02*
X155590000Y-90441600D01*
G75*
G02*
X155596600Y-90435000I6600J0D01*
G01*
X155803400Y-90435000D01*
G75*
G02*
X155810000Y-90441600I0J-6600D01*
G01*
X155810000Y-91018400D01*
G75*
G02*
X155803400Y-91025000I-6600J0D01*
G01*
X155596600Y-91025000D01*
G75*
G02*
X155590000Y-91018400I0J6600D01*
G01*
G37*
G04 #@! TD.AperFunction*
G04 #@! TA.AperFunction,SMDPad,CuDef*
G36*
G01*
X155990000Y-91018400D02*
X155990000Y-90441600D01*
G75*
G02*
X155996600Y-90435000I6600J0D01*
G01*
X156203400Y-90435000D01*
G75*
G02*
X156210000Y-90441600I0J-6600D01*
G01*
X156210000Y-91018400D01*
G75*
G02*
X156203400Y-91025000I-6600J0D01*
G01*
X155996600Y-91025000D01*
G75*
G02*
X155990000Y-91018400I0J6600D01*
G01*
G37*
G04 #@! TD.AperFunction*
G04 #@! TA.AperFunction,SMDPad,CuDef*
G36*
G01*
X156390000Y-91018400D02*
X156390000Y-90441600D01*
G75*
G02*
X156396600Y-90435000I6600J0D01*
G01*
X156603400Y-90435000D01*
G75*
G02*
X156610000Y-90441600I0J-6600D01*
G01*
X156610000Y-91018400D01*
G75*
G02*
X156603400Y-91025000I-6600J0D01*
G01*
X156396600Y-91025000D01*
G75*
G02*
X156390000Y-91018400I0J6600D01*
G01*
G37*
G04 #@! TD.AperFunction*
G04 #@! TA.AperFunction,SMDPad,CuDef*
G36*
G01*
X156790000Y-91018400D02*
X156790000Y-90441600D01*
G75*
G02*
X156796600Y-90435000I6600J0D01*
G01*
X157003400Y-90435000D01*
G75*
G02*
X157010000Y-90441600I0J-6600D01*
G01*
X157010000Y-91018400D01*
G75*
G02*
X157003400Y-91025000I-6600J0D01*
G01*
X156796600Y-91025000D01*
G75*
G02*
X156790000Y-91018400I0J6600D01*
G01*
G37*
G04 #@! TD.AperFunction*
G04 #@! TA.AperFunction,SMDPad,CuDef*
G36*
G01*
X156790000Y-95658400D02*
X156790000Y-95081600D01*
G75*
G02*
X156796600Y-95075000I6600J0D01*
G01*
X157003400Y-95075000D01*
G75*
G02*
X157010000Y-95081600I0J-6600D01*
G01*
X157010000Y-95658400D01*
G75*
G02*
X157003400Y-95665000I-6600J0D01*
G01*
X156796600Y-95665000D01*
G75*
G02*
X156790000Y-95658400I0J6600D01*
G01*
G37*
G04 #@! TD.AperFunction*
G04 #@! TA.AperFunction,SMDPad,CuDef*
G36*
G01*
X156390000Y-95658400D02*
X156390000Y-95081600D01*
G75*
G02*
X156396600Y-95075000I6600J0D01*
G01*
X156603400Y-95075000D01*
G75*
G02*
X156610000Y-95081600I0J-6600D01*
G01*
X156610000Y-95658400D01*
G75*
G02*
X156603400Y-95665000I-6600J0D01*
G01*
X156396600Y-95665000D01*
G75*
G02*
X156390000Y-95658400I0J6600D01*
G01*
G37*
G04 #@! TD.AperFunction*
G04 #@! TA.AperFunction,SMDPad,CuDef*
G36*
G01*
X155990000Y-95658400D02*
X155990000Y-95081600D01*
G75*
G02*
X155996600Y-95075000I6600J0D01*
G01*
X156203400Y-95075000D01*
G75*
G02*
X156210000Y-95081600I0J-6600D01*
G01*
X156210000Y-95658400D01*
G75*
G02*
X156203400Y-95665000I-6600J0D01*
G01*
X155996600Y-95665000D01*
G75*
G02*
X155990000Y-95658400I0J6600D01*
G01*
G37*
G04 #@! TD.AperFunction*
G04 #@! TA.AperFunction,SMDPad,CuDef*
G36*
G01*
X155590000Y-95658400D02*
X155590000Y-95081600D01*
G75*
G02*
X155596600Y-95075000I6600J0D01*
G01*
X155803400Y-95075000D01*
G75*
G02*
X155810000Y-95081600I0J-6600D01*
G01*
X155810000Y-95658400D01*
G75*
G02*
X155803400Y-95665000I-6600J0D01*
G01*
X155596600Y-95665000D01*
G75*
G02*
X155590000Y-95658400I0J6600D01*
G01*
G37*
G04 #@! TD.AperFunction*
G04 #@! TA.AperFunction,SMDPad,CuDef*
G36*
G01*
X155190000Y-95658400D02*
X155190000Y-95081600D01*
G75*
G02*
X155196600Y-95075000I6600J0D01*
G01*
X155403400Y-95075000D01*
G75*
G02*
X155410000Y-95081600I0J-6600D01*
G01*
X155410000Y-95658400D01*
G75*
G02*
X155403400Y-95665000I-6600J0D01*
G01*
X155196600Y-95665000D01*
G75*
G02*
X155190000Y-95658400I0J6600D01*
G01*
G37*
G04 #@! TD.AperFunction*
D11*
X168300000Y-99489000D03*
X168300000Y-90489000D03*
D12*
X169060000Y-86939000D03*
X169060000Y-103039000D03*
D13*
X163100000Y-103039000D03*
X163100000Y-86939000D03*
D14*
X162340000Y-99489000D03*
X162340000Y-98989000D03*
X162340000Y-98489000D03*
X162340000Y-97989000D03*
X162340000Y-97489000D03*
X162340000Y-96989000D03*
X162340000Y-96489000D03*
X162340000Y-95989000D03*
X162340000Y-95489000D03*
X162340000Y-90489000D03*
X162340000Y-90989000D03*
X162340000Y-91489000D03*
X162340000Y-91989000D03*
X162340000Y-92489000D03*
X162340000Y-92989000D03*
X162340000Y-93489000D03*
X162340000Y-93989000D03*
X162340000Y-94489000D03*
X162340000Y-94989000D03*
D15*
X147750000Y-102600000D03*
X146850000Y-102900000D03*
X147750000Y-100200000D03*
X147750000Y-97800000D03*
X147750000Y-95400000D03*
X147800000Y-93000000D03*
X147800000Y-90600000D03*
X146850000Y-87100000D03*
X164150000Y-91000000D03*
X164150000Y-92500000D03*
X164150000Y-94000000D03*
X164150000Y-95500000D03*
X164150000Y-98500000D03*
X164700000Y-86950000D03*
X167850000Y-86950000D03*
X164700000Y-103050000D03*
X167850000Y-103050000D03*
X156100000Y-93050000D03*
X155300000Y-89750000D03*
X156234997Y-89750000D03*
X156925000Y-89750000D03*
X157615003Y-89750000D03*
D16*
X147761000Y-102589000D02*
X147750000Y-102600000D01*
X148760000Y-102589000D02*
X147761000Y-102589000D01*
X146840000Y-102910000D02*
X146850000Y-102900000D01*
X146840000Y-103839000D02*
X146840000Y-102910000D01*
X147761000Y-100189000D02*
X147750000Y-100200000D01*
X148760000Y-100189000D02*
X147761000Y-100189000D01*
X147761000Y-97789000D02*
X147750000Y-97800000D01*
X148760000Y-97789000D02*
X147761000Y-97789000D01*
X147761000Y-95389000D02*
X147750000Y-95400000D01*
X148760000Y-95389000D02*
X147761000Y-95389000D01*
X147811000Y-92989000D02*
X147800000Y-93000000D01*
X148760000Y-92989000D02*
X147811000Y-92989000D01*
X147811000Y-90589000D02*
X147800000Y-90600000D01*
X148760000Y-90589000D02*
X147811000Y-90589000D01*
X146840000Y-87090000D02*
X146850000Y-87100000D01*
X146840000Y-86139000D02*
X146840000Y-87090000D01*
X164139000Y-90989000D02*
X164150000Y-91000000D01*
X162340000Y-90989000D02*
X164139000Y-90989000D01*
X164139000Y-92489000D02*
X164150000Y-92500000D01*
X162340000Y-92489000D02*
X164139000Y-92489000D01*
X164139000Y-93989000D02*
X164150000Y-94000000D01*
X162340000Y-93989000D02*
X164139000Y-93989000D01*
X164139000Y-95489000D02*
X164150000Y-95500000D01*
X162340000Y-95489000D02*
X164139000Y-95489000D01*
X164139000Y-98489000D02*
X164150000Y-98500000D01*
X162340000Y-98489000D02*
X164139000Y-98489000D01*
X164689000Y-86939000D02*
X164700000Y-86950000D01*
X163100000Y-86939000D02*
X164689000Y-86939000D01*
X167861000Y-86939000D02*
X167850000Y-86950000D01*
X169060000Y-86939000D02*
X167861000Y-86939000D01*
X164689000Y-103039000D02*
X164700000Y-103050000D01*
X163100000Y-103039000D02*
X164689000Y-103039000D01*
X167861000Y-103039000D02*
X167850000Y-103050000D01*
X169060000Y-103039000D02*
X167861000Y-103039000D01*
X156100000Y-90730000D02*
X156100000Y-93050000D01*
X156100000Y-95370000D02*
X156100000Y-93050000D01*
X156100000Y-93050000D02*
X156100000Y-93050000D01*
X155700000Y-92650000D02*
X156100000Y-93050000D01*
X155700000Y-90730000D02*
X155700000Y-92650000D01*
D17*
X160389999Y-95989000D02*
X162340000Y-95989000D01*
X157420000Y-94850000D02*
X157506208Y-94763792D01*
X160003791Y-95602792D02*
X160389999Y-95989000D01*
X157506208Y-94763792D02*
X158052864Y-94763792D01*
X158052864Y-94763792D02*
X158891864Y-95602792D01*
X158891864Y-95602792D02*
X160003791Y-95602792D01*
X158052864Y-91736208D02*
X158913864Y-90875208D01*
X157506208Y-91736208D02*
X158052864Y-91736208D01*
X157420000Y-91650000D02*
X157506208Y-91736208D01*
X158913864Y-90875208D02*
X160003791Y-90875208D01*
X160389999Y-90489000D02*
X162340000Y-90489000D01*
X160003791Y-90875208D02*
X160389999Y-90489000D01*
X158147136Y-91963792D02*
X159008136Y-91102792D01*
X157420000Y-92050000D02*
X157506208Y-91963792D01*
X157506208Y-91963792D02*
X158147136Y-91963792D01*
X159008136Y-91102792D02*
X160003791Y-91102792D01*
X160389999Y-91489000D02*
X162340000Y-91489000D01*
X160003791Y-91102792D02*
X160389999Y-91489000D01*
X160389999Y-91989000D02*
X160003791Y-92375208D01*
X162340000Y-91989000D02*
X160389999Y-91989000D01*
X157506208Y-92536208D02*
X157420000Y-92450000D01*
X158802864Y-92536208D02*
X157506208Y-92536208D01*
X158963864Y-92375208D02*
X158802864Y-92536208D01*
X158963864Y-92375208D02*
X160003791Y-92375208D01*
X160389999Y-92989000D02*
X160003791Y-92602792D01*
X162340000Y-92989000D02*
X160389999Y-92989000D01*
X157506208Y-92763792D02*
X157420000Y-92850000D01*
X158897136Y-92763792D02*
X157506208Y-92763792D01*
X159058136Y-92602792D02*
X158897136Y-92763792D01*
X159058136Y-92602792D02*
X160003791Y-92602792D01*
X162340000Y-93489000D02*
X160389999Y-93489000D01*
X160389999Y-93489000D02*
X160003791Y-93875208D01*
X157506208Y-93736208D02*
X157420000Y-93650000D01*
X159036136Y-93875208D02*
X158897136Y-93736208D01*
X158897136Y-93736208D02*
X157506208Y-93736208D01*
X159036136Y-93875208D02*
X160003791Y-93875208D01*
X157506208Y-93963792D02*
X157420000Y-94050000D01*
X160389999Y-94489000D02*
X160003791Y-94102792D01*
X158941864Y-94102792D02*
X158802864Y-93963792D01*
X158802864Y-93963792D02*
X157506208Y-93963792D01*
X162340000Y-94489000D02*
X160389999Y-94489000D01*
X158941864Y-94102792D02*
X160003791Y-94102792D01*
X157420000Y-94450000D02*
X157506208Y-94536208D01*
X157506208Y-94536208D02*
X158147136Y-94536208D01*
X158147136Y-94536208D02*
X158986136Y-95375208D01*
X160003791Y-95375208D02*
X160389999Y-94989000D01*
X160389999Y-94989000D02*
X162340000Y-94989000D01*
X158986136Y-95375208D02*
X160003791Y-95375208D01*
X155300000Y-90730000D02*
X155300000Y-89750000D01*
D16*
X156234997Y-89934997D02*
X156500000Y-90200000D01*
X156234997Y-89750000D02*
X156234997Y-89934997D01*
X156500000Y-90730000D02*
X156500000Y-90200000D01*
X156900000Y-89775000D02*
X156925000Y-89750000D01*
X156900000Y-90730000D02*
X156900000Y-89775000D01*
X157615003Y-90474997D02*
X157420000Y-90670000D01*
X157615003Y-89750000D02*
X157615003Y-90474997D01*
X157420000Y-91250000D02*
X157420000Y-90670000D01*
D17*
X148760000Y-101789000D02*
X150311000Y-101789000D01*
X155700000Y-96400000D02*
X155700000Y-95370000D01*
X150311000Y-101789000D02*
X155700000Y-96400000D01*
X148760000Y-100989000D02*
X150311000Y-100989000D01*
X155300000Y-96000000D02*
X155300000Y-95370000D01*
X150311000Y-100989000D02*
X155300000Y-96000000D01*
X148760000Y-98589000D02*
X151041000Y-98589000D01*
X154780000Y-94850000D02*
X154780000Y-95695000D01*
X151886000Y-98589000D02*
X151041000Y-98589000D01*
X154780000Y-95695000D02*
X151886000Y-98589000D01*
X148760000Y-96989000D02*
X149033006Y-96715994D01*
X149865994Y-96715994D02*
X150250000Y-97100000D01*
X149033006Y-96715994D02*
X149865994Y-96715994D01*
X148760000Y-96189000D02*
X149071000Y-96500000D01*
X149850000Y-96500000D02*
X150250000Y-96100000D01*
X149071000Y-96500000D02*
X149850000Y-96500000D01*
X148760000Y-94589000D02*
X149033006Y-94315994D01*
X149865994Y-94315994D02*
X150250000Y-94700000D01*
X149033006Y-94315994D02*
X149865994Y-94315994D01*
X148760000Y-93789000D02*
X149071000Y-94100000D01*
X149840000Y-94100000D02*
X150240000Y-93700000D01*
X149071000Y-94100000D02*
X149840000Y-94100000D01*
X148760000Y-92189000D02*
X149033006Y-91915994D01*
X149855994Y-91915994D02*
X150240000Y-92300000D01*
X149033006Y-91915994D02*
X149855994Y-91915994D01*
X148760000Y-91389000D02*
X149071000Y-91700000D01*
X149840000Y-91700000D02*
X150240000Y-91300000D01*
X149071000Y-91700000D02*
X149840000Y-91700000D01*
X148760000Y-89789000D02*
X149033006Y-89515994D01*
X149855994Y-89515994D02*
X150240000Y-89900000D01*
X149033006Y-89515994D02*
X149855994Y-89515994D01*
X148760000Y-88989000D02*
X149071000Y-89300000D01*
X149840000Y-89300000D02*
X150240000Y-88900000D01*
X149071000Y-89300000D02*
X149840000Y-89300000D01*
X154693792Y-94363792D02*
X154780000Y-94450000D01*
X153946208Y-94363792D02*
X154693792Y-94363792D01*
X151210000Y-97100000D02*
X153946208Y-94363792D01*
X154693792Y-94136208D02*
X154780000Y-94050000D01*
X153851939Y-94136208D02*
X154693792Y-94136208D01*
X151888147Y-96100000D02*
X153851939Y-94136208D01*
X151210000Y-96100000D02*
X151888147Y-96100000D01*
X154693792Y-93563792D02*
X154780000Y-93650000D01*
X152346208Y-93563792D02*
X154693792Y-93563792D01*
X151210000Y-94700000D02*
X152346208Y-93563792D01*
X154693792Y-93336208D02*
X154780000Y-93250000D01*
X152251939Y-93336208D02*
X154693792Y-93336208D01*
X151888147Y-93700000D02*
X152251939Y-93336208D01*
X151200000Y-93700000D02*
X151888147Y-93700000D01*
X152341939Y-92763792D02*
X154693792Y-92763792D01*
X151878147Y-92300000D02*
X152341939Y-92763792D01*
X151200000Y-92300000D02*
X151878147Y-92300000D01*
X154693792Y-92763792D02*
X154780000Y-92850000D01*
X154693792Y-92536208D02*
X154780000Y-92450000D01*
X152436208Y-92536208D02*
X154693792Y-92536208D01*
X151200000Y-91300000D02*
X152436208Y-92536208D01*
X154693792Y-91963792D02*
X154780000Y-92050000D01*
X153941939Y-91963792D02*
X154693792Y-91963792D01*
X151878147Y-89900000D02*
X153941939Y-91963792D01*
X151200000Y-89900000D02*
X151878147Y-89900000D01*
X154693792Y-91736208D02*
X154780000Y-91650000D01*
X154036208Y-91736208D02*
X154693792Y-91736208D01*
X151200000Y-88900000D02*
X154036208Y-91736208D01*
M02*
