%FSLAX45Y45*%
G04 Gerber Fmt 4.5, Leading zero omitted, Abs format (unit mm)*
G04 Created by KiCad (PCBNEW 5.1.10) date 2021-09-10 20:17:04*
%MOMM*%
%LPD*%
G01*
G04 APERTURE LIST*
%TA.AperFunction,Profile*%
%ADD10C,0.050000*%
%TD*%
%ADD11C,0.200000*%
%ADD12C,0.300000*%
G04 APERTURE END LIST*
D10*
X17350000Y-8505000D02*
X14540000Y-8505000D01*
X17350000Y-10492500D02*
X17350000Y-8505000D01*
X14625000Y-10492500D02*
X17350000Y-10492500D01*
X14540000Y-10492500D02*
X14625000Y-10492500D01*
X14540000Y-8527500D02*
X14540000Y-10492500D01*
X14540000Y-8505000D02*
X14540000Y-8527500D01*
D11*
X14670000Y-8695000D02*
X14700000Y-8725000D01*
X14700000Y-8695000D02*
X14670000Y-8725000D01*
X14670000Y-10275000D02*
X14700000Y-10305000D01*
X14700000Y-10275000D02*
X14670000Y-10305000D01*
X14760000Y-9525000D02*
X14790000Y-9555000D01*
X14790000Y-9525000D02*
X14760000Y-9555000D01*
X14760000Y-9765000D02*
X14790000Y-9795000D01*
X14790000Y-9765000D02*
X14760000Y-9795000D01*
X14760000Y-10005000D02*
X14790000Y-10035000D01*
X14790000Y-10005000D02*
X14760000Y-10035000D01*
X14760000Y-10245000D02*
X14790000Y-10275000D01*
X14790000Y-10245000D02*
X14760000Y-10275000D01*
X14765000Y-9045000D02*
X14795000Y-9075000D01*
X14795000Y-9045000D02*
X14765000Y-9075000D01*
X14765000Y-9285000D02*
X14795000Y-9315000D01*
X14795000Y-9285000D02*
X14765000Y-9315000D01*
X15515000Y-8960000D02*
X15545000Y-8990000D01*
X15545000Y-8960000D02*
X15515000Y-8990000D01*
X15595000Y-9290000D02*
X15625000Y-9320000D01*
X15625000Y-9290000D02*
X15595000Y-9320000D01*
X15608500Y-8960000D02*
X15638500Y-8990000D01*
X15638500Y-8960000D02*
X15608500Y-8990000D01*
X15677500Y-8960000D02*
X15707500Y-8990000D01*
X15707500Y-8960000D02*
X15677500Y-8990000D01*
X15746500Y-8960000D02*
X15776500Y-8990000D01*
X15776500Y-8960000D02*
X15746500Y-8990000D01*
X16400000Y-9085000D02*
X16430000Y-9115000D01*
X16430000Y-9085000D02*
X16400000Y-9115000D01*
X16400000Y-9235000D02*
X16430000Y-9265000D01*
X16430000Y-9235000D02*
X16400000Y-9265000D01*
X16400000Y-9385000D02*
X16430000Y-9415000D01*
X16430000Y-9385000D02*
X16400000Y-9415000D01*
X16400000Y-9535000D02*
X16430000Y-9565000D01*
X16430000Y-9535000D02*
X16400000Y-9565000D01*
X16400000Y-9835000D02*
X16430000Y-9865000D01*
X16430000Y-9835000D02*
X16400000Y-9865000D01*
X16455000Y-8680000D02*
X16485000Y-8710000D01*
X16485000Y-8680000D02*
X16455000Y-8710000D01*
X16455000Y-10290000D02*
X16485000Y-10320000D01*
X16485000Y-10290000D02*
X16455000Y-10320000D01*
X16770000Y-8680000D02*
X16800000Y-8710000D01*
X16800000Y-8680000D02*
X16770000Y-8710000D01*
X16770000Y-10290000D02*
X16800000Y-10320000D01*
X16800000Y-10290000D02*
X16770000Y-10320000D01*
X16895000Y-9048900D02*
G75*
G03*
X16895000Y-9048900I-65000J0D01*
G01*
X16895000Y-9948900D02*
G75*
G03*
X16895000Y-9948900I-65000J0D01*
G01*
D12*
X14823928Y-10960714D02*
X14823928Y-10660714D01*
X14895357Y-10660714D01*
X14938214Y-10675000D01*
X14966786Y-10703572D01*
X14981071Y-10732143D01*
X14995357Y-10789286D01*
X14995357Y-10832143D01*
X14981071Y-10889286D01*
X14966786Y-10917857D01*
X14938214Y-10946429D01*
X14895357Y-10960714D01*
X14823928Y-10960714D01*
X15123928Y-10960714D02*
X15123928Y-10760714D01*
X15123928Y-10817857D02*
X15138214Y-10789286D01*
X15152500Y-10775000D01*
X15181071Y-10760714D01*
X15209643Y-10760714D01*
X15309643Y-10960714D02*
X15309643Y-10760714D01*
X15309643Y-10660714D02*
X15295357Y-10675000D01*
X15309643Y-10689286D01*
X15323928Y-10675000D01*
X15309643Y-10660714D01*
X15309643Y-10689286D01*
X15495357Y-10960714D02*
X15466786Y-10946429D01*
X15452500Y-10917857D01*
X15452500Y-10660714D01*
X15652500Y-10960714D02*
X15623928Y-10946429D01*
X15609643Y-10917857D01*
X15609643Y-10660714D01*
X15995357Y-10960714D02*
X15995357Y-10660714D01*
X16095357Y-10875000D01*
X16195357Y-10660714D01*
X16195357Y-10960714D01*
X16466786Y-10960714D02*
X16466786Y-10803572D01*
X16452500Y-10775000D01*
X16423928Y-10760714D01*
X16366786Y-10760714D01*
X16338214Y-10775000D01*
X16466786Y-10946429D02*
X16438214Y-10960714D01*
X16366786Y-10960714D01*
X16338214Y-10946429D01*
X16323928Y-10917857D01*
X16323928Y-10889286D01*
X16338214Y-10860714D01*
X16366786Y-10846429D01*
X16438214Y-10846429D01*
X16466786Y-10832143D01*
X16609643Y-10760714D02*
X16609643Y-11060714D01*
X16609643Y-10775000D02*
X16638214Y-10760714D01*
X16695357Y-10760714D01*
X16723928Y-10775000D01*
X16738214Y-10789286D01*
X16752500Y-10817857D01*
X16752500Y-10903572D01*
X16738214Y-10932143D01*
X16723928Y-10946429D01*
X16695357Y-10960714D01*
X16638214Y-10960714D01*
X16609643Y-10946429D01*
X16881071Y-10932143D02*
X16895357Y-10946429D01*
X16881071Y-10960714D01*
X16866786Y-10946429D01*
X16881071Y-10932143D01*
X16881071Y-10960714D01*
X16881071Y-10775000D02*
X16895357Y-10789286D01*
X16881071Y-10803572D01*
X16866786Y-10789286D01*
X16881071Y-10775000D01*
X16881071Y-10803572D01*
X14507500Y-11440000D02*
X14537500Y-11470000D01*
X14537500Y-11440000D02*
X14507500Y-11470000D01*
X14881071Y-11290714D02*
X14909643Y-11290714D01*
X14938214Y-11305000D01*
X14952500Y-11319286D01*
X14966786Y-11347857D01*
X14981071Y-11405000D01*
X14981071Y-11476429D01*
X14966786Y-11533571D01*
X14952500Y-11562143D01*
X14938214Y-11576429D01*
X14909643Y-11590714D01*
X14881071Y-11590714D01*
X14852500Y-11576429D01*
X14838214Y-11562143D01*
X14823928Y-11533571D01*
X14809643Y-11476429D01*
X14809643Y-11405000D01*
X14823928Y-11347857D01*
X14838214Y-11319286D01*
X14852500Y-11305000D01*
X14881071Y-11290714D01*
X15109643Y-11562143D02*
X15123928Y-11576429D01*
X15109643Y-11590714D01*
X15095357Y-11576429D01*
X15109643Y-11562143D01*
X15109643Y-11590714D01*
X15223928Y-11290714D02*
X15409643Y-11290714D01*
X15309643Y-11405000D01*
X15352500Y-11405000D01*
X15381071Y-11419286D01*
X15395357Y-11433571D01*
X15409643Y-11462143D01*
X15409643Y-11533571D01*
X15395357Y-11562143D01*
X15381071Y-11576429D01*
X15352500Y-11590714D01*
X15266786Y-11590714D01*
X15238214Y-11576429D01*
X15223928Y-11562143D01*
X15595357Y-11290714D02*
X15623928Y-11290714D01*
X15652500Y-11305000D01*
X15666786Y-11319286D01*
X15681071Y-11347857D01*
X15695357Y-11405000D01*
X15695357Y-11476429D01*
X15681071Y-11533571D01*
X15666786Y-11562143D01*
X15652500Y-11576429D01*
X15623928Y-11590714D01*
X15595357Y-11590714D01*
X15566786Y-11576429D01*
X15552500Y-11562143D01*
X15538214Y-11533571D01*
X15523928Y-11476429D01*
X15523928Y-11405000D01*
X15538214Y-11347857D01*
X15552500Y-11319286D01*
X15566786Y-11305000D01*
X15595357Y-11290714D01*
X15881071Y-11290714D02*
X15909643Y-11290714D01*
X15938214Y-11305000D01*
X15952500Y-11319286D01*
X15966786Y-11347857D01*
X15981071Y-11405000D01*
X15981071Y-11476429D01*
X15966786Y-11533571D01*
X15952500Y-11562143D01*
X15938214Y-11576429D01*
X15909643Y-11590714D01*
X15881071Y-11590714D01*
X15852500Y-11576429D01*
X15838214Y-11562143D01*
X15823928Y-11533571D01*
X15809643Y-11476429D01*
X15809643Y-11405000D01*
X15823928Y-11347857D01*
X15838214Y-11319286D01*
X15852500Y-11305000D01*
X15881071Y-11290714D01*
X16109643Y-11590714D02*
X16109643Y-11390714D01*
X16109643Y-11419286D02*
X16123928Y-11405000D01*
X16152500Y-11390714D01*
X16195357Y-11390714D01*
X16223928Y-11405000D01*
X16238214Y-11433571D01*
X16238214Y-11590714D01*
X16238214Y-11433571D02*
X16252500Y-11405000D01*
X16281071Y-11390714D01*
X16323928Y-11390714D01*
X16352500Y-11405000D01*
X16366786Y-11433571D01*
X16366786Y-11590714D01*
X16509643Y-11590714D02*
X16509643Y-11390714D01*
X16509643Y-11419286D02*
X16523928Y-11405000D01*
X16552500Y-11390714D01*
X16595357Y-11390714D01*
X16623928Y-11405000D01*
X16638214Y-11433571D01*
X16638214Y-11590714D01*
X16638214Y-11433571D02*
X16652500Y-11405000D01*
X16681071Y-11390714D01*
X16723928Y-11390714D01*
X16752500Y-11405000D01*
X16766786Y-11433571D01*
X16766786Y-11590714D01*
X17352500Y-11276429D02*
X17095357Y-11662143D01*
X17738214Y-11290714D02*
X17766786Y-11290714D01*
X17795357Y-11305000D01*
X17809643Y-11319286D01*
X17823928Y-11347857D01*
X17838214Y-11405000D01*
X17838214Y-11476429D01*
X17823928Y-11533571D01*
X17809643Y-11562143D01*
X17795357Y-11576429D01*
X17766786Y-11590714D01*
X17738214Y-11590714D01*
X17709643Y-11576429D01*
X17695357Y-11562143D01*
X17681071Y-11533571D01*
X17666786Y-11476429D01*
X17666786Y-11405000D01*
X17681071Y-11347857D01*
X17695357Y-11319286D01*
X17709643Y-11305000D01*
X17738214Y-11290714D01*
X17966786Y-11562143D02*
X17981071Y-11576429D01*
X17966786Y-11590714D01*
X17952500Y-11576429D01*
X17966786Y-11562143D01*
X17966786Y-11590714D01*
X18166786Y-11290714D02*
X18195357Y-11290714D01*
X18223928Y-11305000D01*
X18238214Y-11319286D01*
X18252500Y-11347857D01*
X18266786Y-11405000D01*
X18266786Y-11476429D01*
X18252500Y-11533571D01*
X18238214Y-11562143D01*
X18223928Y-11576429D01*
X18195357Y-11590714D01*
X18166786Y-11590714D01*
X18138214Y-11576429D01*
X18123928Y-11562143D01*
X18109643Y-11533571D01*
X18095357Y-11476429D01*
X18095357Y-11405000D01*
X18109643Y-11347857D01*
X18123928Y-11319286D01*
X18138214Y-11305000D01*
X18166786Y-11290714D01*
X18552500Y-11590714D02*
X18381071Y-11590714D01*
X18466786Y-11590714D02*
X18466786Y-11290714D01*
X18438214Y-11333571D01*
X18409643Y-11362143D01*
X18381071Y-11376429D01*
X18838214Y-11590714D02*
X18666786Y-11590714D01*
X18752500Y-11590714D02*
X18752500Y-11290714D01*
X18723928Y-11333571D01*
X18695357Y-11362143D01*
X18666786Y-11376429D01*
X19009643Y-11419286D02*
X18981071Y-11405000D01*
X18966786Y-11390714D01*
X18952500Y-11362143D01*
X18952500Y-11347857D01*
X18966786Y-11319286D01*
X18981071Y-11305000D01*
X19009643Y-11290714D01*
X19066786Y-11290714D01*
X19095357Y-11305000D01*
X19109643Y-11319286D01*
X19123928Y-11347857D01*
X19123928Y-11362143D01*
X19109643Y-11390714D01*
X19095357Y-11405000D01*
X19066786Y-11419286D01*
X19009643Y-11419286D01*
X18981071Y-11433571D01*
X18966786Y-11447857D01*
X18952500Y-11476429D01*
X18952500Y-11533571D01*
X18966786Y-11562143D01*
X18981071Y-11576429D01*
X19009643Y-11590714D01*
X19066786Y-11590714D01*
X19095357Y-11576429D01*
X19109643Y-11562143D01*
X19123928Y-11533571D01*
X19123928Y-11476429D01*
X19109643Y-11447857D01*
X19095357Y-11433571D01*
X19066786Y-11419286D01*
X19238214Y-11290714D02*
X19238214Y-11347857D01*
X19352500Y-11290714D02*
X19352500Y-11347857D01*
X19795357Y-11705000D02*
X19781071Y-11690714D01*
X19752500Y-11647857D01*
X19738214Y-11619286D01*
X19723928Y-11576429D01*
X19709643Y-11505000D01*
X19709643Y-11447857D01*
X19723928Y-11376429D01*
X19738214Y-11333571D01*
X19752500Y-11305000D01*
X19781071Y-11262143D01*
X19795357Y-11247857D01*
X19895357Y-11319286D02*
X19909643Y-11305000D01*
X19938214Y-11290714D01*
X20009643Y-11290714D01*
X20038214Y-11305000D01*
X20052500Y-11319286D01*
X20066786Y-11347857D01*
X20066786Y-11376429D01*
X20052500Y-11419286D01*
X19881071Y-11590714D01*
X20066786Y-11590714D01*
X20181071Y-11319286D02*
X20195357Y-11305000D01*
X20223928Y-11290714D01*
X20295357Y-11290714D01*
X20323928Y-11305000D01*
X20338214Y-11319286D01*
X20352500Y-11347857D01*
X20352500Y-11376429D01*
X20338214Y-11419286D01*
X20166786Y-11590714D01*
X20352500Y-11590714D01*
X20709643Y-11590714D02*
X20709643Y-11290714D01*
X20838214Y-11590714D02*
X20838214Y-11433571D01*
X20823928Y-11405000D01*
X20795357Y-11390714D01*
X20752500Y-11390714D01*
X20723928Y-11405000D01*
X20709643Y-11419286D01*
X21023928Y-11590714D02*
X20995357Y-11576429D01*
X20981071Y-11562143D01*
X20966786Y-11533571D01*
X20966786Y-11447857D01*
X20981071Y-11419286D01*
X20995357Y-11405000D01*
X21023928Y-11390714D01*
X21066786Y-11390714D01*
X21095357Y-11405000D01*
X21109643Y-11419286D01*
X21123928Y-11447857D01*
X21123928Y-11533571D01*
X21109643Y-11562143D01*
X21095357Y-11576429D01*
X21066786Y-11590714D01*
X21023928Y-11590714D01*
X21295357Y-11590714D02*
X21266786Y-11576429D01*
X21252500Y-11547857D01*
X21252500Y-11290714D01*
X21523928Y-11576429D02*
X21495357Y-11590714D01*
X21438214Y-11590714D01*
X21409643Y-11576429D01*
X21395357Y-11547857D01*
X21395357Y-11433571D01*
X21409643Y-11405000D01*
X21438214Y-11390714D01*
X21495357Y-11390714D01*
X21523928Y-11405000D01*
X21538214Y-11433571D01*
X21538214Y-11462143D01*
X21395357Y-11490714D01*
X21652500Y-11576429D02*
X21681071Y-11590714D01*
X21738214Y-11590714D01*
X21766786Y-11576429D01*
X21781071Y-11547857D01*
X21781071Y-11533571D01*
X21766786Y-11505000D01*
X21738214Y-11490714D01*
X21695357Y-11490714D01*
X21666786Y-11476429D01*
X21652500Y-11447857D01*
X21652500Y-11433571D01*
X21666786Y-11405000D01*
X21695357Y-11390714D01*
X21738214Y-11390714D01*
X21766786Y-11405000D01*
X21881071Y-11705000D02*
X21895357Y-11690714D01*
X21923928Y-11647857D01*
X21938214Y-11619286D01*
X21952500Y-11576429D01*
X21966786Y-11505000D01*
X21966786Y-11447857D01*
X21952500Y-11376429D01*
X21938214Y-11333571D01*
X21923928Y-11305000D01*
X21895357Y-11262143D01*
X21881071Y-11247857D01*
X14537500Y-11851000D02*
G75*
G03*
X14537500Y-11851000I-65000J0D01*
G01*
X14981071Y-11986714D02*
X14809643Y-11986714D01*
X14895357Y-11986714D02*
X14895357Y-11686714D01*
X14866786Y-11729571D01*
X14838214Y-11758143D01*
X14809643Y-11772429D01*
X15109643Y-11958143D02*
X15123928Y-11972429D01*
X15109643Y-11986714D01*
X15095357Y-11972429D01*
X15109643Y-11958143D01*
X15109643Y-11986714D01*
X15223928Y-11686714D02*
X15409643Y-11686714D01*
X15309643Y-11801000D01*
X15352500Y-11801000D01*
X15381071Y-11815286D01*
X15395357Y-11829571D01*
X15409643Y-11858143D01*
X15409643Y-11929571D01*
X15395357Y-11958143D01*
X15381071Y-11972429D01*
X15352500Y-11986714D01*
X15266786Y-11986714D01*
X15238214Y-11972429D01*
X15223928Y-11958143D01*
X15595357Y-11686714D02*
X15623928Y-11686714D01*
X15652500Y-11701000D01*
X15666786Y-11715286D01*
X15681071Y-11743857D01*
X15695357Y-11801000D01*
X15695357Y-11872429D01*
X15681071Y-11929571D01*
X15666786Y-11958143D01*
X15652500Y-11972429D01*
X15623928Y-11986714D01*
X15595357Y-11986714D01*
X15566786Y-11972429D01*
X15552500Y-11958143D01*
X15538214Y-11929571D01*
X15523928Y-11872429D01*
X15523928Y-11801000D01*
X15538214Y-11743857D01*
X15552500Y-11715286D01*
X15566786Y-11701000D01*
X15595357Y-11686714D01*
X15881071Y-11686714D02*
X15909643Y-11686714D01*
X15938214Y-11701000D01*
X15952500Y-11715286D01*
X15966786Y-11743857D01*
X15981071Y-11801000D01*
X15981071Y-11872429D01*
X15966786Y-11929571D01*
X15952500Y-11958143D01*
X15938214Y-11972429D01*
X15909643Y-11986714D01*
X15881071Y-11986714D01*
X15852500Y-11972429D01*
X15838214Y-11958143D01*
X15823928Y-11929571D01*
X15809643Y-11872429D01*
X15809643Y-11801000D01*
X15823928Y-11743857D01*
X15838214Y-11715286D01*
X15852500Y-11701000D01*
X15881071Y-11686714D01*
X16109643Y-11986714D02*
X16109643Y-11786714D01*
X16109643Y-11815286D02*
X16123928Y-11801000D01*
X16152500Y-11786714D01*
X16195357Y-11786714D01*
X16223928Y-11801000D01*
X16238214Y-11829571D01*
X16238214Y-11986714D01*
X16238214Y-11829571D02*
X16252500Y-11801000D01*
X16281071Y-11786714D01*
X16323928Y-11786714D01*
X16352500Y-11801000D01*
X16366786Y-11829571D01*
X16366786Y-11986714D01*
X16509643Y-11986714D02*
X16509643Y-11786714D01*
X16509643Y-11815286D02*
X16523928Y-11801000D01*
X16552500Y-11786714D01*
X16595357Y-11786714D01*
X16623928Y-11801000D01*
X16638214Y-11829571D01*
X16638214Y-11986714D01*
X16638214Y-11829571D02*
X16652500Y-11801000D01*
X16681071Y-11786714D01*
X16723928Y-11786714D01*
X16752500Y-11801000D01*
X16766786Y-11829571D01*
X16766786Y-11986714D01*
X17352500Y-11672429D02*
X17095357Y-12058143D01*
X17738214Y-11686714D02*
X17766786Y-11686714D01*
X17795357Y-11701000D01*
X17809643Y-11715286D01*
X17823928Y-11743857D01*
X17838214Y-11801000D01*
X17838214Y-11872429D01*
X17823928Y-11929571D01*
X17809643Y-11958143D01*
X17795357Y-11972429D01*
X17766786Y-11986714D01*
X17738214Y-11986714D01*
X17709643Y-11972429D01*
X17695357Y-11958143D01*
X17681071Y-11929571D01*
X17666786Y-11872429D01*
X17666786Y-11801000D01*
X17681071Y-11743857D01*
X17695357Y-11715286D01*
X17709643Y-11701000D01*
X17738214Y-11686714D01*
X17966786Y-11958143D02*
X17981071Y-11972429D01*
X17966786Y-11986714D01*
X17952500Y-11972429D01*
X17966786Y-11958143D01*
X17966786Y-11986714D01*
X18166786Y-11686714D02*
X18195357Y-11686714D01*
X18223928Y-11701000D01*
X18238214Y-11715286D01*
X18252500Y-11743857D01*
X18266786Y-11801000D01*
X18266786Y-11872429D01*
X18252500Y-11929571D01*
X18238214Y-11958143D01*
X18223928Y-11972429D01*
X18195357Y-11986714D01*
X18166786Y-11986714D01*
X18138214Y-11972429D01*
X18123928Y-11958143D01*
X18109643Y-11929571D01*
X18095357Y-11872429D01*
X18095357Y-11801000D01*
X18109643Y-11743857D01*
X18123928Y-11715286D01*
X18138214Y-11701000D01*
X18166786Y-11686714D01*
X18538214Y-11686714D02*
X18395357Y-11686714D01*
X18381071Y-11829571D01*
X18395357Y-11815286D01*
X18423928Y-11801000D01*
X18495357Y-11801000D01*
X18523928Y-11815286D01*
X18538214Y-11829571D01*
X18552500Y-11858143D01*
X18552500Y-11929571D01*
X18538214Y-11958143D01*
X18523928Y-11972429D01*
X18495357Y-11986714D01*
X18423928Y-11986714D01*
X18395357Y-11972429D01*
X18381071Y-11958143D01*
X18838214Y-11986714D02*
X18666786Y-11986714D01*
X18752500Y-11986714D02*
X18752500Y-11686714D01*
X18723928Y-11729571D01*
X18695357Y-11758143D01*
X18666786Y-11772429D01*
X18952500Y-11715286D02*
X18966786Y-11701000D01*
X18995357Y-11686714D01*
X19066786Y-11686714D01*
X19095357Y-11701000D01*
X19109643Y-11715286D01*
X19123928Y-11743857D01*
X19123928Y-11772429D01*
X19109643Y-11815286D01*
X18938214Y-11986714D01*
X19123928Y-11986714D01*
X19238214Y-11686714D02*
X19238214Y-11743857D01*
X19352500Y-11686714D02*
X19352500Y-11743857D01*
X19795357Y-12101000D02*
X19781071Y-12086714D01*
X19752500Y-12043857D01*
X19738214Y-12015286D01*
X19723928Y-11972429D01*
X19709643Y-11901000D01*
X19709643Y-11843857D01*
X19723928Y-11772429D01*
X19738214Y-11729571D01*
X19752500Y-11701000D01*
X19781071Y-11658143D01*
X19795357Y-11643857D01*
X19895357Y-11715286D02*
X19909643Y-11701000D01*
X19938214Y-11686714D01*
X20009643Y-11686714D01*
X20038214Y-11701000D01*
X20052500Y-11715286D01*
X20066786Y-11743857D01*
X20066786Y-11772429D01*
X20052500Y-11815286D01*
X19881071Y-11986714D01*
X20066786Y-11986714D01*
X20423928Y-11986714D02*
X20423928Y-11686714D01*
X20552500Y-11986714D02*
X20552500Y-11829571D01*
X20538214Y-11801000D01*
X20509643Y-11786714D01*
X20466786Y-11786714D01*
X20438214Y-11801000D01*
X20423928Y-11815286D01*
X20738214Y-11986714D02*
X20709643Y-11972429D01*
X20695357Y-11958143D01*
X20681071Y-11929571D01*
X20681071Y-11843857D01*
X20695357Y-11815286D01*
X20709643Y-11801000D01*
X20738214Y-11786714D01*
X20781071Y-11786714D01*
X20809643Y-11801000D01*
X20823928Y-11815286D01*
X20838214Y-11843857D01*
X20838214Y-11929571D01*
X20823928Y-11958143D01*
X20809643Y-11972429D01*
X20781071Y-11986714D01*
X20738214Y-11986714D01*
X21009643Y-11986714D02*
X20981071Y-11972429D01*
X20966786Y-11943857D01*
X20966786Y-11686714D01*
X21238214Y-11972429D02*
X21209643Y-11986714D01*
X21152500Y-11986714D01*
X21123928Y-11972429D01*
X21109643Y-11943857D01*
X21109643Y-11829571D01*
X21123928Y-11801000D01*
X21152500Y-11786714D01*
X21209643Y-11786714D01*
X21238214Y-11801000D01*
X21252500Y-11829571D01*
X21252500Y-11858143D01*
X21109643Y-11886714D01*
X21366786Y-11972429D02*
X21395357Y-11986714D01*
X21452500Y-11986714D01*
X21481071Y-11972429D01*
X21495357Y-11943857D01*
X21495357Y-11929571D01*
X21481071Y-11901000D01*
X21452500Y-11886714D01*
X21409643Y-11886714D01*
X21381071Y-11872429D01*
X21366786Y-11843857D01*
X21366786Y-11829571D01*
X21381071Y-11801000D01*
X21409643Y-11786714D01*
X21452500Y-11786714D01*
X21481071Y-11801000D01*
X21595357Y-12101000D02*
X21609643Y-12086714D01*
X21638214Y-12043857D01*
X21652500Y-12015286D01*
X21666786Y-11972429D01*
X21681071Y-11901000D01*
X21681071Y-11843857D01*
X21666786Y-11772429D01*
X21652500Y-11729571D01*
X21638214Y-11701000D01*
X21609643Y-11658143D01*
X21595357Y-11643857D01*
M02*
