G04 #@! TF.GenerationSoftware,KiCad,Pcbnew,5.1.10*
G04 #@! TF.CreationDate,2021-09-12T21:14:18-07:00*
G04 #@! TF.ProjectId,ACORN-CLE-DVI,41434f52-4e2d-4434-9c45-2d4456492e6b,rev?*
G04 #@! TF.SameCoordinates,Original*
G04 #@! TF.FileFunction,Copper,L2,Inr*
G04 #@! TF.FilePolarity,Positive*
%FSLAX46Y46*%
G04 Gerber Fmt 4.6, Leading zero omitted, Abs format (unit mm)*
G04 Created by KiCad (PCBNEW 5.1.10) date 2021-09-12 21:14:18*
%MOMM*%
%LPD*%
G01*
G04 APERTURE LIST*
G04 #@! TA.AperFunction,ComponentPad*
%ADD10C,1.300000*%
G04 #@! TD*
G04 #@! TA.AperFunction,ViaPad*
%ADD11C,0.600000*%
G04 #@! TD*
G04 #@! TA.AperFunction,Conductor*
%ADD12C,0.254000*%
G04 #@! TD*
G04 #@! TA.AperFunction,Conductor*
%ADD13C,0.100000*%
G04 #@! TD*
G04 APERTURE END LIST*
D10*
X162650000Y-107939000D03*
X162650000Y-98939000D03*
D11*
X150450000Y-102600000D03*
X142100000Y-111050000D03*
X141200000Y-111350000D03*
X142100000Y-108650000D03*
X142100000Y-106250000D03*
X142100000Y-103850000D03*
X142150000Y-101450000D03*
X142150000Y-99050000D03*
X141200000Y-95550000D03*
X158500000Y-99450000D03*
X158500000Y-100950000D03*
X158500000Y-102450000D03*
X158500000Y-103950000D03*
X158500000Y-106950000D03*
X159050000Y-95400000D03*
X162200000Y-95400000D03*
X159050000Y-111500000D03*
X162200000Y-111500000D03*
X150450000Y-101500000D03*
X144336000Y-94589000D03*
X152440000Y-109810000D03*
X150450000Y-100375000D03*
X150680000Y-107410000D03*
X147550000Y-95825000D03*
X151500000Y-112025000D03*
X154225000Y-110975000D03*
X144700000Y-107600000D03*
X144700000Y-112025000D03*
X152875000Y-101700000D03*
X149625000Y-98400000D03*
X150450000Y-98400000D03*
X156700000Y-108575000D03*
X151250000Y-98400000D03*
X154525000Y-106439000D03*
X154525000Y-105300000D03*
X152050000Y-98400000D03*
X151475000Y-104875000D03*
X150625000Y-104875000D03*
X148820000Y-98400000D03*
D12*
X167571000Y-113096000D02*
X140029000Y-113096000D01*
X140029000Y-111970436D01*
X144146000Y-111970436D01*
X144146000Y-112079564D01*
X144167289Y-112186596D01*
X144209051Y-112287418D01*
X144269680Y-112378155D01*
X144346845Y-112455320D01*
X144437582Y-112515949D01*
X144538404Y-112557711D01*
X144645436Y-112579000D01*
X144754564Y-112579000D01*
X144861596Y-112557711D01*
X144962418Y-112515949D01*
X145053155Y-112455320D01*
X145130320Y-112378155D01*
X145190949Y-112287418D01*
X145232711Y-112186596D01*
X145254000Y-112079564D01*
X145254000Y-111970436D01*
X150946000Y-111970436D01*
X150946000Y-112079564D01*
X150967289Y-112186596D01*
X151009051Y-112287418D01*
X151069680Y-112378155D01*
X151146845Y-112455320D01*
X151237582Y-112515949D01*
X151338404Y-112557711D01*
X151445436Y-112579000D01*
X151554564Y-112579000D01*
X151661596Y-112557711D01*
X151762418Y-112515949D01*
X151853155Y-112455320D01*
X151930320Y-112378155D01*
X151990949Y-112287418D01*
X152032711Y-112186596D01*
X152054000Y-112079564D01*
X152054000Y-111970436D01*
X152032711Y-111863404D01*
X151990949Y-111762582D01*
X151930320Y-111671845D01*
X151853155Y-111594680D01*
X151762418Y-111534051D01*
X151661596Y-111492289D01*
X151554564Y-111471000D01*
X151445436Y-111471000D01*
X151338404Y-111492289D01*
X151237582Y-111534051D01*
X151146845Y-111594680D01*
X151069680Y-111671845D01*
X151009051Y-111762582D01*
X150967289Y-111863404D01*
X150946000Y-111970436D01*
X145254000Y-111970436D01*
X145232711Y-111863404D01*
X145190949Y-111762582D01*
X145130320Y-111671845D01*
X145053155Y-111594680D01*
X144962418Y-111534051D01*
X144861596Y-111492289D01*
X144754564Y-111471000D01*
X144645436Y-111471000D01*
X144538404Y-111492289D01*
X144437582Y-111534051D01*
X144346845Y-111594680D01*
X144269680Y-111671845D01*
X144209051Y-111762582D01*
X144167289Y-111863404D01*
X144146000Y-111970436D01*
X140029000Y-111970436D01*
X140029000Y-110920436D01*
X153671000Y-110920436D01*
X153671000Y-111029564D01*
X153692289Y-111136596D01*
X153734051Y-111237418D01*
X153794680Y-111328155D01*
X153871845Y-111405320D01*
X153962582Y-111465949D01*
X154063404Y-111507711D01*
X154170436Y-111529000D01*
X154279564Y-111529000D01*
X154386596Y-111507711D01*
X154487418Y-111465949D01*
X154578155Y-111405320D01*
X154655320Y-111328155D01*
X154715949Y-111237418D01*
X154757711Y-111136596D01*
X154779000Y-111029564D01*
X154779000Y-110920436D01*
X154757711Y-110813404D01*
X154715949Y-110712582D01*
X154655320Y-110621845D01*
X154578155Y-110544680D01*
X154487418Y-110484051D01*
X154386596Y-110442289D01*
X154279564Y-110421000D01*
X154170436Y-110421000D01*
X154063404Y-110442289D01*
X153962582Y-110484051D01*
X153871845Y-110544680D01*
X153794680Y-110621845D01*
X153734051Y-110712582D01*
X153692289Y-110813404D01*
X153671000Y-110920436D01*
X140029000Y-110920436D01*
X140029000Y-108520436D01*
X156146000Y-108520436D01*
X156146000Y-108629564D01*
X156167289Y-108736596D01*
X156209051Y-108837418D01*
X156269680Y-108928155D01*
X156346845Y-109005320D01*
X156437582Y-109065949D01*
X156538404Y-109107711D01*
X156645436Y-109129000D01*
X156754564Y-109129000D01*
X156861596Y-109107711D01*
X156962418Y-109065949D01*
X157053155Y-109005320D01*
X157130320Y-108928155D01*
X157190949Y-108837418D01*
X157232711Y-108736596D01*
X157254000Y-108629564D01*
X157254000Y-108520436D01*
X157232711Y-108413404D01*
X157190949Y-108312582D01*
X157130320Y-108221845D01*
X157053155Y-108144680D01*
X156962418Y-108084051D01*
X156861596Y-108042289D01*
X156754564Y-108021000D01*
X156645436Y-108021000D01*
X156538404Y-108042289D01*
X156437582Y-108084051D01*
X156346845Y-108144680D01*
X156269680Y-108221845D01*
X156209051Y-108312582D01*
X156167289Y-108413404D01*
X156146000Y-108520436D01*
X140029000Y-108520436D01*
X140029000Y-107545436D01*
X144146000Y-107545436D01*
X144146000Y-107654564D01*
X144167289Y-107761596D01*
X144209051Y-107862418D01*
X144269680Y-107953155D01*
X144346845Y-108030320D01*
X144437582Y-108090949D01*
X144538404Y-108132711D01*
X144645436Y-108154000D01*
X144754564Y-108154000D01*
X144861596Y-108132711D01*
X144962418Y-108090949D01*
X145053155Y-108030320D01*
X145130320Y-107953155D01*
X145190949Y-107862418D01*
X145196107Y-107849964D01*
X161746000Y-107849964D01*
X161746000Y-108028036D01*
X161780740Y-108202687D01*
X161848886Y-108367205D01*
X161947817Y-108515266D01*
X162073734Y-108641183D01*
X162221795Y-108740114D01*
X162386313Y-108808260D01*
X162560964Y-108843000D01*
X162739036Y-108843000D01*
X162913687Y-108808260D01*
X163078205Y-108740114D01*
X163226266Y-108641183D01*
X163352183Y-108515266D01*
X163451114Y-108367205D01*
X163519260Y-108202687D01*
X163554000Y-108028036D01*
X163554000Y-107849964D01*
X163519260Y-107675313D01*
X163451114Y-107510795D01*
X163352183Y-107362734D01*
X163226266Y-107236817D01*
X163078205Y-107137886D01*
X162913687Y-107069740D01*
X162739036Y-107035000D01*
X162560964Y-107035000D01*
X162386313Y-107069740D01*
X162221795Y-107137886D01*
X162073734Y-107236817D01*
X161947817Y-107362734D01*
X161848886Y-107510795D01*
X161780740Y-107675313D01*
X161746000Y-107849964D01*
X145196107Y-107849964D01*
X145232711Y-107761596D01*
X145254000Y-107654564D01*
X145254000Y-107545436D01*
X145232711Y-107438404D01*
X145190949Y-107337582D01*
X145130320Y-107246845D01*
X145053155Y-107169680D01*
X144962418Y-107109051D01*
X144861596Y-107067289D01*
X144754564Y-107046000D01*
X144645436Y-107046000D01*
X144538404Y-107067289D01*
X144437582Y-107109051D01*
X144346845Y-107169680D01*
X144269680Y-107246845D01*
X144209051Y-107337582D01*
X144167289Y-107438404D01*
X144146000Y-107545436D01*
X140029000Y-107545436D01*
X140029000Y-106384436D01*
X153971000Y-106384436D01*
X153971000Y-106493564D01*
X153992289Y-106600596D01*
X154034051Y-106701418D01*
X154094680Y-106792155D01*
X154171845Y-106869320D01*
X154262582Y-106929949D01*
X154363404Y-106971711D01*
X154470436Y-106993000D01*
X154579564Y-106993000D01*
X154686596Y-106971711D01*
X154787418Y-106929949D01*
X154878155Y-106869320D01*
X154955320Y-106792155D01*
X155015949Y-106701418D01*
X155057711Y-106600596D01*
X155079000Y-106493564D01*
X155079000Y-106384436D01*
X155057711Y-106277404D01*
X155015949Y-106176582D01*
X154955320Y-106085845D01*
X154878155Y-106008680D01*
X154787418Y-105948051D01*
X154686596Y-105906289D01*
X154579564Y-105885000D01*
X154470436Y-105885000D01*
X154363404Y-105906289D01*
X154262582Y-105948051D01*
X154171845Y-106008680D01*
X154094680Y-106085845D01*
X154034051Y-106176582D01*
X153992289Y-106277404D01*
X153971000Y-106384436D01*
X140029000Y-106384436D01*
X140029000Y-104820436D01*
X150071000Y-104820436D01*
X150071000Y-104929564D01*
X150092289Y-105036596D01*
X150134051Y-105137418D01*
X150194680Y-105228155D01*
X150271845Y-105305320D01*
X150362582Y-105365949D01*
X150463404Y-105407711D01*
X150570436Y-105429000D01*
X150679564Y-105429000D01*
X150786596Y-105407711D01*
X150887418Y-105365949D01*
X150978155Y-105305320D01*
X151050000Y-105233475D01*
X151121845Y-105305320D01*
X151212582Y-105365949D01*
X151313404Y-105407711D01*
X151420436Y-105429000D01*
X151529564Y-105429000D01*
X151636596Y-105407711D01*
X151737418Y-105365949D01*
X151828155Y-105305320D01*
X151888039Y-105245436D01*
X153971000Y-105245436D01*
X153971000Y-105354564D01*
X153992289Y-105461596D01*
X154034051Y-105562418D01*
X154094680Y-105653155D01*
X154171845Y-105730320D01*
X154262582Y-105790949D01*
X154363404Y-105832711D01*
X154470436Y-105854000D01*
X154579564Y-105854000D01*
X154686596Y-105832711D01*
X154787418Y-105790949D01*
X154878155Y-105730320D01*
X154955320Y-105653155D01*
X155015949Y-105562418D01*
X155057711Y-105461596D01*
X155079000Y-105354564D01*
X155079000Y-105245436D01*
X155057711Y-105138404D01*
X155015949Y-105037582D01*
X154955320Y-104946845D01*
X154878155Y-104869680D01*
X154787418Y-104809051D01*
X154686596Y-104767289D01*
X154579564Y-104746000D01*
X154470436Y-104746000D01*
X154363404Y-104767289D01*
X154262582Y-104809051D01*
X154171845Y-104869680D01*
X154094680Y-104946845D01*
X154034051Y-105037582D01*
X153992289Y-105138404D01*
X153971000Y-105245436D01*
X151888039Y-105245436D01*
X151905320Y-105228155D01*
X151965949Y-105137418D01*
X152007711Y-105036596D01*
X152029000Y-104929564D01*
X152029000Y-104820436D01*
X152007711Y-104713404D01*
X151965949Y-104612582D01*
X151905320Y-104521845D01*
X151828155Y-104444680D01*
X151737418Y-104384051D01*
X151636596Y-104342289D01*
X151529564Y-104321000D01*
X151420436Y-104321000D01*
X151313404Y-104342289D01*
X151212582Y-104384051D01*
X151121845Y-104444680D01*
X151050000Y-104516525D01*
X150978155Y-104444680D01*
X150887418Y-104384051D01*
X150786596Y-104342289D01*
X150679564Y-104321000D01*
X150570436Y-104321000D01*
X150463404Y-104342289D01*
X150362582Y-104384051D01*
X150271845Y-104444680D01*
X150194680Y-104521845D01*
X150134051Y-104612582D01*
X150092289Y-104713404D01*
X150071000Y-104820436D01*
X140029000Y-104820436D01*
X140029000Y-101645436D01*
X152321000Y-101645436D01*
X152321000Y-101754564D01*
X152342289Y-101861596D01*
X152384051Y-101962418D01*
X152444680Y-102053155D01*
X152521845Y-102130320D01*
X152612582Y-102190949D01*
X152713404Y-102232711D01*
X152820436Y-102254000D01*
X152929564Y-102254000D01*
X153036596Y-102232711D01*
X153137418Y-102190949D01*
X153228155Y-102130320D01*
X153305320Y-102053155D01*
X153365949Y-101962418D01*
X153407711Y-101861596D01*
X153429000Y-101754564D01*
X153429000Y-101645436D01*
X153407711Y-101538404D01*
X153365949Y-101437582D01*
X153305320Y-101346845D01*
X153228155Y-101269680D01*
X153137418Y-101209051D01*
X153036596Y-101167289D01*
X152929564Y-101146000D01*
X152820436Y-101146000D01*
X152713404Y-101167289D01*
X152612582Y-101209051D01*
X152521845Y-101269680D01*
X152444680Y-101346845D01*
X152384051Y-101437582D01*
X152342289Y-101538404D01*
X152321000Y-101645436D01*
X140029000Y-101645436D01*
X140029000Y-98345436D01*
X148266000Y-98345436D01*
X148266000Y-98454564D01*
X148287289Y-98561596D01*
X148329051Y-98662418D01*
X148389680Y-98753155D01*
X148466845Y-98830320D01*
X148557582Y-98890949D01*
X148658404Y-98932711D01*
X148765436Y-98954000D01*
X148874564Y-98954000D01*
X148981596Y-98932711D01*
X149082418Y-98890949D01*
X149173155Y-98830320D01*
X149222500Y-98780975D01*
X149271845Y-98830320D01*
X149362582Y-98890949D01*
X149463404Y-98932711D01*
X149570436Y-98954000D01*
X149679564Y-98954000D01*
X149786596Y-98932711D01*
X149887418Y-98890949D01*
X149978155Y-98830320D01*
X150037500Y-98770975D01*
X150096845Y-98830320D01*
X150187582Y-98890949D01*
X150288404Y-98932711D01*
X150395436Y-98954000D01*
X150504564Y-98954000D01*
X150611596Y-98932711D01*
X150712418Y-98890949D01*
X150803155Y-98830320D01*
X150850000Y-98783475D01*
X150896845Y-98830320D01*
X150987582Y-98890949D01*
X151088404Y-98932711D01*
X151195436Y-98954000D01*
X151304564Y-98954000D01*
X151411596Y-98932711D01*
X151512418Y-98890949D01*
X151603155Y-98830320D01*
X151650000Y-98783475D01*
X151696845Y-98830320D01*
X151787582Y-98890949D01*
X151888404Y-98932711D01*
X151995436Y-98954000D01*
X152104564Y-98954000D01*
X152211596Y-98932711D01*
X152312418Y-98890949D01*
X152373755Y-98849964D01*
X161746000Y-98849964D01*
X161746000Y-99028036D01*
X161780740Y-99202687D01*
X161848886Y-99367205D01*
X161947817Y-99515266D01*
X162073734Y-99641183D01*
X162221795Y-99740114D01*
X162386313Y-99808260D01*
X162560964Y-99843000D01*
X162739036Y-99843000D01*
X162913687Y-99808260D01*
X163078205Y-99740114D01*
X163226266Y-99641183D01*
X163352183Y-99515266D01*
X163451114Y-99367205D01*
X163519260Y-99202687D01*
X163554000Y-99028036D01*
X163554000Y-98849964D01*
X163519260Y-98675313D01*
X163451114Y-98510795D01*
X163352183Y-98362734D01*
X163226266Y-98236817D01*
X163078205Y-98137886D01*
X162913687Y-98069740D01*
X162739036Y-98035000D01*
X162560964Y-98035000D01*
X162386313Y-98069740D01*
X162221795Y-98137886D01*
X162073734Y-98236817D01*
X161947817Y-98362734D01*
X161848886Y-98510795D01*
X161780740Y-98675313D01*
X161746000Y-98849964D01*
X152373755Y-98849964D01*
X152403155Y-98830320D01*
X152480320Y-98753155D01*
X152540949Y-98662418D01*
X152582711Y-98561596D01*
X152604000Y-98454564D01*
X152604000Y-98345436D01*
X152582711Y-98238404D01*
X152540949Y-98137582D01*
X152480320Y-98046845D01*
X152403155Y-97969680D01*
X152312418Y-97909051D01*
X152211596Y-97867289D01*
X152104564Y-97846000D01*
X151995436Y-97846000D01*
X151888404Y-97867289D01*
X151787582Y-97909051D01*
X151696845Y-97969680D01*
X151650000Y-98016525D01*
X151603155Y-97969680D01*
X151512418Y-97909051D01*
X151411596Y-97867289D01*
X151304564Y-97846000D01*
X151195436Y-97846000D01*
X151088404Y-97867289D01*
X150987582Y-97909051D01*
X150896845Y-97969680D01*
X150850000Y-98016525D01*
X150803155Y-97969680D01*
X150712418Y-97909051D01*
X150611596Y-97867289D01*
X150504564Y-97846000D01*
X150395436Y-97846000D01*
X150288404Y-97867289D01*
X150187582Y-97909051D01*
X150096845Y-97969680D01*
X150037500Y-98029025D01*
X149978155Y-97969680D01*
X149887418Y-97909051D01*
X149786596Y-97867289D01*
X149679564Y-97846000D01*
X149570436Y-97846000D01*
X149463404Y-97867289D01*
X149362582Y-97909051D01*
X149271845Y-97969680D01*
X149222500Y-98019025D01*
X149173155Y-97969680D01*
X149082418Y-97909051D01*
X148981596Y-97867289D01*
X148874564Y-97846000D01*
X148765436Y-97846000D01*
X148658404Y-97867289D01*
X148557582Y-97909051D01*
X148466845Y-97969680D01*
X148389680Y-98046845D01*
X148329051Y-98137582D01*
X148287289Y-98238404D01*
X148266000Y-98345436D01*
X140029000Y-98345436D01*
X140029000Y-95770436D01*
X146996000Y-95770436D01*
X146996000Y-95879564D01*
X147017289Y-95986596D01*
X147059051Y-96087418D01*
X147119680Y-96178155D01*
X147196845Y-96255320D01*
X147287582Y-96315949D01*
X147388404Y-96357711D01*
X147495436Y-96379000D01*
X147604564Y-96379000D01*
X147711596Y-96357711D01*
X147812418Y-96315949D01*
X147903155Y-96255320D01*
X147980320Y-96178155D01*
X148040949Y-96087418D01*
X148082711Y-95986596D01*
X148104000Y-95879564D01*
X148104000Y-95770436D01*
X148082711Y-95663404D01*
X148040949Y-95562582D01*
X147980320Y-95471845D01*
X147903155Y-95394680D01*
X147812418Y-95334051D01*
X147711596Y-95292289D01*
X147604564Y-95271000D01*
X147495436Y-95271000D01*
X147388404Y-95292289D01*
X147287582Y-95334051D01*
X147196845Y-95394680D01*
X147119680Y-95471845D01*
X147059051Y-95562582D01*
X147017289Y-95663404D01*
X146996000Y-95770436D01*
X140029000Y-95770436D01*
X140029000Y-93779000D01*
X167571001Y-93779000D01*
X167571000Y-113096000D01*
G04 #@! TA.AperFunction,Conductor*
D13*
G36*
X167571000Y-113096000D02*
G01*
X140029000Y-113096000D01*
X140029000Y-111970436D01*
X144146000Y-111970436D01*
X144146000Y-112079564D01*
X144167289Y-112186596D01*
X144209051Y-112287418D01*
X144269680Y-112378155D01*
X144346845Y-112455320D01*
X144437582Y-112515949D01*
X144538404Y-112557711D01*
X144645436Y-112579000D01*
X144754564Y-112579000D01*
X144861596Y-112557711D01*
X144962418Y-112515949D01*
X145053155Y-112455320D01*
X145130320Y-112378155D01*
X145190949Y-112287418D01*
X145232711Y-112186596D01*
X145254000Y-112079564D01*
X145254000Y-111970436D01*
X150946000Y-111970436D01*
X150946000Y-112079564D01*
X150967289Y-112186596D01*
X151009051Y-112287418D01*
X151069680Y-112378155D01*
X151146845Y-112455320D01*
X151237582Y-112515949D01*
X151338404Y-112557711D01*
X151445436Y-112579000D01*
X151554564Y-112579000D01*
X151661596Y-112557711D01*
X151762418Y-112515949D01*
X151853155Y-112455320D01*
X151930320Y-112378155D01*
X151990949Y-112287418D01*
X152032711Y-112186596D01*
X152054000Y-112079564D01*
X152054000Y-111970436D01*
X152032711Y-111863404D01*
X151990949Y-111762582D01*
X151930320Y-111671845D01*
X151853155Y-111594680D01*
X151762418Y-111534051D01*
X151661596Y-111492289D01*
X151554564Y-111471000D01*
X151445436Y-111471000D01*
X151338404Y-111492289D01*
X151237582Y-111534051D01*
X151146845Y-111594680D01*
X151069680Y-111671845D01*
X151009051Y-111762582D01*
X150967289Y-111863404D01*
X150946000Y-111970436D01*
X145254000Y-111970436D01*
X145232711Y-111863404D01*
X145190949Y-111762582D01*
X145130320Y-111671845D01*
X145053155Y-111594680D01*
X144962418Y-111534051D01*
X144861596Y-111492289D01*
X144754564Y-111471000D01*
X144645436Y-111471000D01*
X144538404Y-111492289D01*
X144437582Y-111534051D01*
X144346845Y-111594680D01*
X144269680Y-111671845D01*
X144209051Y-111762582D01*
X144167289Y-111863404D01*
X144146000Y-111970436D01*
X140029000Y-111970436D01*
X140029000Y-110920436D01*
X153671000Y-110920436D01*
X153671000Y-111029564D01*
X153692289Y-111136596D01*
X153734051Y-111237418D01*
X153794680Y-111328155D01*
X153871845Y-111405320D01*
X153962582Y-111465949D01*
X154063404Y-111507711D01*
X154170436Y-111529000D01*
X154279564Y-111529000D01*
X154386596Y-111507711D01*
X154487418Y-111465949D01*
X154578155Y-111405320D01*
X154655320Y-111328155D01*
X154715949Y-111237418D01*
X154757711Y-111136596D01*
X154779000Y-111029564D01*
X154779000Y-110920436D01*
X154757711Y-110813404D01*
X154715949Y-110712582D01*
X154655320Y-110621845D01*
X154578155Y-110544680D01*
X154487418Y-110484051D01*
X154386596Y-110442289D01*
X154279564Y-110421000D01*
X154170436Y-110421000D01*
X154063404Y-110442289D01*
X153962582Y-110484051D01*
X153871845Y-110544680D01*
X153794680Y-110621845D01*
X153734051Y-110712582D01*
X153692289Y-110813404D01*
X153671000Y-110920436D01*
X140029000Y-110920436D01*
X140029000Y-108520436D01*
X156146000Y-108520436D01*
X156146000Y-108629564D01*
X156167289Y-108736596D01*
X156209051Y-108837418D01*
X156269680Y-108928155D01*
X156346845Y-109005320D01*
X156437582Y-109065949D01*
X156538404Y-109107711D01*
X156645436Y-109129000D01*
X156754564Y-109129000D01*
X156861596Y-109107711D01*
X156962418Y-109065949D01*
X157053155Y-109005320D01*
X157130320Y-108928155D01*
X157190949Y-108837418D01*
X157232711Y-108736596D01*
X157254000Y-108629564D01*
X157254000Y-108520436D01*
X157232711Y-108413404D01*
X157190949Y-108312582D01*
X157130320Y-108221845D01*
X157053155Y-108144680D01*
X156962418Y-108084051D01*
X156861596Y-108042289D01*
X156754564Y-108021000D01*
X156645436Y-108021000D01*
X156538404Y-108042289D01*
X156437582Y-108084051D01*
X156346845Y-108144680D01*
X156269680Y-108221845D01*
X156209051Y-108312582D01*
X156167289Y-108413404D01*
X156146000Y-108520436D01*
X140029000Y-108520436D01*
X140029000Y-107545436D01*
X144146000Y-107545436D01*
X144146000Y-107654564D01*
X144167289Y-107761596D01*
X144209051Y-107862418D01*
X144269680Y-107953155D01*
X144346845Y-108030320D01*
X144437582Y-108090949D01*
X144538404Y-108132711D01*
X144645436Y-108154000D01*
X144754564Y-108154000D01*
X144861596Y-108132711D01*
X144962418Y-108090949D01*
X145053155Y-108030320D01*
X145130320Y-107953155D01*
X145190949Y-107862418D01*
X145196107Y-107849964D01*
X161746000Y-107849964D01*
X161746000Y-108028036D01*
X161780740Y-108202687D01*
X161848886Y-108367205D01*
X161947817Y-108515266D01*
X162073734Y-108641183D01*
X162221795Y-108740114D01*
X162386313Y-108808260D01*
X162560964Y-108843000D01*
X162739036Y-108843000D01*
X162913687Y-108808260D01*
X163078205Y-108740114D01*
X163226266Y-108641183D01*
X163352183Y-108515266D01*
X163451114Y-108367205D01*
X163519260Y-108202687D01*
X163554000Y-108028036D01*
X163554000Y-107849964D01*
X163519260Y-107675313D01*
X163451114Y-107510795D01*
X163352183Y-107362734D01*
X163226266Y-107236817D01*
X163078205Y-107137886D01*
X162913687Y-107069740D01*
X162739036Y-107035000D01*
X162560964Y-107035000D01*
X162386313Y-107069740D01*
X162221795Y-107137886D01*
X162073734Y-107236817D01*
X161947817Y-107362734D01*
X161848886Y-107510795D01*
X161780740Y-107675313D01*
X161746000Y-107849964D01*
X145196107Y-107849964D01*
X145232711Y-107761596D01*
X145254000Y-107654564D01*
X145254000Y-107545436D01*
X145232711Y-107438404D01*
X145190949Y-107337582D01*
X145130320Y-107246845D01*
X145053155Y-107169680D01*
X144962418Y-107109051D01*
X144861596Y-107067289D01*
X144754564Y-107046000D01*
X144645436Y-107046000D01*
X144538404Y-107067289D01*
X144437582Y-107109051D01*
X144346845Y-107169680D01*
X144269680Y-107246845D01*
X144209051Y-107337582D01*
X144167289Y-107438404D01*
X144146000Y-107545436D01*
X140029000Y-107545436D01*
X140029000Y-106384436D01*
X153971000Y-106384436D01*
X153971000Y-106493564D01*
X153992289Y-106600596D01*
X154034051Y-106701418D01*
X154094680Y-106792155D01*
X154171845Y-106869320D01*
X154262582Y-106929949D01*
X154363404Y-106971711D01*
X154470436Y-106993000D01*
X154579564Y-106993000D01*
X154686596Y-106971711D01*
X154787418Y-106929949D01*
X154878155Y-106869320D01*
X154955320Y-106792155D01*
X155015949Y-106701418D01*
X155057711Y-106600596D01*
X155079000Y-106493564D01*
X155079000Y-106384436D01*
X155057711Y-106277404D01*
X155015949Y-106176582D01*
X154955320Y-106085845D01*
X154878155Y-106008680D01*
X154787418Y-105948051D01*
X154686596Y-105906289D01*
X154579564Y-105885000D01*
X154470436Y-105885000D01*
X154363404Y-105906289D01*
X154262582Y-105948051D01*
X154171845Y-106008680D01*
X154094680Y-106085845D01*
X154034051Y-106176582D01*
X153992289Y-106277404D01*
X153971000Y-106384436D01*
X140029000Y-106384436D01*
X140029000Y-104820436D01*
X150071000Y-104820436D01*
X150071000Y-104929564D01*
X150092289Y-105036596D01*
X150134051Y-105137418D01*
X150194680Y-105228155D01*
X150271845Y-105305320D01*
X150362582Y-105365949D01*
X150463404Y-105407711D01*
X150570436Y-105429000D01*
X150679564Y-105429000D01*
X150786596Y-105407711D01*
X150887418Y-105365949D01*
X150978155Y-105305320D01*
X151050000Y-105233475D01*
X151121845Y-105305320D01*
X151212582Y-105365949D01*
X151313404Y-105407711D01*
X151420436Y-105429000D01*
X151529564Y-105429000D01*
X151636596Y-105407711D01*
X151737418Y-105365949D01*
X151828155Y-105305320D01*
X151888039Y-105245436D01*
X153971000Y-105245436D01*
X153971000Y-105354564D01*
X153992289Y-105461596D01*
X154034051Y-105562418D01*
X154094680Y-105653155D01*
X154171845Y-105730320D01*
X154262582Y-105790949D01*
X154363404Y-105832711D01*
X154470436Y-105854000D01*
X154579564Y-105854000D01*
X154686596Y-105832711D01*
X154787418Y-105790949D01*
X154878155Y-105730320D01*
X154955320Y-105653155D01*
X155015949Y-105562418D01*
X155057711Y-105461596D01*
X155079000Y-105354564D01*
X155079000Y-105245436D01*
X155057711Y-105138404D01*
X155015949Y-105037582D01*
X154955320Y-104946845D01*
X154878155Y-104869680D01*
X154787418Y-104809051D01*
X154686596Y-104767289D01*
X154579564Y-104746000D01*
X154470436Y-104746000D01*
X154363404Y-104767289D01*
X154262582Y-104809051D01*
X154171845Y-104869680D01*
X154094680Y-104946845D01*
X154034051Y-105037582D01*
X153992289Y-105138404D01*
X153971000Y-105245436D01*
X151888039Y-105245436D01*
X151905320Y-105228155D01*
X151965949Y-105137418D01*
X152007711Y-105036596D01*
X152029000Y-104929564D01*
X152029000Y-104820436D01*
X152007711Y-104713404D01*
X151965949Y-104612582D01*
X151905320Y-104521845D01*
X151828155Y-104444680D01*
X151737418Y-104384051D01*
X151636596Y-104342289D01*
X151529564Y-104321000D01*
X151420436Y-104321000D01*
X151313404Y-104342289D01*
X151212582Y-104384051D01*
X151121845Y-104444680D01*
X151050000Y-104516525D01*
X150978155Y-104444680D01*
X150887418Y-104384051D01*
X150786596Y-104342289D01*
X150679564Y-104321000D01*
X150570436Y-104321000D01*
X150463404Y-104342289D01*
X150362582Y-104384051D01*
X150271845Y-104444680D01*
X150194680Y-104521845D01*
X150134051Y-104612582D01*
X150092289Y-104713404D01*
X150071000Y-104820436D01*
X140029000Y-104820436D01*
X140029000Y-101645436D01*
X152321000Y-101645436D01*
X152321000Y-101754564D01*
X152342289Y-101861596D01*
X152384051Y-101962418D01*
X152444680Y-102053155D01*
X152521845Y-102130320D01*
X152612582Y-102190949D01*
X152713404Y-102232711D01*
X152820436Y-102254000D01*
X152929564Y-102254000D01*
X153036596Y-102232711D01*
X153137418Y-102190949D01*
X153228155Y-102130320D01*
X153305320Y-102053155D01*
X153365949Y-101962418D01*
X153407711Y-101861596D01*
X153429000Y-101754564D01*
X153429000Y-101645436D01*
X153407711Y-101538404D01*
X153365949Y-101437582D01*
X153305320Y-101346845D01*
X153228155Y-101269680D01*
X153137418Y-101209051D01*
X153036596Y-101167289D01*
X152929564Y-101146000D01*
X152820436Y-101146000D01*
X152713404Y-101167289D01*
X152612582Y-101209051D01*
X152521845Y-101269680D01*
X152444680Y-101346845D01*
X152384051Y-101437582D01*
X152342289Y-101538404D01*
X152321000Y-101645436D01*
X140029000Y-101645436D01*
X140029000Y-98345436D01*
X148266000Y-98345436D01*
X148266000Y-98454564D01*
X148287289Y-98561596D01*
X148329051Y-98662418D01*
X148389680Y-98753155D01*
X148466845Y-98830320D01*
X148557582Y-98890949D01*
X148658404Y-98932711D01*
X148765436Y-98954000D01*
X148874564Y-98954000D01*
X148981596Y-98932711D01*
X149082418Y-98890949D01*
X149173155Y-98830320D01*
X149222500Y-98780975D01*
X149271845Y-98830320D01*
X149362582Y-98890949D01*
X149463404Y-98932711D01*
X149570436Y-98954000D01*
X149679564Y-98954000D01*
X149786596Y-98932711D01*
X149887418Y-98890949D01*
X149978155Y-98830320D01*
X150037500Y-98770975D01*
X150096845Y-98830320D01*
X150187582Y-98890949D01*
X150288404Y-98932711D01*
X150395436Y-98954000D01*
X150504564Y-98954000D01*
X150611596Y-98932711D01*
X150712418Y-98890949D01*
X150803155Y-98830320D01*
X150850000Y-98783475D01*
X150896845Y-98830320D01*
X150987582Y-98890949D01*
X151088404Y-98932711D01*
X151195436Y-98954000D01*
X151304564Y-98954000D01*
X151411596Y-98932711D01*
X151512418Y-98890949D01*
X151603155Y-98830320D01*
X151650000Y-98783475D01*
X151696845Y-98830320D01*
X151787582Y-98890949D01*
X151888404Y-98932711D01*
X151995436Y-98954000D01*
X152104564Y-98954000D01*
X152211596Y-98932711D01*
X152312418Y-98890949D01*
X152373755Y-98849964D01*
X161746000Y-98849964D01*
X161746000Y-99028036D01*
X161780740Y-99202687D01*
X161848886Y-99367205D01*
X161947817Y-99515266D01*
X162073734Y-99641183D01*
X162221795Y-99740114D01*
X162386313Y-99808260D01*
X162560964Y-99843000D01*
X162739036Y-99843000D01*
X162913687Y-99808260D01*
X163078205Y-99740114D01*
X163226266Y-99641183D01*
X163352183Y-99515266D01*
X163451114Y-99367205D01*
X163519260Y-99202687D01*
X163554000Y-99028036D01*
X163554000Y-98849964D01*
X163519260Y-98675313D01*
X163451114Y-98510795D01*
X163352183Y-98362734D01*
X163226266Y-98236817D01*
X163078205Y-98137886D01*
X162913687Y-98069740D01*
X162739036Y-98035000D01*
X162560964Y-98035000D01*
X162386313Y-98069740D01*
X162221795Y-98137886D01*
X162073734Y-98236817D01*
X161947817Y-98362734D01*
X161848886Y-98510795D01*
X161780740Y-98675313D01*
X161746000Y-98849964D01*
X152373755Y-98849964D01*
X152403155Y-98830320D01*
X152480320Y-98753155D01*
X152540949Y-98662418D01*
X152582711Y-98561596D01*
X152604000Y-98454564D01*
X152604000Y-98345436D01*
X152582711Y-98238404D01*
X152540949Y-98137582D01*
X152480320Y-98046845D01*
X152403155Y-97969680D01*
X152312418Y-97909051D01*
X152211596Y-97867289D01*
X152104564Y-97846000D01*
X151995436Y-97846000D01*
X151888404Y-97867289D01*
X151787582Y-97909051D01*
X151696845Y-97969680D01*
X151650000Y-98016525D01*
X151603155Y-97969680D01*
X151512418Y-97909051D01*
X151411596Y-97867289D01*
X151304564Y-97846000D01*
X151195436Y-97846000D01*
X151088404Y-97867289D01*
X150987582Y-97909051D01*
X150896845Y-97969680D01*
X150850000Y-98016525D01*
X150803155Y-97969680D01*
X150712418Y-97909051D01*
X150611596Y-97867289D01*
X150504564Y-97846000D01*
X150395436Y-97846000D01*
X150288404Y-97867289D01*
X150187582Y-97909051D01*
X150096845Y-97969680D01*
X150037500Y-98029025D01*
X149978155Y-97969680D01*
X149887418Y-97909051D01*
X149786596Y-97867289D01*
X149679564Y-97846000D01*
X149570436Y-97846000D01*
X149463404Y-97867289D01*
X149362582Y-97909051D01*
X149271845Y-97969680D01*
X149222500Y-98019025D01*
X149173155Y-97969680D01*
X149082418Y-97909051D01*
X148981596Y-97867289D01*
X148874564Y-97846000D01*
X148765436Y-97846000D01*
X148658404Y-97867289D01*
X148557582Y-97909051D01*
X148466845Y-97969680D01*
X148389680Y-98046845D01*
X148329051Y-98137582D01*
X148287289Y-98238404D01*
X148266000Y-98345436D01*
X140029000Y-98345436D01*
X140029000Y-95770436D01*
X146996000Y-95770436D01*
X146996000Y-95879564D01*
X147017289Y-95986596D01*
X147059051Y-96087418D01*
X147119680Y-96178155D01*
X147196845Y-96255320D01*
X147287582Y-96315949D01*
X147388404Y-96357711D01*
X147495436Y-96379000D01*
X147604564Y-96379000D01*
X147711596Y-96357711D01*
X147812418Y-96315949D01*
X147903155Y-96255320D01*
X147980320Y-96178155D01*
X148040949Y-96087418D01*
X148082711Y-95986596D01*
X148104000Y-95879564D01*
X148104000Y-95770436D01*
X148082711Y-95663404D01*
X148040949Y-95562582D01*
X147980320Y-95471845D01*
X147903155Y-95394680D01*
X147812418Y-95334051D01*
X147711596Y-95292289D01*
X147604564Y-95271000D01*
X147495436Y-95271000D01*
X147388404Y-95292289D01*
X147287582Y-95334051D01*
X147196845Y-95394680D01*
X147119680Y-95471845D01*
X147059051Y-95562582D01*
X147017289Y-95663404D01*
X146996000Y-95770436D01*
X140029000Y-95770436D01*
X140029000Y-93779000D01*
X167571001Y-93779000D01*
X167571000Y-113096000D01*
G37*
G04 #@! TD.AperFunction*
M02*
