M48
; DRILL file {KiCad 5.1.10} date Sun Sep 12 22:44:33 2021
; FORMAT={-:-/ absolute / metric / decimal}
; #@! TF.CreationDate,2021-09-12T22:44:33-07:00
; #@! TF.GenerationSoftware,Kicad,Pcbnew,5.1.10
; #@! TF.FileFunction,Plated,1,4,PTH
FMAT,2
METRIC
T1C0.300
T2C1.300
%
G90
G05
T1
X141.2Y-95.55
X141.2Y-111.35
X142.1Y-103.85
X142.1Y-106.25
X142.1Y-108.65
X142.1Y-111.05
X142.15Y-99.05
X142.15Y-101.45
X144.336Y-94.589
X144.7Y-107.6
X144.7Y-112.025
X147.55Y-95.825
X148.82Y-98.4
X149.625Y-98.4
X150.45Y-98.4
X150.45Y-100.375
X150.45Y-101.5
X150.45Y-102.6
X150.625Y-104.875
X150.68Y-107.41
X151.25Y-98.4
X151.475Y-104.875
X151.5Y-112.025
X152.05Y-98.4
X152.44Y-109.81
X152.875Y-101.7
X154.225Y-110.975
X154.525Y-105.3
X154.525Y-106.439
X156.7Y-108.575
X158.5Y-99.45
X158.5Y-100.95
X158.5Y-102.45
X158.5Y-103.95
X158.5Y-106.95
X159.05Y-95.4
X159.05Y-111.5
X162.2Y-95.4
X162.2Y-111.5
T2
X162.65Y-98.939
X162.65Y-107.939
T0
M30
