%FSLAX45Y45*%
G04 Gerber Fmt 4.5, Leading zero omitted, Abs format (unit mm)*
G04 Created by KiCad (PCBNEW 5.1.10) date 2021-09-12 21:14:33*
%MOMM*%
%LPD*%
G01*
G04 APERTURE LIST*
%TA.AperFunction,Profile*%
%ADD10C,0.050000*%
%TD*%
%ADD11C,0.200000*%
%ADD12C,0.300000*%
G04 APERTURE END LIST*
D10*
X16785000Y-9350000D02*
X13975000Y-9350000D01*
X16785000Y-11337500D02*
X16785000Y-9350000D01*
X14060000Y-11337500D02*
X16785000Y-11337500D01*
X13975000Y-11337500D02*
X14060000Y-11337500D01*
X13975000Y-9372500D02*
X13975000Y-11337500D01*
X13975000Y-9350000D02*
X13975000Y-9372500D01*
D11*
D12*
X14258928Y-11805714D02*
X14258928Y-11505714D01*
X14330357Y-11505714D01*
X14373214Y-11520000D01*
X14401786Y-11548571D01*
X14416071Y-11577143D01*
X14430357Y-11634286D01*
X14430357Y-11677143D01*
X14416071Y-11734286D01*
X14401786Y-11762857D01*
X14373214Y-11791429D01*
X14330357Y-11805714D01*
X14258928Y-11805714D01*
X14558928Y-11805714D02*
X14558928Y-11605714D01*
X14558928Y-11662857D02*
X14573214Y-11634286D01*
X14587500Y-11620000D01*
X14616071Y-11605714D01*
X14644643Y-11605714D01*
X14744643Y-11805714D02*
X14744643Y-11605714D01*
X14744643Y-11505714D02*
X14730357Y-11520000D01*
X14744643Y-11534286D01*
X14758928Y-11520000D01*
X14744643Y-11505714D01*
X14744643Y-11534286D01*
X14930357Y-11805714D02*
X14901786Y-11791429D01*
X14887500Y-11762857D01*
X14887500Y-11505714D01*
X15087500Y-11805714D02*
X15058928Y-11791429D01*
X15044643Y-11762857D01*
X15044643Y-11505714D01*
X15430357Y-11805714D02*
X15430357Y-11505714D01*
X15530357Y-11720000D01*
X15630357Y-11505714D01*
X15630357Y-11805714D01*
X15901786Y-11805714D02*
X15901786Y-11648571D01*
X15887500Y-11620000D01*
X15858928Y-11605714D01*
X15801786Y-11605714D01*
X15773214Y-11620000D01*
X15901786Y-11791429D02*
X15873214Y-11805714D01*
X15801786Y-11805714D01*
X15773214Y-11791429D01*
X15758928Y-11762857D01*
X15758928Y-11734286D01*
X15773214Y-11705714D01*
X15801786Y-11691429D01*
X15873214Y-11691429D01*
X15901786Y-11677143D01*
X16044643Y-11605714D02*
X16044643Y-11905714D01*
X16044643Y-11620000D02*
X16073214Y-11605714D01*
X16130357Y-11605714D01*
X16158928Y-11620000D01*
X16173214Y-11634286D01*
X16187500Y-11662857D01*
X16187500Y-11748571D01*
X16173214Y-11777143D01*
X16158928Y-11791429D01*
X16130357Y-11805714D01*
X16073214Y-11805714D01*
X16044643Y-11791429D01*
X16316071Y-11777143D02*
X16330357Y-11791429D01*
X16316071Y-11805714D01*
X16301786Y-11791429D01*
X16316071Y-11777143D01*
X16316071Y-11805714D01*
X16316071Y-11620000D02*
X16330357Y-11634286D01*
X16316071Y-11648571D01*
X16301786Y-11634286D01*
X16316071Y-11620000D01*
X16316071Y-11648571D01*
M02*
