G04 #@! TF.GenerationSoftware,KiCad,Pcbnew,5.1.10*
G04 #@! TF.CreationDate,2021-09-12T21:14:18-07:00*
G04 #@! TF.ProjectId,ACORN-CLE-DVI,41434f52-4e2d-4434-9c45-2d4456492e6b,rev?*
G04 #@! TF.SameCoordinates,Original*
G04 #@! TF.FileFunction,Legend,Bot*
G04 #@! TF.FilePolarity,Positive*
%FSLAX46Y46*%
G04 Gerber Fmt 4.6, Leading zero omitted, Abs format (unit mm)*
G04 Created by KiCad (PCBNEW 5.1.10) date 2021-09-12 21:14:18*
%MOMM*%
%LPD*%
G01*
G04 APERTURE LIST*
%ADD10C,0.150000*%
%ADD11C,0.120000*%
%ADD12R,1.500000X1.000000*%
%ADD13C,0.100000*%
G04 APERTURE END LIST*
D10*
X143968214Y-103254523D02*
X143806309Y-103254523D01*
X143725357Y-103295000D01*
X143644404Y-103375952D01*
X143603928Y-103537857D01*
X143603928Y-103821190D01*
X143644404Y-103983095D01*
X143725357Y-104064047D01*
X143806309Y-104104523D01*
X143968214Y-104104523D01*
X144049166Y-104064047D01*
X144130119Y-103983095D01*
X144170595Y-103821190D01*
X144170595Y-103537857D01*
X144130119Y-103375952D01*
X144049166Y-103295000D01*
X143968214Y-103254523D01*
X142753928Y-104023571D02*
X142794404Y-104064047D01*
X142915833Y-104104523D01*
X142996785Y-104104523D01*
X143118214Y-104064047D01*
X143199166Y-103983095D01*
X143239642Y-103902142D01*
X143280119Y-103740238D01*
X143280119Y-103618809D01*
X143239642Y-103456904D01*
X143199166Y-103375952D01*
X143118214Y-103295000D01*
X142996785Y-103254523D01*
X142915833Y-103254523D01*
X142794404Y-103295000D01*
X142753928Y-103335476D01*
X144190119Y-97999285D02*
X143906785Y-97999285D01*
X143785357Y-98444523D02*
X144190119Y-98444523D01*
X144190119Y-97594523D01*
X143785357Y-97594523D01*
X142854404Y-98525476D02*
X142935357Y-98485000D01*
X143016309Y-98404047D01*
X143137738Y-98282619D01*
X143218690Y-98242142D01*
X143299642Y-98242142D01*
X143259166Y-98444523D02*
X143340119Y-98404047D01*
X143421071Y-98323095D01*
X143461547Y-98161190D01*
X143461547Y-97877857D01*
X143421071Y-97715952D01*
X143340119Y-97635000D01*
X143259166Y-97594523D01*
X143097261Y-97594523D01*
X143016309Y-97635000D01*
X142935357Y-97715952D01*
X142894880Y-97877857D01*
X142894880Y-98161190D01*
X142935357Y-98323095D01*
X143016309Y-98404047D01*
X143097261Y-98444523D01*
X143259166Y-98444523D01*
X144361071Y-106639285D02*
X144789642Y-106639285D01*
X144575357Y-106639285D02*
X144575357Y-105889285D01*
X144646785Y-105996428D01*
X144718214Y-106067857D01*
X144789642Y-106103571D01*
X144039642Y-106567857D02*
X144003928Y-106603571D01*
X144039642Y-106639285D01*
X144075357Y-106603571D01*
X144039642Y-106567857D01*
X144039642Y-106639285D01*
X143325357Y-105889285D02*
X143682500Y-105889285D01*
X143718214Y-106246428D01*
X143682500Y-106210714D01*
X143611071Y-106175000D01*
X143432500Y-106175000D01*
X143361071Y-106210714D01*
X143325357Y-106246428D01*
X143289642Y-106317857D01*
X143289642Y-106496428D01*
X143325357Y-106567857D01*
X143361071Y-106603571D01*
X143432500Y-106639285D01*
X143611071Y-106639285D01*
X143682500Y-106603571D01*
X143718214Y-106567857D01*
X142646785Y-106639285D02*
X142646785Y-105889285D01*
X142646785Y-106603571D02*
X142718214Y-106639285D01*
X142861071Y-106639285D01*
X142932500Y-106603571D01*
X142968214Y-106567857D01*
X143003928Y-106496428D01*
X143003928Y-106282142D01*
X142968214Y-106210714D01*
X142932500Y-106175000D01*
X142861071Y-106139285D01*
X142718214Y-106139285D01*
X142646785Y-106175000D01*
X142039642Y-106246428D02*
X141932500Y-106282142D01*
X141896785Y-106317857D01*
X141861071Y-106389285D01*
X141861071Y-106496428D01*
X141896785Y-106567857D01*
X141932500Y-106603571D01*
X142003928Y-106639285D01*
X142289642Y-106639285D01*
X142289642Y-105889285D01*
X142039642Y-105889285D01*
X141968214Y-105925000D01*
X141932500Y-105960714D01*
X141896785Y-106032142D01*
X141896785Y-106103571D01*
X141932500Y-106175000D01*
X141968214Y-106210714D01*
X142039642Y-106246428D01*
X142289642Y-106246428D01*
X144366785Y-100229285D02*
X144723928Y-100229285D01*
X144759642Y-100586428D01*
X144723928Y-100550714D01*
X144652500Y-100515000D01*
X144473928Y-100515000D01*
X144402500Y-100550714D01*
X144366785Y-100586428D01*
X144331071Y-100657857D01*
X144331071Y-100836428D01*
X144366785Y-100907857D01*
X144402500Y-100943571D01*
X144473928Y-100979285D01*
X144652500Y-100979285D01*
X144723928Y-100943571D01*
X144759642Y-100907857D01*
X144009642Y-100907857D02*
X143973928Y-100943571D01*
X144009642Y-100979285D01*
X144045357Y-100943571D01*
X144009642Y-100907857D01*
X144009642Y-100979285D01*
X143509642Y-100229285D02*
X143438214Y-100229285D01*
X143366785Y-100265000D01*
X143331071Y-100300714D01*
X143295357Y-100372142D01*
X143259642Y-100515000D01*
X143259642Y-100693571D01*
X143295357Y-100836428D01*
X143331071Y-100907857D01*
X143366785Y-100943571D01*
X143438214Y-100979285D01*
X143509642Y-100979285D01*
X143581071Y-100943571D01*
X143616785Y-100907857D01*
X143652500Y-100836428D01*
X143688214Y-100693571D01*
X143688214Y-100515000D01*
X143652500Y-100372142D01*
X143616785Y-100300714D01*
X143581071Y-100265000D01*
X143509642Y-100229285D01*
X142616785Y-100979285D02*
X142616785Y-100229285D01*
X142616785Y-100943571D02*
X142688214Y-100979285D01*
X142831071Y-100979285D01*
X142902500Y-100943571D01*
X142938214Y-100907857D01*
X142973928Y-100836428D01*
X142973928Y-100622142D01*
X142938214Y-100550714D01*
X142902500Y-100515000D01*
X142831071Y-100479285D01*
X142688214Y-100479285D01*
X142616785Y-100515000D01*
X142009642Y-100586428D02*
X141902500Y-100622142D01*
X141866785Y-100657857D01*
X141831071Y-100729285D01*
X141831071Y-100836428D01*
X141866785Y-100907857D01*
X141902500Y-100943571D01*
X141973928Y-100979285D01*
X142259642Y-100979285D01*
X142259642Y-100229285D01*
X142009642Y-100229285D01*
X141938214Y-100265000D01*
X141902500Y-100300714D01*
X141866785Y-100372142D01*
X141866785Y-100443571D01*
X141902500Y-100515000D01*
X141938214Y-100550714D01*
X142009642Y-100586428D01*
X142259642Y-100586428D01*
X161583928Y-94629285D02*
X161583928Y-93879285D01*
X161405357Y-93879285D01*
X161298214Y-93915000D01*
X161226785Y-93986428D01*
X161191071Y-94057857D01*
X161155357Y-94200714D01*
X161155357Y-94307857D01*
X161191071Y-94450714D01*
X161226785Y-94522142D01*
X161298214Y-94593571D01*
X161405357Y-94629285D01*
X161583928Y-94629285D01*
X160941071Y-93879285D02*
X160691071Y-94629285D01*
X160441071Y-93879285D01*
X160191071Y-94629285D02*
X160191071Y-93879285D01*
X159298214Y-94415000D02*
X158941071Y-94415000D01*
X159369642Y-94629285D02*
X159119642Y-93879285D01*
X158869642Y-94629285D01*
X158298214Y-94629285D02*
X158298214Y-93879285D01*
X158298214Y-94593571D02*
X158369642Y-94629285D01*
X158512500Y-94629285D01*
X158583928Y-94593571D01*
X158619642Y-94557857D01*
X158655357Y-94486428D01*
X158655357Y-94272142D01*
X158619642Y-94200714D01*
X158583928Y-94165000D01*
X158512500Y-94129285D01*
X158369642Y-94129285D01*
X158298214Y-94165000D01*
X157619642Y-94629285D02*
X157619642Y-94236428D01*
X157655357Y-94165000D01*
X157726785Y-94129285D01*
X157869642Y-94129285D01*
X157941071Y-94165000D01*
X157619642Y-94593571D02*
X157691071Y-94629285D01*
X157869642Y-94629285D01*
X157941071Y-94593571D01*
X157976785Y-94522142D01*
X157976785Y-94450714D01*
X157941071Y-94379285D01*
X157869642Y-94343571D01*
X157691071Y-94343571D01*
X157619642Y-94307857D01*
X157262499Y-94129285D02*
X157262499Y-94879285D01*
X157262499Y-94165000D02*
X157191071Y-94129285D01*
X157048214Y-94129285D01*
X156976785Y-94165000D01*
X156941071Y-94200714D01*
X156905357Y-94272142D01*
X156905357Y-94486428D01*
X156941071Y-94557857D01*
X156976785Y-94593571D01*
X157048214Y-94629285D01*
X157191071Y-94629285D01*
X157262499Y-94593571D01*
X156691071Y-94129285D02*
X156405357Y-94129285D01*
X156583928Y-93879285D02*
X156583928Y-94522142D01*
X156548214Y-94593571D01*
X156476785Y-94629285D01*
X156405357Y-94629285D01*
X155869642Y-94593571D02*
X155941071Y-94629285D01*
X156083928Y-94629285D01*
X156155357Y-94593571D01*
X156191071Y-94522142D01*
X156191071Y-94236428D01*
X156155357Y-94165000D01*
X156083928Y-94129285D01*
X155941071Y-94129285D01*
X155869642Y-94165000D01*
X155833928Y-94236428D01*
X155833928Y-94307857D01*
X156191071Y-94379285D01*
X155512499Y-94629285D02*
X155512499Y-94129285D01*
X155512499Y-94272142D02*
X155476785Y-94200714D01*
X155441071Y-94165000D01*
X155369642Y-94129285D01*
X155298214Y-94129285D01*
X154155357Y-94629285D02*
X154155357Y-94236428D01*
X154191071Y-94165000D01*
X154262499Y-94129285D01*
X154405357Y-94129285D01*
X154476785Y-94165000D01*
X154155357Y-94593571D02*
X154226785Y-94629285D01*
X154405357Y-94629285D01*
X154476785Y-94593571D01*
X154512499Y-94522142D01*
X154512499Y-94450714D01*
X154476785Y-94379285D01*
X154405357Y-94343571D01*
X154226785Y-94343571D01*
X154155357Y-94307857D01*
X153798214Y-94129285D02*
X153798214Y-94629285D01*
X153798214Y-94200714D02*
X153762499Y-94165000D01*
X153691071Y-94129285D01*
X153583928Y-94129285D01*
X153512499Y-94165000D01*
X153476785Y-94236428D01*
X153476785Y-94629285D01*
X152798214Y-94629285D02*
X152798214Y-93879285D01*
X152798214Y-94593571D02*
X152869642Y-94629285D01*
X153012499Y-94629285D01*
X153083928Y-94593571D01*
X153119642Y-94557857D01*
X153155357Y-94486428D01*
X153155357Y-94272142D01*
X153119642Y-94200714D01*
X153083928Y-94165000D01*
X153012499Y-94129285D01*
X152869642Y-94129285D01*
X152798214Y-94165000D01*
X151441071Y-94629285D02*
X151691071Y-94272142D01*
X151869642Y-94629285D02*
X151869642Y-93879285D01*
X151583928Y-93879285D01*
X151512499Y-93915000D01*
X151476785Y-93950714D01*
X151441071Y-94022142D01*
X151441071Y-94129285D01*
X151476785Y-94200714D01*
X151512499Y-94236428D01*
X151583928Y-94272142D01*
X151869642Y-94272142D01*
X150833928Y-94593571D02*
X150905357Y-94629285D01*
X151048214Y-94629285D01*
X151119642Y-94593571D01*
X151155357Y-94522142D01*
X151155357Y-94236428D01*
X151119642Y-94165000D01*
X151048214Y-94129285D01*
X150905357Y-94129285D01*
X150833928Y-94165000D01*
X150798214Y-94236428D01*
X150798214Y-94307857D01*
X151155357Y-94379285D01*
X150155357Y-94629285D02*
X150155357Y-93879285D01*
X150155357Y-94593571D02*
X150226785Y-94629285D01*
X150369642Y-94629285D01*
X150441071Y-94593571D01*
X150476785Y-94557857D01*
X150512499Y-94486428D01*
X150512499Y-94272142D01*
X150476785Y-94200714D01*
X150441071Y-94165000D01*
X150369642Y-94129285D01*
X150226785Y-94129285D01*
X150155357Y-94165000D01*
X149798214Y-94629285D02*
X149798214Y-94129285D01*
X149798214Y-94272142D02*
X149762499Y-94200714D01*
X149726785Y-94165000D01*
X149655357Y-94129285D01*
X149583928Y-94129285D01*
X149333928Y-94629285D02*
X149333928Y-94129285D01*
X149333928Y-93879285D02*
X149369642Y-93915000D01*
X149333928Y-93950714D01*
X149298214Y-93915000D01*
X149333928Y-93879285D01*
X149333928Y-93950714D01*
X149048214Y-94129285D02*
X148869642Y-94629285D01*
X148691071Y-94129285D01*
X148119642Y-94593571D02*
X148191071Y-94629285D01*
X148333928Y-94629285D01*
X148405357Y-94593571D01*
X148441071Y-94522142D01*
X148441071Y-94236428D01*
X148405357Y-94165000D01*
X148333928Y-94129285D01*
X148191071Y-94129285D01*
X148119642Y-94165000D01*
X148083928Y-94236428D01*
X148083928Y-94307857D01*
X148441071Y-94379285D01*
X147762499Y-94629285D02*
X147762499Y-94129285D01*
X147762499Y-94272142D02*
X147726785Y-94200714D01*
X147691071Y-94165000D01*
X147619642Y-94129285D01*
X147548214Y-94129285D01*
X146798214Y-94129285D02*
X146619642Y-94629285D01*
X146441071Y-94129285D01*
X145762499Y-94629285D02*
X146191071Y-94629285D01*
X145976785Y-94629285D02*
X145976785Y-93879285D01*
X146048214Y-93986428D01*
X146119642Y-94057857D01*
X146191071Y-94093571D01*
X145441071Y-94557857D02*
X145405357Y-94593571D01*
X145441071Y-94629285D01*
X145476785Y-94593571D01*
X145441071Y-94557857D01*
X145441071Y-94629285D01*
X144941071Y-93879285D02*
X144869642Y-93879285D01*
X144798214Y-93915000D01*
X144762499Y-93950714D01*
X144726785Y-94022142D01*
X144691071Y-94165000D01*
X144691071Y-94343571D01*
X144726785Y-94486428D01*
X144762499Y-94557857D01*
X144798214Y-94593571D01*
X144869642Y-94629285D01*
X144941071Y-94629285D01*
X145012499Y-94593571D01*
X145048214Y-94557857D01*
X145083928Y-94486428D01*
X145119642Y-94343571D01*
X145119642Y-94165000D01*
X145083928Y-94022142D01*
X145048214Y-93950714D01*
X145012499Y-93915000D01*
X144941071Y-93879285D01*
X161583928Y-97179285D02*
X161583928Y-96429285D01*
X161405357Y-96429285D01*
X161298214Y-96465000D01*
X161226785Y-96536428D01*
X161191071Y-96607857D01*
X161155357Y-96750714D01*
X161155357Y-96857857D01*
X161191071Y-97000714D01*
X161226785Y-97072142D01*
X161298214Y-97143571D01*
X161405357Y-97179285D01*
X161583928Y-97179285D01*
X160548214Y-97143571D02*
X160619642Y-97179285D01*
X160762500Y-97179285D01*
X160833928Y-97143571D01*
X160869642Y-97072142D01*
X160869642Y-96786428D01*
X160833928Y-96715000D01*
X160762500Y-96679285D01*
X160619642Y-96679285D01*
X160548214Y-96715000D01*
X160512500Y-96786428D01*
X160512500Y-96857857D01*
X160869642Y-96929285D01*
X160226785Y-97143571D02*
X160155357Y-97179285D01*
X160012500Y-97179285D01*
X159941071Y-97143571D01*
X159905357Y-97072142D01*
X159905357Y-97036428D01*
X159941071Y-96965000D01*
X160012500Y-96929285D01*
X160119642Y-96929285D01*
X160191071Y-96893571D01*
X160226785Y-96822142D01*
X160226785Y-96786428D01*
X160191071Y-96715000D01*
X160119642Y-96679285D01*
X160012500Y-96679285D01*
X159941071Y-96715000D01*
X159583928Y-97179285D02*
X159583928Y-96679285D01*
X159583928Y-96429285D02*
X159619642Y-96465000D01*
X159583928Y-96500714D01*
X159548214Y-96465000D01*
X159583928Y-96429285D01*
X159583928Y-96500714D01*
X158905357Y-96679285D02*
X158905357Y-97286428D01*
X158941071Y-97357857D01*
X158976785Y-97393571D01*
X159048214Y-97429285D01*
X159155357Y-97429285D01*
X159226785Y-97393571D01*
X158905357Y-97143571D02*
X158976785Y-97179285D01*
X159119642Y-97179285D01*
X159191071Y-97143571D01*
X159226785Y-97107857D01*
X159262500Y-97036428D01*
X159262500Y-96822142D01*
X159226785Y-96750714D01*
X159191071Y-96715000D01*
X159119642Y-96679285D01*
X158976785Y-96679285D01*
X158905357Y-96715000D01*
X158548214Y-96679285D02*
X158548214Y-97179285D01*
X158548214Y-96750714D02*
X158512500Y-96715000D01*
X158441071Y-96679285D01*
X158333928Y-96679285D01*
X158262500Y-96715000D01*
X158226785Y-96786428D01*
X158226785Y-97179285D01*
X157583928Y-97143571D02*
X157655357Y-97179285D01*
X157798214Y-97179285D01*
X157869642Y-97143571D01*
X157905357Y-97072142D01*
X157905357Y-96786428D01*
X157869642Y-96715000D01*
X157798214Y-96679285D01*
X157655357Y-96679285D01*
X157583928Y-96715000D01*
X157548214Y-96786428D01*
X157548214Y-96857857D01*
X157905357Y-96929285D01*
X156905357Y-97179285D02*
X156905357Y-96429285D01*
X156905357Y-97143571D02*
X156976785Y-97179285D01*
X157119642Y-97179285D01*
X157191071Y-97143571D01*
X157226785Y-97107857D01*
X157262500Y-97036428D01*
X157262500Y-96822142D01*
X157226785Y-96750714D01*
X157191071Y-96715000D01*
X157119642Y-96679285D01*
X156976785Y-96679285D01*
X156905357Y-96715000D01*
X155976785Y-97179285D02*
X155976785Y-96429285D01*
X155976785Y-96715000D02*
X155905357Y-96679285D01*
X155762500Y-96679285D01*
X155691071Y-96715000D01*
X155655357Y-96750714D01*
X155619642Y-96822142D01*
X155619642Y-97036428D01*
X155655357Y-97107857D01*
X155691071Y-97143571D01*
X155762500Y-97179285D01*
X155905357Y-97179285D01*
X155976785Y-97143571D01*
X155369642Y-96679285D02*
X155191071Y-97179285D01*
X155012500Y-96679285D02*
X155191071Y-97179285D01*
X155262500Y-97357857D01*
X155298214Y-97393571D01*
X155369642Y-97429285D01*
X154155357Y-97179285D02*
X154155357Y-96429285D01*
X153726785Y-97179285D01*
X153726785Y-96429285D01*
X153048214Y-97179285D02*
X153048214Y-96786428D01*
X153083928Y-96715000D01*
X153155357Y-96679285D01*
X153298214Y-96679285D01*
X153369642Y-96715000D01*
X153048214Y-97143571D02*
X153119642Y-97179285D01*
X153298214Y-97179285D01*
X153369642Y-97143571D01*
X153405357Y-97072142D01*
X153405357Y-97000714D01*
X153369642Y-96929285D01*
X153298214Y-96893571D01*
X153119642Y-96893571D01*
X153048214Y-96857857D01*
X152798214Y-96679285D02*
X152512500Y-96679285D01*
X152691071Y-96429285D02*
X152691071Y-97072142D01*
X152655357Y-97143571D01*
X152583928Y-97179285D01*
X152512500Y-97179285D01*
X152262500Y-97179285D02*
X152262500Y-96429285D01*
X151941071Y-97179285D02*
X151941071Y-96786428D01*
X151976785Y-96715000D01*
X152048214Y-96679285D01*
X152155357Y-96679285D01*
X152226785Y-96715000D01*
X152262500Y-96750714D01*
X151262500Y-97179285D02*
X151262500Y-96786428D01*
X151298214Y-96715000D01*
X151369642Y-96679285D01*
X151512500Y-96679285D01*
X151583928Y-96715000D01*
X151262500Y-97143571D02*
X151333928Y-97179285D01*
X151512500Y-97179285D01*
X151583928Y-97143571D01*
X151619642Y-97072142D01*
X151619642Y-97000714D01*
X151583928Y-96929285D01*
X151512500Y-96893571D01*
X151333928Y-96893571D01*
X151262500Y-96857857D01*
X150905357Y-96679285D02*
X150905357Y-97179285D01*
X150905357Y-96750714D02*
X150869642Y-96715000D01*
X150798214Y-96679285D01*
X150691071Y-96679285D01*
X150619642Y-96715000D01*
X150583928Y-96786428D01*
X150583928Y-97179285D01*
X161012500Y-97954285D02*
X161583928Y-98168571D01*
X161012500Y-98382857D01*
X160655357Y-98454285D02*
X160655357Y-97704285D01*
X160333928Y-98454285D02*
X160333928Y-98061428D01*
X160369642Y-97990000D01*
X160441071Y-97954285D01*
X160548214Y-97954285D01*
X160619642Y-97990000D01*
X160655357Y-98025714D01*
X159655357Y-98454285D02*
X159655357Y-98061428D01*
X159691071Y-97990000D01*
X159762500Y-97954285D01*
X159905357Y-97954285D01*
X159976785Y-97990000D01*
X159655357Y-98418571D02*
X159726785Y-98454285D01*
X159905357Y-98454285D01*
X159976785Y-98418571D01*
X160012500Y-98347142D01*
X160012500Y-98275714D01*
X159976785Y-98204285D01*
X159905357Y-98168571D01*
X159726785Y-98168571D01*
X159655357Y-98132857D01*
X159298214Y-98454285D02*
X159298214Y-97954285D01*
X159298214Y-98097142D02*
X159262500Y-98025714D01*
X159226785Y-97990000D01*
X159155357Y-97954285D01*
X159083928Y-97954285D01*
X158512500Y-98454285D02*
X158512500Y-97704285D01*
X158512500Y-98418571D02*
X158583928Y-98454285D01*
X158726785Y-98454285D01*
X158798214Y-98418571D01*
X158833928Y-98382857D01*
X158869642Y-98311428D01*
X158869642Y-98097142D01*
X158833928Y-98025714D01*
X158798214Y-97990000D01*
X158726785Y-97954285D01*
X158583928Y-97954285D01*
X158512500Y-97990000D01*
X158226785Y-97954285D02*
X158083928Y-98454285D01*
X157941071Y-98097142D01*
X157798214Y-98454285D01*
X157655357Y-97954285D01*
X157048214Y-98454285D02*
X157048214Y-98061428D01*
X157083928Y-97990000D01*
X157155357Y-97954285D01*
X157298214Y-97954285D01*
X157369642Y-97990000D01*
X157048214Y-98418571D02*
X157119642Y-98454285D01*
X157298214Y-98454285D01*
X157369642Y-98418571D01*
X157405357Y-98347142D01*
X157405357Y-98275714D01*
X157369642Y-98204285D01*
X157298214Y-98168571D01*
X157119642Y-98168571D01*
X157048214Y-98132857D01*
X156691071Y-98454285D02*
X156691071Y-97954285D01*
X156691071Y-98097142D02*
X156655357Y-98025714D01*
X156619642Y-97990000D01*
X156548214Y-97954285D01*
X156476785Y-97954285D01*
X155941071Y-98418571D02*
X156012500Y-98454285D01*
X156155357Y-98454285D01*
X156226785Y-98418571D01*
X156262500Y-98347142D01*
X156262500Y-98061428D01*
X156226785Y-97990000D01*
X156155357Y-97954285D01*
X156012500Y-97954285D01*
X155941071Y-97990000D01*
X155905357Y-98061428D01*
X155905357Y-98132857D01*
X156262500Y-98204285D01*
X155119642Y-98097142D02*
X155155357Y-98061428D01*
X155226785Y-98025714D01*
X155298214Y-98025714D01*
X155369642Y-98061428D01*
X155405357Y-98097142D01*
X155441071Y-98168571D01*
X155441071Y-98240000D01*
X155405357Y-98311428D01*
X155369642Y-98347142D01*
X155298214Y-98382857D01*
X155226785Y-98382857D01*
X155155357Y-98347142D01*
X155119642Y-98311428D01*
X155119642Y-98025714D02*
X155119642Y-98311428D01*
X155083928Y-98347142D01*
X155048214Y-98347142D01*
X154976785Y-98311428D01*
X154941071Y-98240000D01*
X154941071Y-98061428D01*
X155012500Y-97954285D01*
X155119642Y-97882857D01*
X155262500Y-97847142D01*
X155405357Y-97882857D01*
X155512500Y-97954285D01*
X155583928Y-98061428D01*
X155619642Y-98204285D01*
X155583928Y-98347142D01*
X155512500Y-98454285D01*
X155405357Y-98525714D01*
X155262500Y-98561428D01*
X155119642Y-98525714D01*
X155012500Y-98454285D01*
X154619642Y-97954285D02*
X154619642Y-98454285D01*
X154619642Y-98025714D02*
X154583928Y-97990000D01*
X154512500Y-97954285D01*
X154405357Y-97954285D01*
X154333928Y-97990000D01*
X154298214Y-98061428D01*
X154298214Y-98454285D01*
X153941071Y-98454285D02*
X153941071Y-97954285D01*
X153941071Y-98097142D02*
X153905357Y-98025714D01*
X153869642Y-97990000D01*
X153798214Y-97954285D01*
X153726785Y-97954285D01*
X153369642Y-98454285D02*
X153441071Y-98418571D01*
X153476785Y-98347142D01*
X153476785Y-97704285D01*
X152798214Y-98418571D02*
X152869642Y-98454285D01*
X153012500Y-98454285D01*
X153083928Y-98418571D01*
X153119642Y-98347142D01*
X153119642Y-98061428D01*
X153083928Y-97990000D01*
X153012500Y-97954285D01*
X152869642Y-97954285D01*
X152798214Y-97990000D01*
X152762500Y-98061428D01*
X152762500Y-98132857D01*
X153119642Y-98204285D01*
X152512500Y-97954285D02*
X152369642Y-98454285D01*
X152226785Y-98097142D01*
X152083928Y-98454285D01*
X151941071Y-97954285D01*
X151655357Y-98454285D02*
X151655357Y-97954285D01*
X151655357Y-97704285D02*
X151691071Y-97740000D01*
X151655357Y-97775714D01*
X151619642Y-97740000D01*
X151655357Y-97704285D01*
X151655357Y-97775714D01*
X151333928Y-98418571D02*
X151262500Y-98454285D01*
X151119642Y-98454285D01*
X151048214Y-98418571D01*
X151012500Y-98347142D01*
X151012500Y-98311428D01*
X151048214Y-98240000D01*
X151119642Y-98204285D01*
X151226785Y-98204285D01*
X151298214Y-98168571D01*
X151333928Y-98097142D01*
X151333928Y-98061428D01*
X151298214Y-97990000D01*
X151226785Y-97954285D01*
X151119642Y-97954285D01*
X151048214Y-97990000D01*
X150691071Y-98382857D02*
X150655357Y-98418571D01*
X150691071Y-98454285D01*
X150726785Y-98418571D01*
X150691071Y-98382857D01*
X150691071Y-98454285D01*
X150012500Y-98454285D02*
X150012500Y-97704285D01*
X150012500Y-98418571D02*
X150083928Y-98454285D01*
X150226785Y-98454285D01*
X150298214Y-98418571D01*
X150333928Y-98382857D01*
X150369642Y-98311428D01*
X150369642Y-98097142D01*
X150333928Y-98025714D01*
X150298214Y-97990000D01*
X150226785Y-97954285D01*
X150083928Y-97954285D01*
X150012500Y-97990000D01*
X149369642Y-98418571D02*
X149441071Y-98454285D01*
X149583928Y-98454285D01*
X149655357Y-98418571D01*
X149691071Y-98347142D01*
X149691071Y-98061428D01*
X149655357Y-97990000D01*
X149583928Y-97954285D01*
X149441071Y-97954285D01*
X149369642Y-97990000D01*
X149333928Y-98061428D01*
X149333928Y-98132857D01*
X149691071Y-98204285D01*
X149083928Y-97954285D02*
X148905357Y-98454285D01*
X148726785Y-97954285D01*
X148441071Y-97954285D02*
X147869642Y-98168571D01*
X148441071Y-98382857D01*
X161155357Y-99657857D02*
X161191071Y-99693571D01*
X161298214Y-99729285D01*
X161369642Y-99729285D01*
X161476785Y-99693571D01*
X161548214Y-99622142D01*
X161583928Y-99550714D01*
X161619642Y-99407857D01*
X161619642Y-99300714D01*
X161583928Y-99157857D01*
X161548214Y-99086428D01*
X161476785Y-99015000D01*
X161369642Y-98979285D01*
X161298214Y-98979285D01*
X161191071Y-99015000D01*
X161155357Y-99050714D01*
X160405357Y-99657857D02*
X160441071Y-99693571D01*
X160548214Y-99729285D01*
X160619642Y-99729285D01*
X160726785Y-99693571D01*
X160798214Y-99622142D01*
X160833928Y-99550714D01*
X160869642Y-99407857D01*
X160869642Y-99300714D01*
X160833928Y-99157857D01*
X160798214Y-99086428D01*
X160726785Y-99015000D01*
X160619642Y-98979285D01*
X160548214Y-98979285D01*
X160441071Y-99015000D01*
X160405357Y-99050714D01*
X160083928Y-99443571D02*
X159512500Y-99443571D01*
X158905357Y-99336428D02*
X158798214Y-99372142D01*
X158762500Y-99407857D01*
X158726785Y-99479285D01*
X158726785Y-99586428D01*
X158762500Y-99657857D01*
X158798214Y-99693571D01*
X158869642Y-99729285D01*
X159155357Y-99729285D01*
X159155357Y-98979285D01*
X158905357Y-98979285D01*
X158833928Y-99015000D01*
X158798214Y-99050714D01*
X158762500Y-99122142D01*
X158762500Y-99193571D01*
X158798214Y-99265000D01*
X158833928Y-99300714D01*
X158905357Y-99336428D01*
X159155357Y-99336428D01*
X158262500Y-99372142D02*
X158262500Y-99729285D01*
X158512500Y-98979285D02*
X158262500Y-99372142D01*
X158012500Y-98979285D01*
X157762500Y-99443571D02*
X157191071Y-99443571D01*
X156869642Y-99693571D02*
X156762500Y-99729285D01*
X156583928Y-99729285D01*
X156512500Y-99693571D01*
X156476785Y-99657857D01*
X156441071Y-99586428D01*
X156441071Y-99515000D01*
X156476785Y-99443571D01*
X156512500Y-99407857D01*
X156583928Y-99372142D01*
X156726785Y-99336428D01*
X156798214Y-99300714D01*
X156833928Y-99265000D01*
X156869642Y-99193571D01*
X156869642Y-99122142D01*
X156833928Y-99050714D01*
X156798214Y-99015000D01*
X156726785Y-98979285D01*
X156548214Y-98979285D01*
X156441071Y-99015000D01*
X156155357Y-99515000D02*
X155798214Y-99515000D01*
X156226785Y-99729285D02*
X155976785Y-98979285D01*
X155726785Y-99729285D01*
X154583928Y-99229285D02*
X154583928Y-99729285D01*
X154762500Y-98943571D02*
X154941071Y-99479285D01*
X154476785Y-99479285D01*
X154191071Y-99657857D02*
X154155357Y-99693571D01*
X154191071Y-99729285D01*
X154226785Y-99693571D01*
X154191071Y-99657857D01*
X154191071Y-99729285D01*
X153691071Y-98979285D02*
X153619642Y-98979285D01*
X153548214Y-99015000D01*
X153512500Y-99050714D01*
X153476785Y-99122142D01*
X153441071Y-99265000D01*
X153441071Y-99443571D01*
X153476785Y-99586428D01*
X153512500Y-99657857D01*
X153548214Y-99693571D01*
X153619642Y-99729285D01*
X153691071Y-99729285D01*
X153762500Y-99693571D01*
X153798214Y-99657857D01*
X153833928Y-99586428D01*
X153869642Y-99443571D01*
X153869642Y-99265000D01*
X153833928Y-99122142D01*
X153798214Y-99050714D01*
X153762500Y-99015000D01*
X153691071Y-98979285D01*
D11*
X145150000Y-104875000D02*
X145150000Y-107675000D01*
X145850000Y-108325000D02*
X146450000Y-108325000D01*
X147150000Y-107675000D02*
X147150000Y-104875000D01*
X146450000Y-104225000D02*
X145850000Y-104225000D01*
X145850000Y-104225000D02*
G75*
G03*
X145150000Y-104925000I0J-700000D01*
G01*
X147150000Y-104925000D02*
G75*
G03*
X146450000Y-104225000I-700000J0D01*
G01*
X146450000Y-108325000D02*
G75*
G03*
X147150000Y-107625000I0J700000D01*
G01*
X145150000Y-107625000D02*
G75*
G03*
X145850000Y-108325000I700000J0D01*
G01*
X145150000Y-99225000D02*
X145150000Y-102025000D01*
X145850000Y-102675000D02*
X146450000Y-102675000D01*
X147150000Y-102025000D02*
X147150000Y-99225000D01*
X146450000Y-98575000D02*
X145850000Y-98575000D01*
X145850000Y-98575000D02*
G75*
G03*
X145150000Y-99275000I0J-700000D01*
G01*
X147150000Y-99275000D02*
G75*
G03*
X146450000Y-98575000I-700000J0D01*
G01*
X146450000Y-102675000D02*
G75*
G03*
X147150000Y-101975000I0J700000D01*
G01*
X145150000Y-101975000D02*
G75*
G03*
X145850000Y-102675000I700000J0D01*
G01*
X151757836Y-102060000D02*
X151542164Y-102060000D01*
X151757836Y-101340000D02*
X151542164Y-101340000D01*
X149985000Y-99547164D02*
X149985000Y-99762836D01*
X149265000Y-99547164D02*
X149265000Y-99762836D01*
X149010000Y-99537164D02*
X149010000Y-99752836D01*
X148290000Y-99537164D02*
X148290000Y-99752836D01*
D10*
X144635714Y-104614285D02*
X144564285Y-104614285D01*
X144492857Y-104650000D01*
X144457142Y-104685714D01*
X144421428Y-104757142D01*
X144385714Y-104900000D01*
X144385714Y-105078571D01*
X144421428Y-105221428D01*
X144457142Y-105292857D01*
X144492857Y-105328571D01*
X144564285Y-105364285D01*
X144635714Y-105364285D01*
X144707142Y-105328571D01*
X144742857Y-105292857D01*
X144778571Y-105221428D01*
X144814285Y-105078571D01*
X144814285Y-104900000D01*
X144778571Y-104757142D01*
X144742857Y-104685714D01*
X144707142Y-104650000D01*
X144635714Y-104614285D01*
X144064285Y-105292857D02*
X144028571Y-105328571D01*
X144064285Y-105364285D01*
X144100000Y-105328571D01*
X144064285Y-105292857D01*
X144064285Y-105364285D01*
X143564285Y-104614285D02*
X143492857Y-104614285D01*
X143421428Y-104650000D01*
X143385714Y-104685714D01*
X143350000Y-104757142D01*
X143314285Y-104900000D01*
X143314285Y-105078571D01*
X143350000Y-105221428D01*
X143385714Y-105292857D01*
X143421428Y-105328571D01*
X143492857Y-105364285D01*
X143564285Y-105364285D01*
X143635714Y-105328571D01*
X143671428Y-105292857D01*
X143707142Y-105221428D01*
X143742857Y-105078571D01*
X143742857Y-104900000D01*
X143707142Y-104757142D01*
X143671428Y-104685714D01*
X143635714Y-104650000D01*
X143564285Y-104614285D01*
X142671428Y-105364285D02*
X142671428Y-104614285D01*
X142671428Y-105328571D02*
X142742857Y-105364285D01*
X142885714Y-105364285D01*
X142957142Y-105328571D01*
X142992857Y-105292857D01*
X143028571Y-105221428D01*
X143028571Y-105007142D01*
X142992857Y-104935714D01*
X142957142Y-104900000D01*
X142885714Y-104864285D01*
X142742857Y-104864285D01*
X142671428Y-104900000D01*
X142064285Y-104971428D02*
X141957142Y-105007142D01*
X141921428Y-105042857D01*
X141885714Y-105114285D01*
X141885714Y-105221428D01*
X141921428Y-105292857D01*
X141957142Y-105328571D01*
X142028571Y-105364285D01*
X142314285Y-105364285D01*
X142314285Y-104614285D01*
X142064285Y-104614285D01*
X141992857Y-104650000D01*
X141957142Y-104685714D01*
X141921428Y-104757142D01*
X141921428Y-104828571D01*
X141957142Y-104900000D01*
X141992857Y-104935714D01*
X142064285Y-104971428D01*
X142314285Y-104971428D01*
X144789285Y-107260714D02*
X144753571Y-107225000D01*
X144682142Y-107189285D01*
X144503571Y-107189285D01*
X144432142Y-107225000D01*
X144396428Y-107260714D01*
X144360714Y-107332142D01*
X144360714Y-107403571D01*
X144396428Y-107510714D01*
X144825000Y-107939285D01*
X144360714Y-107939285D01*
X144039285Y-107867857D02*
X144003571Y-107903571D01*
X144039285Y-107939285D01*
X144075000Y-107903571D01*
X144039285Y-107867857D01*
X144039285Y-107939285D01*
X143325000Y-107189285D02*
X143682142Y-107189285D01*
X143717857Y-107546428D01*
X143682142Y-107510714D01*
X143610714Y-107475000D01*
X143432142Y-107475000D01*
X143360714Y-107510714D01*
X143325000Y-107546428D01*
X143289285Y-107617857D01*
X143289285Y-107796428D01*
X143325000Y-107867857D01*
X143360714Y-107903571D01*
X143432142Y-107939285D01*
X143610714Y-107939285D01*
X143682142Y-107903571D01*
X143717857Y-107867857D01*
X142646428Y-107939285D02*
X142646428Y-107189285D01*
X142646428Y-107903571D02*
X142717857Y-107939285D01*
X142860714Y-107939285D01*
X142932142Y-107903571D01*
X142967857Y-107867857D01*
X143003571Y-107796428D01*
X143003571Y-107582142D01*
X142967857Y-107510714D01*
X142932142Y-107475000D01*
X142860714Y-107439285D01*
X142717857Y-107439285D01*
X142646428Y-107475000D01*
X142039285Y-107546428D02*
X141932142Y-107582142D01*
X141896428Y-107617857D01*
X141860714Y-107689285D01*
X141860714Y-107796428D01*
X141896428Y-107867857D01*
X141932142Y-107903571D01*
X142003571Y-107939285D01*
X142289285Y-107939285D01*
X142289285Y-107189285D01*
X142039285Y-107189285D01*
X141967857Y-107225000D01*
X141932142Y-107260714D01*
X141896428Y-107332142D01*
X141896428Y-107403571D01*
X141932142Y-107475000D01*
X141967857Y-107510714D01*
X142039285Y-107546428D01*
X142289285Y-107546428D01*
X144825000Y-99014285D02*
X144325000Y-99014285D01*
X144646428Y-99764285D01*
X144039285Y-99692857D02*
X144003571Y-99728571D01*
X144039285Y-99764285D01*
X144075000Y-99728571D01*
X144039285Y-99692857D01*
X144039285Y-99764285D01*
X143325000Y-99014285D02*
X143682142Y-99014285D01*
X143717857Y-99371428D01*
X143682142Y-99335714D01*
X143610714Y-99300000D01*
X143432142Y-99300000D01*
X143360714Y-99335714D01*
X143325000Y-99371428D01*
X143289285Y-99442857D01*
X143289285Y-99621428D01*
X143325000Y-99692857D01*
X143360714Y-99728571D01*
X143432142Y-99764285D01*
X143610714Y-99764285D01*
X143682142Y-99728571D01*
X143717857Y-99692857D01*
X142646428Y-99764285D02*
X142646428Y-99014285D01*
X142646428Y-99728571D02*
X142717857Y-99764285D01*
X142860714Y-99764285D01*
X142932142Y-99728571D01*
X142967857Y-99692857D01*
X143003571Y-99621428D01*
X143003571Y-99407142D01*
X142967857Y-99335714D01*
X142932142Y-99300000D01*
X142860714Y-99264285D01*
X142717857Y-99264285D01*
X142646428Y-99300000D01*
X142039285Y-99371428D02*
X141932142Y-99407142D01*
X141896428Y-99442857D01*
X141860714Y-99514285D01*
X141860714Y-99621428D01*
X141896428Y-99692857D01*
X141932142Y-99728571D01*
X142003571Y-99764285D01*
X142289285Y-99764285D01*
X142289285Y-99014285D01*
X142039285Y-99014285D01*
X141967857Y-99050000D01*
X141932142Y-99085714D01*
X141896428Y-99157142D01*
X141896428Y-99228571D01*
X141932142Y-99300000D01*
X141967857Y-99335714D01*
X142039285Y-99371428D01*
X142289285Y-99371428D01*
X144789285Y-101560714D02*
X144753571Y-101525000D01*
X144682142Y-101489285D01*
X144503571Y-101489285D01*
X144432142Y-101525000D01*
X144396428Y-101560714D01*
X144360714Y-101632142D01*
X144360714Y-101703571D01*
X144396428Y-101810714D01*
X144825000Y-102239285D01*
X144360714Y-102239285D01*
X144039285Y-102167857D02*
X144003571Y-102203571D01*
X144039285Y-102239285D01*
X144075000Y-102203571D01*
X144039285Y-102167857D01*
X144039285Y-102239285D01*
X143325000Y-101489285D02*
X143682142Y-101489285D01*
X143717857Y-101846428D01*
X143682142Y-101810714D01*
X143610714Y-101775000D01*
X143432142Y-101775000D01*
X143360714Y-101810714D01*
X143325000Y-101846428D01*
X143289285Y-101917857D01*
X143289285Y-102096428D01*
X143325000Y-102167857D01*
X143360714Y-102203571D01*
X143432142Y-102239285D01*
X143610714Y-102239285D01*
X143682142Y-102203571D01*
X143717857Y-102167857D01*
X142646428Y-102239285D02*
X142646428Y-101489285D01*
X142646428Y-102203571D02*
X142717857Y-102239285D01*
X142860714Y-102239285D01*
X142932142Y-102203571D01*
X142967857Y-102167857D01*
X143003571Y-102096428D01*
X143003571Y-101882142D01*
X142967857Y-101810714D01*
X142932142Y-101775000D01*
X142860714Y-101739285D01*
X142717857Y-101739285D01*
X142646428Y-101775000D01*
X142039285Y-101846428D02*
X141932142Y-101882142D01*
X141896428Y-101917857D01*
X141860714Y-101989285D01*
X141860714Y-102096428D01*
X141896428Y-102167857D01*
X141932142Y-102203571D01*
X142003571Y-102239285D01*
X142289285Y-102239285D01*
X142289285Y-101489285D01*
X142039285Y-101489285D01*
X141967857Y-101525000D01*
X141932142Y-101560714D01*
X141896428Y-101632142D01*
X141896428Y-101703571D01*
X141932142Y-101775000D01*
X141967857Y-101810714D01*
X142039285Y-101846428D01*
X142289285Y-101846428D01*
%LPC*%
D12*
X146150000Y-106275000D03*
D13*
G36*
X146899398Y-107575000D02*
G01*
X146899398Y-107599534D01*
X146894588Y-107648365D01*
X146885016Y-107696490D01*
X146870772Y-107743445D01*
X146851995Y-107788778D01*
X146828864Y-107832051D01*
X146801604Y-107872850D01*
X146770476Y-107910779D01*
X146735779Y-107945476D01*
X146697850Y-107976604D01*
X146657051Y-108003864D01*
X146613778Y-108026995D01*
X146568445Y-108045772D01*
X146521490Y-108060016D01*
X146473365Y-108069588D01*
X146424534Y-108074398D01*
X146400000Y-108074398D01*
X146400000Y-108075000D01*
X145900000Y-108075000D01*
X145900000Y-108074398D01*
X145875466Y-108074398D01*
X145826635Y-108069588D01*
X145778510Y-108060016D01*
X145731555Y-108045772D01*
X145686222Y-108026995D01*
X145642949Y-108003864D01*
X145602150Y-107976604D01*
X145564221Y-107945476D01*
X145529524Y-107910779D01*
X145498396Y-107872850D01*
X145471136Y-107832051D01*
X145448005Y-107788778D01*
X145429228Y-107743445D01*
X145414984Y-107696490D01*
X145405412Y-107648365D01*
X145400602Y-107599534D01*
X145400602Y-107575000D01*
X145400000Y-107575000D01*
X145400000Y-107025000D01*
X146900000Y-107025000D01*
X146900000Y-107575000D01*
X146899398Y-107575000D01*
G37*
G36*
X145400000Y-105525000D02*
G01*
X145400000Y-104975000D01*
X145400602Y-104975000D01*
X145400602Y-104950466D01*
X145405412Y-104901635D01*
X145414984Y-104853510D01*
X145429228Y-104806555D01*
X145448005Y-104761222D01*
X145471136Y-104717949D01*
X145498396Y-104677150D01*
X145529524Y-104639221D01*
X145564221Y-104604524D01*
X145602150Y-104573396D01*
X145642949Y-104546136D01*
X145686222Y-104523005D01*
X145731555Y-104504228D01*
X145778510Y-104489984D01*
X145826635Y-104480412D01*
X145875466Y-104475602D01*
X145900000Y-104475602D01*
X145900000Y-104475000D01*
X146400000Y-104475000D01*
X146400000Y-104475602D01*
X146424534Y-104475602D01*
X146473365Y-104480412D01*
X146521490Y-104489984D01*
X146568445Y-104504228D01*
X146613778Y-104523005D01*
X146657051Y-104546136D01*
X146697850Y-104573396D01*
X146735779Y-104604524D01*
X146770476Y-104639221D01*
X146801604Y-104677150D01*
X146828864Y-104717949D01*
X146851995Y-104761222D01*
X146870772Y-104806555D01*
X146885016Y-104853510D01*
X146894588Y-104901635D01*
X146899398Y-104950466D01*
X146899398Y-104975000D01*
X146900000Y-104975000D01*
X146900000Y-105525000D01*
X145400000Y-105525000D01*
G37*
D12*
X146150000Y-100625000D03*
D13*
G36*
X146899398Y-101925000D02*
G01*
X146899398Y-101949534D01*
X146894588Y-101998365D01*
X146885016Y-102046490D01*
X146870772Y-102093445D01*
X146851995Y-102138778D01*
X146828864Y-102182051D01*
X146801604Y-102222850D01*
X146770476Y-102260779D01*
X146735779Y-102295476D01*
X146697850Y-102326604D01*
X146657051Y-102353864D01*
X146613778Y-102376995D01*
X146568445Y-102395772D01*
X146521490Y-102410016D01*
X146473365Y-102419588D01*
X146424534Y-102424398D01*
X146400000Y-102424398D01*
X146400000Y-102425000D01*
X145900000Y-102425000D01*
X145900000Y-102424398D01*
X145875466Y-102424398D01*
X145826635Y-102419588D01*
X145778510Y-102410016D01*
X145731555Y-102395772D01*
X145686222Y-102376995D01*
X145642949Y-102353864D01*
X145602150Y-102326604D01*
X145564221Y-102295476D01*
X145529524Y-102260779D01*
X145498396Y-102222850D01*
X145471136Y-102182051D01*
X145448005Y-102138778D01*
X145429228Y-102093445D01*
X145414984Y-102046490D01*
X145405412Y-101998365D01*
X145400602Y-101949534D01*
X145400602Y-101925000D01*
X145400000Y-101925000D01*
X145400000Y-101375000D01*
X146900000Y-101375000D01*
X146900000Y-101925000D01*
X146899398Y-101925000D01*
G37*
G36*
X145400000Y-99875000D02*
G01*
X145400000Y-99325000D01*
X145400602Y-99325000D01*
X145400602Y-99300466D01*
X145405412Y-99251635D01*
X145414984Y-99203510D01*
X145429228Y-99156555D01*
X145448005Y-99111222D01*
X145471136Y-99067949D01*
X145498396Y-99027150D01*
X145529524Y-98989221D01*
X145564221Y-98954524D01*
X145602150Y-98923396D01*
X145642949Y-98896136D01*
X145686222Y-98873005D01*
X145731555Y-98854228D01*
X145778510Y-98839984D01*
X145826635Y-98830412D01*
X145875466Y-98825602D01*
X145900000Y-98825602D01*
X145900000Y-98825000D01*
X146400000Y-98825000D01*
X146400000Y-98825602D01*
X146424534Y-98825602D01*
X146473365Y-98830412D01*
X146521490Y-98839984D01*
X146568445Y-98854228D01*
X146613778Y-98873005D01*
X146657051Y-98896136D01*
X146697850Y-98923396D01*
X146735779Y-98954524D01*
X146770476Y-98989221D01*
X146801604Y-99027150D01*
X146828864Y-99067949D01*
X146851995Y-99111222D01*
X146870772Y-99156555D01*
X146885016Y-99203510D01*
X146894588Y-99251635D01*
X146899398Y-99300466D01*
X146899398Y-99325000D01*
X146900000Y-99325000D01*
X146900000Y-99875000D01*
X145400000Y-99875000D01*
G37*
G36*
G01*
X151450000Y-101530000D02*
X151450000Y-101870000D01*
G75*
G02*
X151310000Y-102010000I-140000J0D01*
G01*
X151030000Y-102010000D01*
G75*
G02*
X150890000Y-101870000I0J140000D01*
G01*
X150890000Y-101530000D01*
G75*
G02*
X151030000Y-101390000I140000J0D01*
G01*
X151310000Y-101390000D01*
G75*
G02*
X151450000Y-101530000I0J-140000D01*
G01*
G37*
G36*
G01*
X152410000Y-101530000D02*
X152410000Y-101870000D01*
G75*
G02*
X152270000Y-102010000I-140000J0D01*
G01*
X151990000Y-102010000D01*
G75*
G02*
X151850000Y-101870000I0J140000D01*
G01*
X151850000Y-101530000D01*
G75*
G02*
X151990000Y-101390000I140000J0D01*
G01*
X152270000Y-101390000D01*
G75*
G02*
X152410000Y-101530000I0J-140000D01*
G01*
G37*
G36*
G01*
X149455000Y-99855000D02*
X149795000Y-99855000D01*
G75*
G02*
X149935000Y-99995000I0J-140000D01*
G01*
X149935000Y-100275000D01*
G75*
G02*
X149795000Y-100415000I-140000J0D01*
G01*
X149455000Y-100415000D01*
G75*
G02*
X149315000Y-100275000I0J140000D01*
G01*
X149315000Y-99995000D01*
G75*
G02*
X149455000Y-99855000I140000J0D01*
G01*
G37*
G36*
G01*
X149455000Y-98895000D02*
X149795000Y-98895000D01*
G75*
G02*
X149935000Y-99035000I0J-140000D01*
G01*
X149935000Y-99315000D01*
G75*
G02*
X149795000Y-99455000I-140000J0D01*
G01*
X149455000Y-99455000D01*
G75*
G02*
X149315000Y-99315000I0J140000D01*
G01*
X149315000Y-99035000D01*
G75*
G02*
X149455000Y-98895000I140000J0D01*
G01*
G37*
G36*
G01*
X148480000Y-99845000D02*
X148820000Y-99845000D01*
G75*
G02*
X148960000Y-99985000I0J-140000D01*
G01*
X148960000Y-100265000D01*
G75*
G02*
X148820000Y-100405000I-140000J0D01*
G01*
X148480000Y-100405000D01*
G75*
G02*
X148340000Y-100265000I0J140000D01*
G01*
X148340000Y-99985000D01*
G75*
G02*
X148480000Y-99845000I140000J0D01*
G01*
G37*
G36*
G01*
X148480000Y-98885000D02*
X148820000Y-98885000D01*
G75*
G02*
X148960000Y-99025000I0J-140000D01*
G01*
X148960000Y-99305000D01*
G75*
G02*
X148820000Y-99445000I-140000J0D01*
G01*
X148480000Y-99445000D01*
G75*
G02*
X148340000Y-99305000I0J140000D01*
G01*
X148340000Y-99025000D01*
G75*
G02*
X148480000Y-98885000I140000J0D01*
G01*
G37*
M02*
