%FSLAX45Y45*%
G04 Gerber Fmt 4.5, Leading zero omitted, Abs format (unit mm)*
G04 Created by KiCad (PCBNEW 5.1.10) date 2021-09-12 21:14:33*
%MOMM*%
%LPD*%
G01*
G04 APERTURE LIST*
%TA.AperFunction,Profile*%
%ADD10C,0.050000*%
%TD*%
%ADD11C,0.200000*%
%ADD12C,0.300000*%
G04 APERTURE END LIST*
D10*
X16785000Y-9350000D02*
X13975000Y-9350000D01*
X16785000Y-11337500D02*
X16785000Y-9350000D01*
X14060000Y-11337500D02*
X16785000Y-11337500D01*
X13975000Y-11337500D02*
X14060000Y-11337500D01*
X13975000Y-9372500D02*
X13975000Y-11337500D01*
X13975000Y-9350000D02*
X13975000Y-9372500D01*
D11*
X14105000Y-9540000D02*
X14135000Y-9570000D01*
X14135000Y-9540000D02*
X14105000Y-9570000D01*
X14105000Y-11120000D02*
X14135000Y-11150000D01*
X14135000Y-11120000D02*
X14105000Y-11150000D01*
X14195000Y-10370000D02*
X14225000Y-10400000D01*
X14225000Y-10370000D02*
X14195000Y-10400000D01*
X14195000Y-10610000D02*
X14225000Y-10640000D01*
X14225000Y-10610000D02*
X14195000Y-10640000D01*
X14195000Y-10850000D02*
X14225000Y-10880000D01*
X14225000Y-10850000D02*
X14195000Y-10880000D01*
X14195000Y-11090000D02*
X14225000Y-11120000D01*
X14225000Y-11090000D02*
X14195000Y-11120000D01*
X14200000Y-9890000D02*
X14230000Y-9920000D01*
X14230000Y-9890000D02*
X14200000Y-9920000D01*
X14200000Y-10130000D02*
X14230000Y-10160000D01*
X14230000Y-10130000D02*
X14200000Y-10160000D01*
X14418600Y-9443900D02*
X14448600Y-9473900D01*
X14448600Y-9443900D02*
X14418600Y-9473900D01*
X14455000Y-10745000D02*
X14485000Y-10775000D01*
X14485000Y-10745000D02*
X14455000Y-10775000D01*
X14455000Y-11187500D02*
X14485000Y-11217500D01*
X14485000Y-11187500D02*
X14455000Y-11217500D01*
X14740000Y-9567500D02*
X14770000Y-9597500D01*
X14770000Y-9567500D02*
X14740000Y-9597500D01*
X14867000Y-9825000D02*
X14897000Y-9855000D01*
X14897000Y-9825000D02*
X14867000Y-9855000D01*
X14947500Y-9825000D02*
X14977500Y-9855000D01*
X14977500Y-9825000D02*
X14947500Y-9855000D01*
X15030000Y-9825000D02*
X15060000Y-9855000D01*
X15060000Y-9825000D02*
X15030000Y-9855000D01*
X15030000Y-10022500D02*
X15060000Y-10052500D01*
X15060000Y-10022500D02*
X15030000Y-10052500D01*
X15030000Y-10135000D02*
X15060000Y-10165000D01*
X15060000Y-10135000D02*
X15030000Y-10165000D01*
X15030000Y-10245000D02*
X15060000Y-10275000D01*
X15060000Y-10245000D02*
X15030000Y-10275000D01*
X15047500Y-10472500D02*
X15077500Y-10502500D01*
X15077500Y-10472500D02*
X15047500Y-10502500D01*
X15053000Y-10726000D02*
X15083000Y-10756000D01*
X15083000Y-10726000D02*
X15053000Y-10756000D01*
X15110000Y-9825000D02*
X15140000Y-9855000D01*
X15140000Y-9825000D02*
X15110000Y-9855000D01*
X15132500Y-10472500D02*
X15162500Y-10502500D01*
X15162500Y-10472500D02*
X15132500Y-10502500D01*
X15135000Y-11187500D02*
X15165000Y-11217500D01*
X15165000Y-11187500D02*
X15135000Y-11217500D01*
X15190000Y-9825000D02*
X15220000Y-9855000D01*
X15220000Y-9825000D02*
X15190000Y-9855000D01*
X15229000Y-10966000D02*
X15259000Y-10996000D01*
X15259000Y-10966000D02*
X15229000Y-10996000D01*
X15272500Y-10155000D02*
X15302500Y-10185000D01*
X15302500Y-10155000D02*
X15272500Y-10185000D01*
X15407500Y-11082500D02*
X15437500Y-11112500D01*
X15437500Y-11082500D02*
X15407500Y-11112500D01*
X15437500Y-10515000D02*
X15467500Y-10545000D01*
X15467500Y-10515000D02*
X15437500Y-10545000D01*
X15437500Y-10628900D02*
X15467500Y-10658900D01*
X15467500Y-10628900D02*
X15437500Y-10658900D01*
X15655000Y-10842500D02*
X15685000Y-10872500D01*
X15685000Y-10842500D02*
X15655000Y-10872500D01*
X15835000Y-9930000D02*
X15865000Y-9960000D01*
X15865000Y-9930000D02*
X15835000Y-9960000D01*
X15835000Y-10080000D02*
X15865000Y-10110000D01*
X15865000Y-10080000D02*
X15835000Y-10110000D01*
X15835000Y-10230000D02*
X15865000Y-10260000D01*
X15865000Y-10230000D02*
X15835000Y-10260000D01*
X15835000Y-10380000D02*
X15865000Y-10410000D01*
X15865000Y-10380000D02*
X15835000Y-10410000D01*
X15835000Y-10680000D02*
X15865000Y-10710000D01*
X15865000Y-10680000D02*
X15835000Y-10710000D01*
X15890000Y-9525000D02*
X15920000Y-9555000D01*
X15920000Y-9525000D02*
X15890000Y-9555000D01*
X15890000Y-11135000D02*
X15920000Y-11165000D01*
X15920000Y-11135000D02*
X15890000Y-11165000D01*
X16205000Y-9525000D02*
X16235000Y-9555000D01*
X16235000Y-9525000D02*
X16205000Y-9555000D01*
X16205000Y-11135000D02*
X16235000Y-11165000D01*
X16235000Y-11135000D02*
X16205000Y-11165000D01*
X16330000Y-9893900D02*
G75*
G03*
X16330000Y-9893900I-65000J0D01*
G01*
X16330000Y-10793900D02*
G75*
G03*
X16330000Y-10793900I-65000J0D01*
G01*
D12*
X14258928Y-11805714D02*
X14258928Y-11505714D01*
X14330357Y-11505714D01*
X14373214Y-11520000D01*
X14401786Y-11548571D01*
X14416071Y-11577143D01*
X14430357Y-11634286D01*
X14430357Y-11677143D01*
X14416071Y-11734286D01*
X14401786Y-11762857D01*
X14373214Y-11791429D01*
X14330357Y-11805714D01*
X14258928Y-11805714D01*
X14558928Y-11805714D02*
X14558928Y-11605714D01*
X14558928Y-11662857D02*
X14573214Y-11634286D01*
X14587500Y-11620000D01*
X14616071Y-11605714D01*
X14644643Y-11605714D01*
X14744643Y-11805714D02*
X14744643Y-11605714D01*
X14744643Y-11505714D02*
X14730357Y-11520000D01*
X14744643Y-11534286D01*
X14758928Y-11520000D01*
X14744643Y-11505714D01*
X14744643Y-11534286D01*
X14930357Y-11805714D02*
X14901786Y-11791429D01*
X14887500Y-11762857D01*
X14887500Y-11505714D01*
X15087500Y-11805714D02*
X15058928Y-11791429D01*
X15044643Y-11762857D01*
X15044643Y-11505714D01*
X15430357Y-11805714D02*
X15430357Y-11505714D01*
X15530357Y-11720000D01*
X15630357Y-11505714D01*
X15630357Y-11805714D01*
X15901786Y-11805714D02*
X15901786Y-11648571D01*
X15887500Y-11620000D01*
X15858928Y-11605714D01*
X15801786Y-11605714D01*
X15773214Y-11620000D01*
X15901786Y-11791429D02*
X15873214Y-11805714D01*
X15801786Y-11805714D01*
X15773214Y-11791429D01*
X15758928Y-11762857D01*
X15758928Y-11734286D01*
X15773214Y-11705714D01*
X15801786Y-11691429D01*
X15873214Y-11691429D01*
X15901786Y-11677143D01*
X16044643Y-11605714D02*
X16044643Y-11905714D01*
X16044643Y-11620000D02*
X16073214Y-11605714D01*
X16130357Y-11605714D01*
X16158928Y-11620000D01*
X16173214Y-11634286D01*
X16187500Y-11662857D01*
X16187500Y-11748571D01*
X16173214Y-11777143D01*
X16158928Y-11791429D01*
X16130357Y-11805714D01*
X16073214Y-11805714D01*
X16044643Y-11791429D01*
X16316071Y-11777143D02*
X16330357Y-11791429D01*
X16316071Y-11805714D01*
X16301786Y-11791429D01*
X16316071Y-11777143D01*
X16316071Y-11805714D01*
X16316071Y-11620000D02*
X16330357Y-11634286D01*
X16316071Y-11648571D01*
X16301786Y-11634286D01*
X16316071Y-11620000D01*
X16316071Y-11648571D01*
X13942500Y-12285000D02*
X13972500Y-12315000D01*
X13972500Y-12285000D02*
X13942500Y-12315000D01*
X14316071Y-12135714D02*
X14344643Y-12135714D01*
X14373214Y-12150000D01*
X14387500Y-12164286D01*
X14401786Y-12192857D01*
X14416071Y-12250000D01*
X14416071Y-12321429D01*
X14401786Y-12378571D01*
X14387500Y-12407143D01*
X14373214Y-12421429D01*
X14344643Y-12435714D01*
X14316071Y-12435714D01*
X14287500Y-12421429D01*
X14273214Y-12407143D01*
X14258928Y-12378571D01*
X14244643Y-12321429D01*
X14244643Y-12250000D01*
X14258928Y-12192857D01*
X14273214Y-12164286D01*
X14287500Y-12150000D01*
X14316071Y-12135714D01*
X14544643Y-12407143D02*
X14558928Y-12421429D01*
X14544643Y-12435714D01*
X14530357Y-12421429D01*
X14544643Y-12407143D01*
X14544643Y-12435714D01*
X14658928Y-12135714D02*
X14844643Y-12135714D01*
X14744643Y-12250000D01*
X14787500Y-12250000D01*
X14816071Y-12264286D01*
X14830357Y-12278571D01*
X14844643Y-12307143D01*
X14844643Y-12378571D01*
X14830357Y-12407143D01*
X14816071Y-12421429D01*
X14787500Y-12435714D01*
X14701786Y-12435714D01*
X14673214Y-12421429D01*
X14658928Y-12407143D01*
X15030357Y-12135714D02*
X15058928Y-12135714D01*
X15087500Y-12150000D01*
X15101786Y-12164286D01*
X15116071Y-12192857D01*
X15130357Y-12250000D01*
X15130357Y-12321429D01*
X15116071Y-12378571D01*
X15101786Y-12407143D01*
X15087500Y-12421429D01*
X15058928Y-12435714D01*
X15030357Y-12435714D01*
X15001786Y-12421429D01*
X14987500Y-12407143D01*
X14973214Y-12378571D01*
X14958928Y-12321429D01*
X14958928Y-12250000D01*
X14973214Y-12192857D01*
X14987500Y-12164286D01*
X15001786Y-12150000D01*
X15030357Y-12135714D01*
X15316071Y-12135714D02*
X15344643Y-12135714D01*
X15373214Y-12150000D01*
X15387500Y-12164286D01*
X15401786Y-12192857D01*
X15416071Y-12250000D01*
X15416071Y-12321429D01*
X15401786Y-12378571D01*
X15387500Y-12407143D01*
X15373214Y-12421429D01*
X15344643Y-12435714D01*
X15316071Y-12435714D01*
X15287500Y-12421429D01*
X15273214Y-12407143D01*
X15258928Y-12378571D01*
X15244643Y-12321429D01*
X15244643Y-12250000D01*
X15258928Y-12192857D01*
X15273214Y-12164286D01*
X15287500Y-12150000D01*
X15316071Y-12135714D01*
X15544643Y-12435714D02*
X15544643Y-12235714D01*
X15544643Y-12264286D02*
X15558928Y-12250000D01*
X15587500Y-12235714D01*
X15630357Y-12235714D01*
X15658928Y-12250000D01*
X15673214Y-12278571D01*
X15673214Y-12435714D01*
X15673214Y-12278571D02*
X15687500Y-12250000D01*
X15716071Y-12235714D01*
X15758928Y-12235714D01*
X15787500Y-12250000D01*
X15801786Y-12278571D01*
X15801786Y-12435714D01*
X15944643Y-12435714D02*
X15944643Y-12235714D01*
X15944643Y-12264286D02*
X15958928Y-12250000D01*
X15987500Y-12235714D01*
X16030357Y-12235714D01*
X16058928Y-12250000D01*
X16073214Y-12278571D01*
X16073214Y-12435714D01*
X16073214Y-12278571D02*
X16087500Y-12250000D01*
X16116071Y-12235714D01*
X16158928Y-12235714D01*
X16187500Y-12250000D01*
X16201786Y-12278571D01*
X16201786Y-12435714D01*
X16787500Y-12121429D02*
X16530357Y-12507143D01*
X17173214Y-12135714D02*
X17201786Y-12135714D01*
X17230357Y-12150000D01*
X17244643Y-12164286D01*
X17258928Y-12192857D01*
X17273214Y-12250000D01*
X17273214Y-12321429D01*
X17258928Y-12378571D01*
X17244643Y-12407143D01*
X17230357Y-12421429D01*
X17201786Y-12435714D01*
X17173214Y-12435714D01*
X17144643Y-12421429D01*
X17130357Y-12407143D01*
X17116071Y-12378571D01*
X17101786Y-12321429D01*
X17101786Y-12250000D01*
X17116071Y-12192857D01*
X17130357Y-12164286D01*
X17144643Y-12150000D01*
X17173214Y-12135714D01*
X17401786Y-12407143D02*
X17416071Y-12421429D01*
X17401786Y-12435714D01*
X17387500Y-12421429D01*
X17401786Y-12407143D01*
X17401786Y-12435714D01*
X17601786Y-12135714D02*
X17630357Y-12135714D01*
X17658928Y-12150000D01*
X17673214Y-12164286D01*
X17687500Y-12192857D01*
X17701786Y-12250000D01*
X17701786Y-12321429D01*
X17687500Y-12378571D01*
X17673214Y-12407143D01*
X17658928Y-12421429D01*
X17630357Y-12435714D01*
X17601786Y-12435714D01*
X17573214Y-12421429D01*
X17558928Y-12407143D01*
X17544643Y-12378571D01*
X17530357Y-12321429D01*
X17530357Y-12250000D01*
X17544643Y-12192857D01*
X17558928Y-12164286D01*
X17573214Y-12150000D01*
X17601786Y-12135714D01*
X17987500Y-12435714D02*
X17816071Y-12435714D01*
X17901786Y-12435714D02*
X17901786Y-12135714D01*
X17873214Y-12178571D01*
X17844643Y-12207143D01*
X17816071Y-12221429D01*
X18273214Y-12435714D02*
X18101786Y-12435714D01*
X18187500Y-12435714D02*
X18187500Y-12135714D01*
X18158928Y-12178571D01*
X18130357Y-12207143D01*
X18101786Y-12221429D01*
X18444643Y-12264286D02*
X18416071Y-12250000D01*
X18401786Y-12235714D01*
X18387500Y-12207143D01*
X18387500Y-12192857D01*
X18401786Y-12164286D01*
X18416071Y-12150000D01*
X18444643Y-12135714D01*
X18501786Y-12135714D01*
X18530357Y-12150000D01*
X18544643Y-12164286D01*
X18558928Y-12192857D01*
X18558928Y-12207143D01*
X18544643Y-12235714D01*
X18530357Y-12250000D01*
X18501786Y-12264286D01*
X18444643Y-12264286D01*
X18416071Y-12278571D01*
X18401786Y-12292857D01*
X18387500Y-12321429D01*
X18387500Y-12378571D01*
X18401786Y-12407143D01*
X18416071Y-12421429D01*
X18444643Y-12435714D01*
X18501786Y-12435714D01*
X18530357Y-12421429D01*
X18544643Y-12407143D01*
X18558928Y-12378571D01*
X18558928Y-12321429D01*
X18544643Y-12292857D01*
X18530357Y-12278571D01*
X18501786Y-12264286D01*
X18673214Y-12135714D02*
X18673214Y-12192857D01*
X18787500Y-12135714D02*
X18787500Y-12192857D01*
X19230357Y-12550000D02*
X19216071Y-12535714D01*
X19187500Y-12492857D01*
X19173214Y-12464286D01*
X19158928Y-12421429D01*
X19144643Y-12350000D01*
X19144643Y-12292857D01*
X19158928Y-12221429D01*
X19173214Y-12178571D01*
X19187500Y-12150000D01*
X19216071Y-12107143D01*
X19230357Y-12092857D01*
X19316071Y-12135714D02*
X19501786Y-12135714D01*
X19401786Y-12250000D01*
X19444643Y-12250000D01*
X19473214Y-12264286D01*
X19487500Y-12278571D01*
X19501786Y-12307143D01*
X19501786Y-12378571D01*
X19487500Y-12407143D01*
X19473214Y-12421429D01*
X19444643Y-12435714D01*
X19358928Y-12435714D01*
X19330357Y-12421429D01*
X19316071Y-12407143D01*
X19644643Y-12435714D02*
X19701786Y-12435714D01*
X19730357Y-12421429D01*
X19744643Y-12407143D01*
X19773214Y-12364286D01*
X19787500Y-12307143D01*
X19787500Y-12192857D01*
X19773214Y-12164286D01*
X19758928Y-12150000D01*
X19730357Y-12135714D01*
X19673214Y-12135714D01*
X19644643Y-12150000D01*
X19630357Y-12164286D01*
X19616071Y-12192857D01*
X19616071Y-12264286D01*
X19630357Y-12292857D01*
X19644643Y-12307143D01*
X19673214Y-12321429D01*
X19730357Y-12321429D01*
X19758928Y-12307143D01*
X19773214Y-12292857D01*
X19787500Y-12264286D01*
X20144643Y-12435714D02*
X20144643Y-12135714D01*
X20273214Y-12435714D02*
X20273214Y-12278571D01*
X20258928Y-12250000D01*
X20230357Y-12235714D01*
X20187500Y-12235714D01*
X20158928Y-12250000D01*
X20144643Y-12264286D01*
X20458928Y-12435714D02*
X20430357Y-12421429D01*
X20416071Y-12407143D01*
X20401786Y-12378571D01*
X20401786Y-12292857D01*
X20416071Y-12264286D01*
X20430357Y-12250000D01*
X20458928Y-12235714D01*
X20501786Y-12235714D01*
X20530357Y-12250000D01*
X20544643Y-12264286D01*
X20558928Y-12292857D01*
X20558928Y-12378571D01*
X20544643Y-12407143D01*
X20530357Y-12421429D01*
X20501786Y-12435714D01*
X20458928Y-12435714D01*
X20730357Y-12435714D02*
X20701786Y-12421429D01*
X20687500Y-12392857D01*
X20687500Y-12135714D01*
X20958928Y-12421429D02*
X20930357Y-12435714D01*
X20873214Y-12435714D01*
X20844643Y-12421429D01*
X20830357Y-12392857D01*
X20830357Y-12278571D01*
X20844643Y-12250000D01*
X20873214Y-12235714D01*
X20930357Y-12235714D01*
X20958928Y-12250000D01*
X20973214Y-12278571D01*
X20973214Y-12307143D01*
X20830357Y-12335714D01*
X21087500Y-12421429D02*
X21116071Y-12435714D01*
X21173214Y-12435714D01*
X21201786Y-12421429D01*
X21216071Y-12392857D01*
X21216071Y-12378571D01*
X21201786Y-12350000D01*
X21173214Y-12335714D01*
X21130357Y-12335714D01*
X21101786Y-12321429D01*
X21087500Y-12292857D01*
X21087500Y-12278571D01*
X21101786Y-12250000D01*
X21130357Y-12235714D01*
X21173214Y-12235714D01*
X21201786Y-12250000D01*
X21316071Y-12550000D02*
X21330357Y-12535714D01*
X21358928Y-12492857D01*
X21373214Y-12464286D01*
X21387500Y-12421429D01*
X21401786Y-12350000D01*
X21401786Y-12292857D01*
X21387500Y-12221429D01*
X21373214Y-12178571D01*
X21358928Y-12150000D01*
X21330357Y-12107143D01*
X21316071Y-12092857D01*
X13972500Y-12696000D02*
G75*
G03*
X13972500Y-12696000I-65000J0D01*
G01*
X14416071Y-12831714D02*
X14244643Y-12831714D01*
X14330357Y-12831714D02*
X14330357Y-12531714D01*
X14301786Y-12574571D01*
X14273214Y-12603143D01*
X14244643Y-12617429D01*
X14544643Y-12803143D02*
X14558928Y-12817429D01*
X14544643Y-12831714D01*
X14530357Y-12817429D01*
X14544643Y-12803143D01*
X14544643Y-12831714D01*
X14658928Y-12531714D02*
X14844643Y-12531714D01*
X14744643Y-12646000D01*
X14787500Y-12646000D01*
X14816071Y-12660286D01*
X14830357Y-12674571D01*
X14844643Y-12703143D01*
X14844643Y-12774571D01*
X14830357Y-12803143D01*
X14816071Y-12817429D01*
X14787500Y-12831714D01*
X14701786Y-12831714D01*
X14673214Y-12817429D01*
X14658928Y-12803143D01*
X15030357Y-12531714D02*
X15058928Y-12531714D01*
X15087500Y-12546000D01*
X15101786Y-12560286D01*
X15116071Y-12588857D01*
X15130357Y-12646000D01*
X15130357Y-12717429D01*
X15116071Y-12774571D01*
X15101786Y-12803143D01*
X15087500Y-12817429D01*
X15058928Y-12831714D01*
X15030357Y-12831714D01*
X15001786Y-12817429D01*
X14987500Y-12803143D01*
X14973214Y-12774571D01*
X14958928Y-12717429D01*
X14958928Y-12646000D01*
X14973214Y-12588857D01*
X14987500Y-12560286D01*
X15001786Y-12546000D01*
X15030357Y-12531714D01*
X15316071Y-12531714D02*
X15344643Y-12531714D01*
X15373214Y-12546000D01*
X15387500Y-12560286D01*
X15401786Y-12588857D01*
X15416071Y-12646000D01*
X15416071Y-12717429D01*
X15401786Y-12774571D01*
X15387500Y-12803143D01*
X15373214Y-12817429D01*
X15344643Y-12831714D01*
X15316071Y-12831714D01*
X15287500Y-12817429D01*
X15273214Y-12803143D01*
X15258928Y-12774571D01*
X15244643Y-12717429D01*
X15244643Y-12646000D01*
X15258928Y-12588857D01*
X15273214Y-12560286D01*
X15287500Y-12546000D01*
X15316071Y-12531714D01*
X15544643Y-12831714D02*
X15544643Y-12631714D01*
X15544643Y-12660286D02*
X15558928Y-12646000D01*
X15587500Y-12631714D01*
X15630357Y-12631714D01*
X15658928Y-12646000D01*
X15673214Y-12674571D01*
X15673214Y-12831714D01*
X15673214Y-12674571D02*
X15687500Y-12646000D01*
X15716071Y-12631714D01*
X15758928Y-12631714D01*
X15787500Y-12646000D01*
X15801786Y-12674571D01*
X15801786Y-12831714D01*
X15944643Y-12831714D02*
X15944643Y-12631714D01*
X15944643Y-12660286D02*
X15958928Y-12646000D01*
X15987500Y-12631714D01*
X16030357Y-12631714D01*
X16058928Y-12646000D01*
X16073214Y-12674571D01*
X16073214Y-12831714D01*
X16073214Y-12674571D02*
X16087500Y-12646000D01*
X16116071Y-12631714D01*
X16158928Y-12631714D01*
X16187500Y-12646000D01*
X16201786Y-12674571D01*
X16201786Y-12831714D01*
X16787500Y-12517429D02*
X16530357Y-12903143D01*
X17173214Y-12531714D02*
X17201786Y-12531714D01*
X17230357Y-12546000D01*
X17244643Y-12560286D01*
X17258928Y-12588857D01*
X17273214Y-12646000D01*
X17273214Y-12717429D01*
X17258928Y-12774571D01*
X17244643Y-12803143D01*
X17230357Y-12817429D01*
X17201786Y-12831714D01*
X17173214Y-12831714D01*
X17144643Y-12817429D01*
X17130357Y-12803143D01*
X17116071Y-12774571D01*
X17101786Y-12717429D01*
X17101786Y-12646000D01*
X17116071Y-12588857D01*
X17130357Y-12560286D01*
X17144643Y-12546000D01*
X17173214Y-12531714D01*
X17401786Y-12803143D02*
X17416071Y-12817429D01*
X17401786Y-12831714D01*
X17387500Y-12817429D01*
X17401786Y-12803143D01*
X17401786Y-12831714D01*
X17601786Y-12531714D02*
X17630357Y-12531714D01*
X17658928Y-12546000D01*
X17673214Y-12560286D01*
X17687500Y-12588857D01*
X17701786Y-12646000D01*
X17701786Y-12717429D01*
X17687500Y-12774571D01*
X17673214Y-12803143D01*
X17658928Y-12817429D01*
X17630357Y-12831714D01*
X17601786Y-12831714D01*
X17573214Y-12817429D01*
X17558928Y-12803143D01*
X17544643Y-12774571D01*
X17530357Y-12717429D01*
X17530357Y-12646000D01*
X17544643Y-12588857D01*
X17558928Y-12560286D01*
X17573214Y-12546000D01*
X17601786Y-12531714D01*
X17973214Y-12531714D02*
X17830357Y-12531714D01*
X17816071Y-12674571D01*
X17830357Y-12660286D01*
X17858928Y-12646000D01*
X17930357Y-12646000D01*
X17958928Y-12660286D01*
X17973214Y-12674571D01*
X17987500Y-12703143D01*
X17987500Y-12774571D01*
X17973214Y-12803143D01*
X17958928Y-12817429D01*
X17930357Y-12831714D01*
X17858928Y-12831714D01*
X17830357Y-12817429D01*
X17816071Y-12803143D01*
X18273214Y-12831714D02*
X18101786Y-12831714D01*
X18187500Y-12831714D02*
X18187500Y-12531714D01*
X18158928Y-12574571D01*
X18130357Y-12603143D01*
X18101786Y-12617429D01*
X18387500Y-12560286D02*
X18401786Y-12546000D01*
X18430357Y-12531714D01*
X18501786Y-12531714D01*
X18530357Y-12546000D01*
X18544643Y-12560286D01*
X18558928Y-12588857D01*
X18558928Y-12617429D01*
X18544643Y-12660286D01*
X18373214Y-12831714D01*
X18558928Y-12831714D01*
X18673214Y-12531714D02*
X18673214Y-12588857D01*
X18787500Y-12531714D02*
X18787500Y-12588857D01*
X19230357Y-12946000D02*
X19216071Y-12931714D01*
X19187500Y-12888857D01*
X19173214Y-12860286D01*
X19158928Y-12817429D01*
X19144643Y-12746000D01*
X19144643Y-12688857D01*
X19158928Y-12617429D01*
X19173214Y-12574571D01*
X19187500Y-12546000D01*
X19216071Y-12503143D01*
X19230357Y-12488857D01*
X19330357Y-12560286D02*
X19344643Y-12546000D01*
X19373214Y-12531714D01*
X19444643Y-12531714D01*
X19473214Y-12546000D01*
X19487500Y-12560286D01*
X19501786Y-12588857D01*
X19501786Y-12617429D01*
X19487500Y-12660286D01*
X19316071Y-12831714D01*
X19501786Y-12831714D01*
X19858928Y-12831714D02*
X19858928Y-12531714D01*
X19987500Y-12831714D02*
X19987500Y-12674571D01*
X19973214Y-12646000D01*
X19944643Y-12631714D01*
X19901786Y-12631714D01*
X19873214Y-12646000D01*
X19858928Y-12660286D01*
X20173214Y-12831714D02*
X20144643Y-12817429D01*
X20130357Y-12803143D01*
X20116071Y-12774571D01*
X20116071Y-12688857D01*
X20130357Y-12660286D01*
X20144643Y-12646000D01*
X20173214Y-12631714D01*
X20216071Y-12631714D01*
X20244643Y-12646000D01*
X20258928Y-12660286D01*
X20273214Y-12688857D01*
X20273214Y-12774571D01*
X20258928Y-12803143D01*
X20244643Y-12817429D01*
X20216071Y-12831714D01*
X20173214Y-12831714D01*
X20444643Y-12831714D02*
X20416071Y-12817429D01*
X20401786Y-12788857D01*
X20401786Y-12531714D01*
X20673214Y-12817429D02*
X20644643Y-12831714D01*
X20587500Y-12831714D01*
X20558928Y-12817429D01*
X20544643Y-12788857D01*
X20544643Y-12674571D01*
X20558928Y-12646000D01*
X20587500Y-12631714D01*
X20644643Y-12631714D01*
X20673214Y-12646000D01*
X20687500Y-12674571D01*
X20687500Y-12703143D01*
X20544643Y-12731714D01*
X20801786Y-12817429D02*
X20830357Y-12831714D01*
X20887500Y-12831714D01*
X20916071Y-12817429D01*
X20930357Y-12788857D01*
X20930357Y-12774571D01*
X20916071Y-12746000D01*
X20887500Y-12731714D01*
X20844643Y-12731714D01*
X20816071Y-12717429D01*
X20801786Y-12688857D01*
X20801786Y-12674571D01*
X20816071Y-12646000D01*
X20844643Y-12631714D01*
X20887500Y-12631714D01*
X20916071Y-12646000D01*
X21030357Y-12946000D02*
X21044643Y-12931714D01*
X21073214Y-12888857D01*
X21087500Y-12860286D01*
X21101786Y-12817429D01*
X21116071Y-12746000D01*
X21116071Y-12688857D01*
X21101786Y-12617429D01*
X21087500Y-12574571D01*
X21073214Y-12546000D01*
X21044643Y-12503143D01*
X21030357Y-12488857D01*
M02*
