G04 #@! TF.GenerationSoftware,KiCad,Pcbnew,5.1.10*
G04 #@! TF.CreationDate,2021-09-10T20:16:30-07:00*
G04 #@! TF.ProjectId,ACORN-CLE-DVI,41434f52-4e2d-4434-9c45-2d4456492e6b,rev?*
G04 #@! TF.SameCoordinates,Original*
G04 #@! TF.FileFunction,Copper,L3,Inr*
G04 #@! TF.FilePolarity,Positive*
%FSLAX46Y46*%
G04 Gerber Fmt 4.6, Leading zero omitted, Abs format (unit mm)*
G04 Created by KiCad (PCBNEW 5.1.10) date 2021-09-10 20:16:30*
%MOMM*%
%LPD*%
G01*
G04 APERTURE LIST*
G04 #@! TA.AperFunction,ComponentPad*
%ADD10C,1.300000*%
G04 #@! TD*
G04 #@! TA.AperFunction,ViaPad*
%ADD11C,0.600000*%
G04 #@! TD*
G04 #@! TA.AperFunction,Conductor*
%ADD12C,0.254000*%
G04 #@! TD*
G04 #@! TA.AperFunction,Conductor*
%ADD13C,0.100000*%
G04 #@! TD*
G04 APERTURE END LIST*
D10*
X168300000Y-99489000D03*
X168300000Y-90489000D03*
D11*
X147750000Y-102600000D03*
X146850000Y-102900000D03*
X147750000Y-100200000D03*
X147750000Y-97800000D03*
X147750000Y-95400000D03*
X147800000Y-93000000D03*
X147800000Y-90600000D03*
X146850000Y-87100000D03*
X164150000Y-91000000D03*
X164150000Y-92500000D03*
X164150000Y-94000000D03*
X164150000Y-95500000D03*
X164150000Y-98500000D03*
X164700000Y-86950000D03*
X167850000Y-86950000D03*
X164700000Y-103050000D03*
X167850000Y-103050000D03*
X156100000Y-93050000D03*
X155300000Y-89750000D03*
X156234997Y-89750000D03*
X156925000Y-89750000D03*
X157615003Y-89750000D03*
D12*
X173221000Y-104646000D02*
X145679000Y-104646000D01*
X145679000Y-102845436D01*
X146296000Y-102845436D01*
X146296000Y-102954564D01*
X146317289Y-103061596D01*
X146359051Y-103162418D01*
X146419680Y-103253155D01*
X146496845Y-103330320D01*
X146587582Y-103390949D01*
X146688404Y-103432711D01*
X146795436Y-103454000D01*
X146904564Y-103454000D01*
X147011596Y-103432711D01*
X147112418Y-103390949D01*
X147203155Y-103330320D01*
X147280320Y-103253155D01*
X147340949Y-103162418D01*
X147382711Y-103061596D01*
X147390245Y-103023720D01*
X147396845Y-103030320D01*
X147487582Y-103090949D01*
X147588404Y-103132711D01*
X147695436Y-103154000D01*
X147804564Y-103154000D01*
X147911596Y-103132711D01*
X148012418Y-103090949D01*
X148103155Y-103030320D01*
X148138039Y-102995436D01*
X164146000Y-102995436D01*
X164146000Y-103104564D01*
X164167289Y-103211596D01*
X164209051Y-103312418D01*
X164269680Y-103403155D01*
X164346845Y-103480320D01*
X164437582Y-103540949D01*
X164538404Y-103582711D01*
X164645436Y-103604000D01*
X164754564Y-103604000D01*
X164861596Y-103582711D01*
X164962418Y-103540949D01*
X165053155Y-103480320D01*
X165130320Y-103403155D01*
X165190949Y-103312418D01*
X165232711Y-103211596D01*
X165254000Y-103104564D01*
X165254000Y-102995436D01*
X167296000Y-102995436D01*
X167296000Y-103104564D01*
X167317289Y-103211596D01*
X167359051Y-103312418D01*
X167419680Y-103403155D01*
X167496845Y-103480320D01*
X167587582Y-103540949D01*
X167688404Y-103582711D01*
X167795436Y-103604000D01*
X167904564Y-103604000D01*
X168011596Y-103582711D01*
X168112418Y-103540949D01*
X168203155Y-103480320D01*
X168280320Y-103403155D01*
X168340949Y-103312418D01*
X168382711Y-103211596D01*
X168404000Y-103104564D01*
X168404000Y-102995436D01*
X168382711Y-102888404D01*
X168340949Y-102787582D01*
X168280320Y-102696845D01*
X168203155Y-102619680D01*
X168112418Y-102559051D01*
X168011596Y-102517289D01*
X167904564Y-102496000D01*
X167795436Y-102496000D01*
X167688404Y-102517289D01*
X167587582Y-102559051D01*
X167496845Y-102619680D01*
X167419680Y-102696845D01*
X167359051Y-102787582D01*
X167317289Y-102888404D01*
X167296000Y-102995436D01*
X165254000Y-102995436D01*
X165232711Y-102888404D01*
X165190949Y-102787582D01*
X165130320Y-102696845D01*
X165053155Y-102619680D01*
X164962418Y-102559051D01*
X164861596Y-102517289D01*
X164754564Y-102496000D01*
X164645436Y-102496000D01*
X164538404Y-102517289D01*
X164437582Y-102559051D01*
X164346845Y-102619680D01*
X164269680Y-102696845D01*
X164209051Y-102787582D01*
X164167289Y-102888404D01*
X164146000Y-102995436D01*
X148138039Y-102995436D01*
X148180320Y-102953155D01*
X148240949Y-102862418D01*
X148282711Y-102761596D01*
X148304000Y-102654564D01*
X148304000Y-102545436D01*
X148282711Y-102438404D01*
X148240949Y-102337582D01*
X148180320Y-102246845D01*
X148103155Y-102169680D01*
X148012418Y-102109051D01*
X147911596Y-102067289D01*
X147804564Y-102046000D01*
X147695436Y-102046000D01*
X147588404Y-102067289D01*
X147487582Y-102109051D01*
X147396845Y-102169680D01*
X147319680Y-102246845D01*
X147259051Y-102337582D01*
X147217289Y-102438404D01*
X147209755Y-102476280D01*
X147203155Y-102469680D01*
X147112418Y-102409051D01*
X147011596Y-102367289D01*
X146904564Y-102346000D01*
X146795436Y-102346000D01*
X146688404Y-102367289D01*
X146587582Y-102409051D01*
X146496845Y-102469680D01*
X146419680Y-102546845D01*
X146359051Y-102637582D01*
X146317289Y-102738404D01*
X146296000Y-102845436D01*
X145679000Y-102845436D01*
X145679000Y-100145436D01*
X147196000Y-100145436D01*
X147196000Y-100254564D01*
X147217289Y-100361596D01*
X147259051Y-100462418D01*
X147319680Y-100553155D01*
X147396845Y-100630320D01*
X147487582Y-100690949D01*
X147588404Y-100732711D01*
X147695436Y-100754000D01*
X147804564Y-100754000D01*
X147911596Y-100732711D01*
X148012418Y-100690949D01*
X148103155Y-100630320D01*
X148180320Y-100553155D01*
X148240949Y-100462418D01*
X148282711Y-100361596D01*
X148304000Y-100254564D01*
X148304000Y-100145436D01*
X148282711Y-100038404D01*
X148240949Y-99937582D01*
X148180320Y-99846845D01*
X148103155Y-99769680D01*
X148012418Y-99709051D01*
X147911596Y-99667289D01*
X147804564Y-99646000D01*
X147695436Y-99646000D01*
X147588404Y-99667289D01*
X147487582Y-99709051D01*
X147396845Y-99769680D01*
X147319680Y-99846845D01*
X147259051Y-99937582D01*
X147217289Y-100038404D01*
X147196000Y-100145436D01*
X145679000Y-100145436D01*
X145679000Y-99399964D01*
X167396000Y-99399964D01*
X167396000Y-99578036D01*
X167430740Y-99752687D01*
X167498886Y-99917205D01*
X167597817Y-100065266D01*
X167723734Y-100191183D01*
X167871795Y-100290114D01*
X168036313Y-100358260D01*
X168210964Y-100393000D01*
X168389036Y-100393000D01*
X168563687Y-100358260D01*
X168728205Y-100290114D01*
X168876266Y-100191183D01*
X169002183Y-100065266D01*
X169101114Y-99917205D01*
X169169260Y-99752687D01*
X169204000Y-99578036D01*
X169204000Y-99399964D01*
X169169260Y-99225313D01*
X169101114Y-99060795D01*
X169002183Y-98912734D01*
X168876266Y-98786817D01*
X168728205Y-98687886D01*
X168563687Y-98619740D01*
X168389036Y-98585000D01*
X168210964Y-98585000D01*
X168036313Y-98619740D01*
X167871795Y-98687886D01*
X167723734Y-98786817D01*
X167597817Y-98912734D01*
X167498886Y-99060795D01*
X167430740Y-99225313D01*
X167396000Y-99399964D01*
X145679000Y-99399964D01*
X145679000Y-98445436D01*
X163596000Y-98445436D01*
X163596000Y-98554564D01*
X163617289Y-98661596D01*
X163659051Y-98762418D01*
X163719680Y-98853155D01*
X163796845Y-98930320D01*
X163887582Y-98990949D01*
X163988404Y-99032711D01*
X164095436Y-99054000D01*
X164204564Y-99054000D01*
X164311596Y-99032711D01*
X164412418Y-98990949D01*
X164503155Y-98930320D01*
X164580320Y-98853155D01*
X164640949Y-98762418D01*
X164682711Y-98661596D01*
X164704000Y-98554564D01*
X164704000Y-98445436D01*
X164682711Y-98338404D01*
X164640949Y-98237582D01*
X164580320Y-98146845D01*
X164503155Y-98069680D01*
X164412418Y-98009051D01*
X164311596Y-97967289D01*
X164204564Y-97946000D01*
X164095436Y-97946000D01*
X163988404Y-97967289D01*
X163887582Y-98009051D01*
X163796845Y-98069680D01*
X163719680Y-98146845D01*
X163659051Y-98237582D01*
X163617289Y-98338404D01*
X163596000Y-98445436D01*
X145679000Y-98445436D01*
X145679000Y-97745436D01*
X147196000Y-97745436D01*
X147196000Y-97854564D01*
X147217289Y-97961596D01*
X147259051Y-98062418D01*
X147319680Y-98153155D01*
X147396845Y-98230320D01*
X147487582Y-98290949D01*
X147588404Y-98332711D01*
X147695436Y-98354000D01*
X147804564Y-98354000D01*
X147911596Y-98332711D01*
X148012418Y-98290949D01*
X148103155Y-98230320D01*
X148180320Y-98153155D01*
X148240949Y-98062418D01*
X148282711Y-97961596D01*
X148304000Y-97854564D01*
X148304000Y-97745436D01*
X148282711Y-97638404D01*
X148240949Y-97537582D01*
X148180320Y-97446845D01*
X148103155Y-97369680D01*
X148012418Y-97309051D01*
X147911596Y-97267289D01*
X147804564Y-97246000D01*
X147695436Y-97246000D01*
X147588404Y-97267289D01*
X147487582Y-97309051D01*
X147396845Y-97369680D01*
X147319680Y-97446845D01*
X147259051Y-97537582D01*
X147217289Y-97638404D01*
X147196000Y-97745436D01*
X145679000Y-97745436D01*
X145679000Y-95345436D01*
X147196000Y-95345436D01*
X147196000Y-95454564D01*
X147217289Y-95561596D01*
X147259051Y-95662418D01*
X147319680Y-95753155D01*
X147396845Y-95830320D01*
X147487582Y-95890949D01*
X147588404Y-95932711D01*
X147695436Y-95954000D01*
X147804564Y-95954000D01*
X147911596Y-95932711D01*
X148012418Y-95890949D01*
X148103155Y-95830320D01*
X148180320Y-95753155D01*
X148240949Y-95662418D01*
X148282711Y-95561596D01*
X148304000Y-95454564D01*
X148304000Y-95445436D01*
X163596000Y-95445436D01*
X163596000Y-95554564D01*
X163617289Y-95661596D01*
X163659051Y-95762418D01*
X163719680Y-95853155D01*
X163796845Y-95930320D01*
X163887582Y-95990949D01*
X163988404Y-96032711D01*
X164095436Y-96054000D01*
X164204564Y-96054000D01*
X164311596Y-96032711D01*
X164412418Y-95990949D01*
X164503155Y-95930320D01*
X164580320Y-95853155D01*
X164640949Y-95762418D01*
X164682711Y-95661596D01*
X164704000Y-95554564D01*
X164704000Y-95445436D01*
X164682711Y-95338404D01*
X164640949Y-95237582D01*
X164580320Y-95146845D01*
X164503155Y-95069680D01*
X164412418Y-95009051D01*
X164311596Y-94967289D01*
X164204564Y-94946000D01*
X164095436Y-94946000D01*
X163988404Y-94967289D01*
X163887582Y-95009051D01*
X163796845Y-95069680D01*
X163719680Y-95146845D01*
X163659051Y-95237582D01*
X163617289Y-95338404D01*
X163596000Y-95445436D01*
X148304000Y-95445436D01*
X148304000Y-95345436D01*
X148282711Y-95238404D01*
X148240949Y-95137582D01*
X148180320Y-95046845D01*
X148103155Y-94969680D01*
X148012418Y-94909051D01*
X147911596Y-94867289D01*
X147804564Y-94846000D01*
X147695436Y-94846000D01*
X147588404Y-94867289D01*
X147487582Y-94909051D01*
X147396845Y-94969680D01*
X147319680Y-95046845D01*
X147259051Y-95137582D01*
X147217289Y-95238404D01*
X147196000Y-95345436D01*
X145679000Y-95345436D01*
X145679000Y-93945436D01*
X163596000Y-93945436D01*
X163596000Y-94054564D01*
X163617289Y-94161596D01*
X163659051Y-94262418D01*
X163719680Y-94353155D01*
X163796845Y-94430320D01*
X163887582Y-94490949D01*
X163988404Y-94532711D01*
X164095436Y-94554000D01*
X164204564Y-94554000D01*
X164311596Y-94532711D01*
X164412418Y-94490949D01*
X164503155Y-94430320D01*
X164580320Y-94353155D01*
X164640949Y-94262418D01*
X164682711Y-94161596D01*
X164704000Y-94054564D01*
X164704000Y-93945436D01*
X164682711Y-93838404D01*
X164640949Y-93737582D01*
X164580320Y-93646845D01*
X164503155Y-93569680D01*
X164412418Y-93509051D01*
X164311596Y-93467289D01*
X164204564Y-93446000D01*
X164095436Y-93446000D01*
X163988404Y-93467289D01*
X163887582Y-93509051D01*
X163796845Y-93569680D01*
X163719680Y-93646845D01*
X163659051Y-93737582D01*
X163617289Y-93838404D01*
X163596000Y-93945436D01*
X145679000Y-93945436D01*
X145679000Y-92945436D01*
X147246000Y-92945436D01*
X147246000Y-93054564D01*
X147267289Y-93161596D01*
X147309051Y-93262418D01*
X147369680Y-93353155D01*
X147446845Y-93430320D01*
X147537582Y-93490949D01*
X147638404Y-93532711D01*
X147745436Y-93554000D01*
X147854564Y-93554000D01*
X147961596Y-93532711D01*
X148062418Y-93490949D01*
X148153155Y-93430320D01*
X148230320Y-93353155D01*
X148290949Y-93262418D01*
X148332711Y-93161596D01*
X148354000Y-93054564D01*
X148354000Y-92995436D01*
X155546000Y-92995436D01*
X155546000Y-93104564D01*
X155567289Y-93211596D01*
X155609051Y-93312418D01*
X155669680Y-93403155D01*
X155746845Y-93480320D01*
X155837582Y-93540949D01*
X155938404Y-93582711D01*
X156045436Y-93604000D01*
X156154564Y-93604000D01*
X156261596Y-93582711D01*
X156362418Y-93540949D01*
X156453155Y-93480320D01*
X156530320Y-93403155D01*
X156590949Y-93312418D01*
X156632711Y-93211596D01*
X156654000Y-93104564D01*
X156654000Y-92995436D01*
X156632711Y-92888404D01*
X156590949Y-92787582D01*
X156530320Y-92696845D01*
X156453155Y-92619680D01*
X156362418Y-92559051D01*
X156261596Y-92517289D01*
X156154564Y-92496000D01*
X156045436Y-92496000D01*
X155938404Y-92517289D01*
X155837582Y-92559051D01*
X155746845Y-92619680D01*
X155669680Y-92696845D01*
X155609051Y-92787582D01*
X155567289Y-92888404D01*
X155546000Y-92995436D01*
X148354000Y-92995436D01*
X148354000Y-92945436D01*
X148332711Y-92838404D01*
X148290949Y-92737582D01*
X148230320Y-92646845D01*
X148153155Y-92569680D01*
X148062418Y-92509051D01*
X147961596Y-92467289D01*
X147854564Y-92446000D01*
X147745436Y-92446000D01*
X147638404Y-92467289D01*
X147537582Y-92509051D01*
X147446845Y-92569680D01*
X147369680Y-92646845D01*
X147309051Y-92737582D01*
X147267289Y-92838404D01*
X147246000Y-92945436D01*
X145679000Y-92945436D01*
X145679000Y-92445436D01*
X163596000Y-92445436D01*
X163596000Y-92554564D01*
X163617289Y-92661596D01*
X163659051Y-92762418D01*
X163719680Y-92853155D01*
X163796845Y-92930320D01*
X163887582Y-92990949D01*
X163988404Y-93032711D01*
X164095436Y-93054000D01*
X164204564Y-93054000D01*
X164311596Y-93032711D01*
X164412418Y-92990949D01*
X164503155Y-92930320D01*
X164580320Y-92853155D01*
X164640949Y-92762418D01*
X164682711Y-92661596D01*
X164704000Y-92554564D01*
X164704000Y-92445436D01*
X164682711Y-92338404D01*
X164640949Y-92237582D01*
X164580320Y-92146845D01*
X164503155Y-92069680D01*
X164412418Y-92009051D01*
X164311596Y-91967289D01*
X164204564Y-91946000D01*
X164095436Y-91946000D01*
X163988404Y-91967289D01*
X163887582Y-92009051D01*
X163796845Y-92069680D01*
X163719680Y-92146845D01*
X163659051Y-92237582D01*
X163617289Y-92338404D01*
X163596000Y-92445436D01*
X145679000Y-92445436D01*
X145679000Y-90545436D01*
X147246000Y-90545436D01*
X147246000Y-90654564D01*
X147267289Y-90761596D01*
X147309051Y-90862418D01*
X147369680Y-90953155D01*
X147446845Y-91030320D01*
X147537582Y-91090949D01*
X147638404Y-91132711D01*
X147745436Y-91154000D01*
X147854564Y-91154000D01*
X147961596Y-91132711D01*
X148062418Y-91090949D01*
X148153155Y-91030320D01*
X148230320Y-90953155D01*
X148235477Y-90945436D01*
X163596000Y-90945436D01*
X163596000Y-91054564D01*
X163617289Y-91161596D01*
X163659051Y-91262418D01*
X163719680Y-91353155D01*
X163796845Y-91430320D01*
X163887582Y-91490949D01*
X163988404Y-91532711D01*
X164095436Y-91554000D01*
X164204564Y-91554000D01*
X164311596Y-91532711D01*
X164412418Y-91490949D01*
X164503155Y-91430320D01*
X164580320Y-91353155D01*
X164640949Y-91262418D01*
X164682711Y-91161596D01*
X164704000Y-91054564D01*
X164704000Y-90945436D01*
X164682711Y-90838404D01*
X164640949Y-90737582D01*
X164580320Y-90646845D01*
X164503155Y-90569680D01*
X164412418Y-90509051D01*
X164311596Y-90467289D01*
X164204564Y-90446000D01*
X164095436Y-90446000D01*
X163988404Y-90467289D01*
X163887582Y-90509051D01*
X163796845Y-90569680D01*
X163719680Y-90646845D01*
X163659051Y-90737582D01*
X163617289Y-90838404D01*
X163596000Y-90945436D01*
X148235477Y-90945436D01*
X148290949Y-90862418D01*
X148332711Y-90761596D01*
X148354000Y-90654564D01*
X148354000Y-90545436D01*
X148332711Y-90438404D01*
X148316789Y-90399964D01*
X167396000Y-90399964D01*
X167396000Y-90578036D01*
X167430740Y-90752687D01*
X167498886Y-90917205D01*
X167597817Y-91065266D01*
X167723734Y-91191183D01*
X167871795Y-91290114D01*
X168036313Y-91358260D01*
X168210964Y-91393000D01*
X168389036Y-91393000D01*
X168563687Y-91358260D01*
X168728205Y-91290114D01*
X168876266Y-91191183D01*
X169002183Y-91065266D01*
X169101114Y-90917205D01*
X169169260Y-90752687D01*
X169204000Y-90578036D01*
X169204000Y-90399964D01*
X169169260Y-90225313D01*
X169101114Y-90060795D01*
X169002183Y-89912734D01*
X168876266Y-89786817D01*
X168728205Y-89687886D01*
X168563687Y-89619740D01*
X168389036Y-89585000D01*
X168210964Y-89585000D01*
X168036313Y-89619740D01*
X167871795Y-89687886D01*
X167723734Y-89786817D01*
X167597817Y-89912734D01*
X167498886Y-90060795D01*
X167430740Y-90225313D01*
X167396000Y-90399964D01*
X148316789Y-90399964D01*
X148290949Y-90337582D01*
X148230320Y-90246845D01*
X148153155Y-90169680D01*
X148062418Y-90109051D01*
X147961596Y-90067289D01*
X147854564Y-90046000D01*
X147745436Y-90046000D01*
X147638404Y-90067289D01*
X147537582Y-90109051D01*
X147446845Y-90169680D01*
X147369680Y-90246845D01*
X147309051Y-90337582D01*
X147267289Y-90438404D01*
X147246000Y-90545436D01*
X145679000Y-90545436D01*
X145679000Y-89695436D01*
X155680997Y-89695436D01*
X155680997Y-89804564D01*
X155702286Y-89911596D01*
X155744048Y-90012418D01*
X155804677Y-90103155D01*
X155881842Y-90180320D01*
X155972579Y-90240949D01*
X156073401Y-90282711D01*
X156180433Y-90304000D01*
X156289561Y-90304000D01*
X156396593Y-90282711D01*
X156497415Y-90240949D01*
X156579999Y-90185768D01*
X156662582Y-90240949D01*
X156763404Y-90282711D01*
X156870436Y-90304000D01*
X156979564Y-90304000D01*
X157086596Y-90282711D01*
X157187418Y-90240949D01*
X157270002Y-90185768D01*
X157352585Y-90240949D01*
X157453407Y-90282711D01*
X157560439Y-90304000D01*
X157669567Y-90304000D01*
X157776599Y-90282711D01*
X157877421Y-90240949D01*
X157968158Y-90180320D01*
X158045323Y-90103155D01*
X158105952Y-90012418D01*
X158147714Y-89911596D01*
X158169003Y-89804564D01*
X158169003Y-89695436D01*
X158147714Y-89588404D01*
X158105952Y-89487582D01*
X158045323Y-89396845D01*
X157968158Y-89319680D01*
X157877421Y-89259051D01*
X157776599Y-89217289D01*
X157669567Y-89196000D01*
X157560439Y-89196000D01*
X157453407Y-89217289D01*
X157352585Y-89259051D01*
X157270002Y-89314232D01*
X157187418Y-89259051D01*
X157086596Y-89217289D01*
X156979564Y-89196000D01*
X156870436Y-89196000D01*
X156763404Y-89217289D01*
X156662582Y-89259051D01*
X156579999Y-89314232D01*
X156497415Y-89259051D01*
X156396593Y-89217289D01*
X156289561Y-89196000D01*
X156180433Y-89196000D01*
X156073401Y-89217289D01*
X155972579Y-89259051D01*
X155881842Y-89319680D01*
X155804677Y-89396845D01*
X155744048Y-89487582D01*
X155702286Y-89588404D01*
X155680997Y-89695436D01*
X145679000Y-89695436D01*
X145679000Y-87045436D01*
X146296000Y-87045436D01*
X146296000Y-87154564D01*
X146317289Y-87261596D01*
X146359051Y-87362418D01*
X146419680Y-87453155D01*
X146496845Y-87530320D01*
X146587582Y-87590949D01*
X146688404Y-87632711D01*
X146795436Y-87654000D01*
X146904564Y-87654000D01*
X147011596Y-87632711D01*
X147112418Y-87590949D01*
X147203155Y-87530320D01*
X147280320Y-87453155D01*
X147340949Y-87362418D01*
X147382711Y-87261596D01*
X147404000Y-87154564D01*
X147404000Y-87045436D01*
X147382711Y-86938404D01*
X147364914Y-86895436D01*
X164146000Y-86895436D01*
X164146000Y-87004564D01*
X164167289Y-87111596D01*
X164209051Y-87212418D01*
X164269680Y-87303155D01*
X164346845Y-87380320D01*
X164437582Y-87440949D01*
X164538404Y-87482711D01*
X164645436Y-87504000D01*
X164754564Y-87504000D01*
X164861596Y-87482711D01*
X164962418Y-87440949D01*
X165053155Y-87380320D01*
X165130320Y-87303155D01*
X165190949Y-87212418D01*
X165232711Y-87111596D01*
X165254000Y-87004564D01*
X165254000Y-86895436D01*
X167296000Y-86895436D01*
X167296000Y-87004564D01*
X167317289Y-87111596D01*
X167359051Y-87212418D01*
X167419680Y-87303155D01*
X167496845Y-87380320D01*
X167587582Y-87440949D01*
X167688404Y-87482711D01*
X167795436Y-87504000D01*
X167904564Y-87504000D01*
X168011596Y-87482711D01*
X168112418Y-87440949D01*
X168203155Y-87380320D01*
X168280320Y-87303155D01*
X168340949Y-87212418D01*
X168382711Y-87111596D01*
X168404000Y-87004564D01*
X168404000Y-86895436D01*
X168382711Y-86788404D01*
X168340949Y-86687582D01*
X168280320Y-86596845D01*
X168203155Y-86519680D01*
X168112418Y-86459051D01*
X168011596Y-86417289D01*
X167904564Y-86396000D01*
X167795436Y-86396000D01*
X167688404Y-86417289D01*
X167587582Y-86459051D01*
X167496845Y-86519680D01*
X167419680Y-86596845D01*
X167359051Y-86687582D01*
X167317289Y-86788404D01*
X167296000Y-86895436D01*
X165254000Y-86895436D01*
X165232711Y-86788404D01*
X165190949Y-86687582D01*
X165130320Y-86596845D01*
X165053155Y-86519680D01*
X164962418Y-86459051D01*
X164861596Y-86417289D01*
X164754564Y-86396000D01*
X164645436Y-86396000D01*
X164538404Y-86417289D01*
X164437582Y-86459051D01*
X164346845Y-86519680D01*
X164269680Y-86596845D01*
X164209051Y-86687582D01*
X164167289Y-86788404D01*
X164146000Y-86895436D01*
X147364914Y-86895436D01*
X147340949Y-86837582D01*
X147280320Y-86746845D01*
X147203155Y-86669680D01*
X147112418Y-86609051D01*
X147011596Y-86567289D01*
X146904564Y-86546000D01*
X146795436Y-86546000D01*
X146688404Y-86567289D01*
X146587582Y-86609051D01*
X146496845Y-86669680D01*
X146419680Y-86746845D01*
X146359051Y-86837582D01*
X146317289Y-86938404D01*
X146296000Y-87045436D01*
X145679000Y-87045436D01*
X145679000Y-85329000D01*
X173221001Y-85329000D01*
X173221000Y-104646000D01*
G04 #@! TA.AperFunction,Conductor*
D13*
G36*
X173221000Y-104646000D02*
G01*
X145679000Y-104646000D01*
X145679000Y-102845436D01*
X146296000Y-102845436D01*
X146296000Y-102954564D01*
X146317289Y-103061596D01*
X146359051Y-103162418D01*
X146419680Y-103253155D01*
X146496845Y-103330320D01*
X146587582Y-103390949D01*
X146688404Y-103432711D01*
X146795436Y-103454000D01*
X146904564Y-103454000D01*
X147011596Y-103432711D01*
X147112418Y-103390949D01*
X147203155Y-103330320D01*
X147280320Y-103253155D01*
X147340949Y-103162418D01*
X147382711Y-103061596D01*
X147390245Y-103023720D01*
X147396845Y-103030320D01*
X147487582Y-103090949D01*
X147588404Y-103132711D01*
X147695436Y-103154000D01*
X147804564Y-103154000D01*
X147911596Y-103132711D01*
X148012418Y-103090949D01*
X148103155Y-103030320D01*
X148138039Y-102995436D01*
X164146000Y-102995436D01*
X164146000Y-103104564D01*
X164167289Y-103211596D01*
X164209051Y-103312418D01*
X164269680Y-103403155D01*
X164346845Y-103480320D01*
X164437582Y-103540949D01*
X164538404Y-103582711D01*
X164645436Y-103604000D01*
X164754564Y-103604000D01*
X164861596Y-103582711D01*
X164962418Y-103540949D01*
X165053155Y-103480320D01*
X165130320Y-103403155D01*
X165190949Y-103312418D01*
X165232711Y-103211596D01*
X165254000Y-103104564D01*
X165254000Y-102995436D01*
X167296000Y-102995436D01*
X167296000Y-103104564D01*
X167317289Y-103211596D01*
X167359051Y-103312418D01*
X167419680Y-103403155D01*
X167496845Y-103480320D01*
X167587582Y-103540949D01*
X167688404Y-103582711D01*
X167795436Y-103604000D01*
X167904564Y-103604000D01*
X168011596Y-103582711D01*
X168112418Y-103540949D01*
X168203155Y-103480320D01*
X168280320Y-103403155D01*
X168340949Y-103312418D01*
X168382711Y-103211596D01*
X168404000Y-103104564D01*
X168404000Y-102995436D01*
X168382711Y-102888404D01*
X168340949Y-102787582D01*
X168280320Y-102696845D01*
X168203155Y-102619680D01*
X168112418Y-102559051D01*
X168011596Y-102517289D01*
X167904564Y-102496000D01*
X167795436Y-102496000D01*
X167688404Y-102517289D01*
X167587582Y-102559051D01*
X167496845Y-102619680D01*
X167419680Y-102696845D01*
X167359051Y-102787582D01*
X167317289Y-102888404D01*
X167296000Y-102995436D01*
X165254000Y-102995436D01*
X165232711Y-102888404D01*
X165190949Y-102787582D01*
X165130320Y-102696845D01*
X165053155Y-102619680D01*
X164962418Y-102559051D01*
X164861596Y-102517289D01*
X164754564Y-102496000D01*
X164645436Y-102496000D01*
X164538404Y-102517289D01*
X164437582Y-102559051D01*
X164346845Y-102619680D01*
X164269680Y-102696845D01*
X164209051Y-102787582D01*
X164167289Y-102888404D01*
X164146000Y-102995436D01*
X148138039Y-102995436D01*
X148180320Y-102953155D01*
X148240949Y-102862418D01*
X148282711Y-102761596D01*
X148304000Y-102654564D01*
X148304000Y-102545436D01*
X148282711Y-102438404D01*
X148240949Y-102337582D01*
X148180320Y-102246845D01*
X148103155Y-102169680D01*
X148012418Y-102109051D01*
X147911596Y-102067289D01*
X147804564Y-102046000D01*
X147695436Y-102046000D01*
X147588404Y-102067289D01*
X147487582Y-102109051D01*
X147396845Y-102169680D01*
X147319680Y-102246845D01*
X147259051Y-102337582D01*
X147217289Y-102438404D01*
X147209755Y-102476280D01*
X147203155Y-102469680D01*
X147112418Y-102409051D01*
X147011596Y-102367289D01*
X146904564Y-102346000D01*
X146795436Y-102346000D01*
X146688404Y-102367289D01*
X146587582Y-102409051D01*
X146496845Y-102469680D01*
X146419680Y-102546845D01*
X146359051Y-102637582D01*
X146317289Y-102738404D01*
X146296000Y-102845436D01*
X145679000Y-102845436D01*
X145679000Y-100145436D01*
X147196000Y-100145436D01*
X147196000Y-100254564D01*
X147217289Y-100361596D01*
X147259051Y-100462418D01*
X147319680Y-100553155D01*
X147396845Y-100630320D01*
X147487582Y-100690949D01*
X147588404Y-100732711D01*
X147695436Y-100754000D01*
X147804564Y-100754000D01*
X147911596Y-100732711D01*
X148012418Y-100690949D01*
X148103155Y-100630320D01*
X148180320Y-100553155D01*
X148240949Y-100462418D01*
X148282711Y-100361596D01*
X148304000Y-100254564D01*
X148304000Y-100145436D01*
X148282711Y-100038404D01*
X148240949Y-99937582D01*
X148180320Y-99846845D01*
X148103155Y-99769680D01*
X148012418Y-99709051D01*
X147911596Y-99667289D01*
X147804564Y-99646000D01*
X147695436Y-99646000D01*
X147588404Y-99667289D01*
X147487582Y-99709051D01*
X147396845Y-99769680D01*
X147319680Y-99846845D01*
X147259051Y-99937582D01*
X147217289Y-100038404D01*
X147196000Y-100145436D01*
X145679000Y-100145436D01*
X145679000Y-99399964D01*
X167396000Y-99399964D01*
X167396000Y-99578036D01*
X167430740Y-99752687D01*
X167498886Y-99917205D01*
X167597817Y-100065266D01*
X167723734Y-100191183D01*
X167871795Y-100290114D01*
X168036313Y-100358260D01*
X168210964Y-100393000D01*
X168389036Y-100393000D01*
X168563687Y-100358260D01*
X168728205Y-100290114D01*
X168876266Y-100191183D01*
X169002183Y-100065266D01*
X169101114Y-99917205D01*
X169169260Y-99752687D01*
X169204000Y-99578036D01*
X169204000Y-99399964D01*
X169169260Y-99225313D01*
X169101114Y-99060795D01*
X169002183Y-98912734D01*
X168876266Y-98786817D01*
X168728205Y-98687886D01*
X168563687Y-98619740D01*
X168389036Y-98585000D01*
X168210964Y-98585000D01*
X168036313Y-98619740D01*
X167871795Y-98687886D01*
X167723734Y-98786817D01*
X167597817Y-98912734D01*
X167498886Y-99060795D01*
X167430740Y-99225313D01*
X167396000Y-99399964D01*
X145679000Y-99399964D01*
X145679000Y-98445436D01*
X163596000Y-98445436D01*
X163596000Y-98554564D01*
X163617289Y-98661596D01*
X163659051Y-98762418D01*
X163719680Y-98853155D01*
X163796845Y-98930320D01*
X163887582Y-98990949D01*
X163988404Y-99032711D01*
X164095436Y-99054000D01*
X164204564Y-99054000D01*
X164311596Y-99032711D01*
X164412418Y-98990949D01*
X164503155Y-98930320D01*
X164580320Y-98853155D01*
X164640949Y-98762418D01*
X164682711Y-98661596D01*
X164704000Y-98554564D01*
X164704000Y-98445436D01*
X164682711Y-98338404D01*
X164640949Y-98237582D01*
X164580320Y-98146845D01*
X164503155Y-98069680D01*
X164412418Y-98009051D01*
X164311596Y-97967289D01*
X164204564Y-97946000D01*
X164095436Y-97946000D01*
X163988404Y-97967289D01*
X163887582Y-98009051D01*
X163796845Y-98069680D01*
X163719680Y-98146845D01*
X163659051Y-98237582D01*
X163617289Y-98338404D01*
X163596000Y-98445436D01*
X145679000Y-98445436D01*
X145679000Y-97745436D01*
X147196000Y-97745436D01*
X147196000Y-97854564D01*
X147217289Y-97961596D01*
X147259051Y-98062418D01*
X147319680Y-98153155D01*
X147396845Y-98230320D01*
X147487582Y-98290949D01*
X147588404Y-98332711D01*
X147695436Y-98354000D01*
X147804564Y-98354000D01*
X147911596Y-98332711D01*
X148012418Y-98290949D01*
X148103155Y-98230320D01*
X148180320Y-98153155D01*
X148240949Y-98062418D01*
X148282711Y-97961596D01*
X148304000Y-97854564D01*
X148304000Y-97745436D01*
X148282711Y-97638404D01*
X148240949Y-97537582D01*
X148180320Y-97446845D01*
X148103155Y-97369680D01*
X148012418Y-97309051D01*
X147911596Y-97267289D01*
X147804564Y-97246000D01*
X147695436Y-97246000D01*
X147588404Y-97267289D01*
X147487582Y-97309051D01*
X147396845Y-97369680D01*
X147319680Y-97446845D01*
X147259051Y-97537582D01*
X147217289Y-97638404D01*
X147196000Y-97745436D01*
X145679000Y-97745436D01*
X145679000Y-95345436D01*
X147196000Y-95345436D01*
X147196000Y-95454564D01*
X147217289Y-95561596D01*
X147259051Y-95662418D01*
X147319680Y-95753155D01*
X147396845Y-95830320D01*
X147487582Y-95890949D01*
X147588404Y-95932711D01*
X147695436Y-95954000D01*
X147804564Y-95954000D01*
X147911596Y-95932711D01*
X148012418Y-95890949D01*
X148103155Y-95830320D01*
X148180320Y-95753155D01*
X148240949Y-95662418D01*
X148282711Y-95561596D01*
X148304000Y-95454564D01*
X148304000Y-95445436D01*
X163596000Y-95445436D01*
X163596000Y-95554564D01*
X163617289Y-95661596D01*
X163659051Y-95762418D01*
X163719680Y-95853155D01*
X163796845Y-95930320D01*
X163887582Y-95990949D01*
X163988404Y-96032711D01*
X164095436Y-96054000D01*
X164204564Y-96054000D01*
X164311596Y-96032711D01*
X164412418Y-95990949D01*
X164503155Y-95930320D01*
X164580320Y-95853155D01*
X164640949Y-95762418D01*
X164682711Y-95661596D01*
X164704000Y-95554564D01*
X164704000Y-95445436D01*
X164682711Y-95338404D01*
X164640949Y-95237582D01*
X164580320Y-95146845D01*
X164503155Y-95069680D01*
X164412418Y-95009051D01*
X164311596Y-94967289D01*
X164204564Y-94946000D01*
X164095436Y-94946000D01*
X163988404Y-94967289D01*
X163887582Y-95009051D01*
X163796845Y-95069680D01*
X163719680Y-95146845D01*
X163659051Y-95237582D01*
X163617289Y-95338404D01*
X163596000Y-95445436D01*
X148304000Y-95445436D01*
X148304000Y-95345436D01*
X148282711Y-95238404D01*
X148240949Y-95137582D01*
X148180320Y-95046845D01*
X148103155Y-94969680D01*
X148012418Y-94909051D01*
X147911596Y-94867289D01*
X147804564Y-94846000D01*
X147695436Y-94846000D01*
X147588404Y-94867289D01*
X147487582Y-94909051D01*
X147396845Y-94969680D01*
X147319680Y-95046845D01*
X147259051Y-95137582D01*
X147217289Y-95238404D01*
X147196000Y-95345436D01*
X145679000Y-95345436D01*
X145679000Y-93945436D01*
X163596000Y-93945436D01*
X163596000Y-94054564D01*
X163617289Y-94161596D01*
X163659051Y-94262418D01*
X163719680Y-94353155D01*
X163796845Y-94430320D01*
X163887582Y-94490949D01*
X163988404Y-94532711D01*
X164095436Y-94554000D01*
X164204564Y-94554000D01*
X164311596Y-94532711D01*
X164412418Y-94490949D01*
X164503155Y-94430320D01*
X164580320Y-94353155D01*
X164640949Y-94262418D01*
X164682711Y-94161596D01*
X164704000Y-94054564D01*
X164704000Y-93945436D01*
X164682711Y-93838404D01*
X164640949Y-93737582D01*
X164580320Y-93646845D01*
X164503155Y-93569680D01*
X164412418Y-93509051D01*
X164311596Y-93467289D01*
X164204564Y-93446000D01*
X164095436Y-93446000D01*
X163988404Y-93467289D01*
X163887582Y-93509051D01*
X163796845Y-93569680D01*
X163719680Y-93646845D01*
X163659051Y-93737582D01*
X163617289Y-93838404D01*
X163596000Y-93945436D01*
X145679000Y-93945436D01*
X145679000Y-92945436D01*
X147246000Y-92945436D01*
X147246000Y-93054564D01*
X147267289Y-93161596D01*
X147309051Y-93262418D01*
X147369680Y-93353155D01*
X147446845Y-93430320D01*
X147537582Y-93490949D01*
X147638404Y-93532711D01*
X147745436Y-93554000D01*
X147854564Y-93554000D01*
X147961596Y-93532711D01*
X148062418Y-93490949D01*
X148153155Y-93430320D01*
X148230320Y-93353155D01*
X148290949Y-93262418D01*
X148332711Y-93161596D01*
X148354000Y-93054564D01*
X148354000Y-92995436D01*
X155546000Y-92995436D01*
X155546000Y-93104564D01*
X155567289Y-93211596D01*
X155609051Y-93312418D01*
X155669680Y-93403155D01*
X155746845Y-93480320D01*
X155837582Y-93540949D01*
X155938404Y-93582711D01*
X156045436Y-93604000D01*
X156154564Y-93604000D01*
X156261596Y-93582711D01*
X156362418Y-93540949D01*
X156453155Y-93480320D01*
X156530320Y-93403155D01*
X156590949Y-93312418D01*
X156632711Y-93211596D01*
X156654000Y-93104564D01*
X156654000Y-92995436D01*
X156632711Y-92888404D01*
X156590949Y-92787582D01*
X156530320Y-92696845D01*
X156453155Y-92619680D01*
X156362418Y-92559051D01*
X156261596Y-92517289D01*
X156154564Y-92496000D01*
X156045436Y-92496000D01*
X155938404Y-92517289D01*
X155837582Y-92559051D01*
X155746845Y-92619680D01*
X155669680Y-92696845D01*
X155609051Y-92787582D01*
X155567289Y-92888404D01*
X155546000Y-92995436D01*
X148354000Y-92995436D01*
X148354000Y-92945436D01*
X148332711Y-92838404D01*
X148290949Y-92737582D01*
X148230320Y-92646845D01*
X148153155Y-92569680D01*
X148062418Y-92509051D01*
X147961596Y-92467289D01*
X147854564Y-92446000D01*
X147745436Y-92446000D01*
X147638404Y-92467289D01*
X147537582Y-92509051D01*
X147446845Y-92569680D01*
X147369680Y-92646845D01*
X147309051Y-92737582D01*
X147267289Y-92838404D01*
X147246000Y-92945436D01*
X145679000Y-92945436D01*
X145679000Y-92445436D01*
X163596000Y-92445436D01*
X163596000Y-92554564D01*
X163617289Y-92661596D01*
X163659051Y-92762418D01*
X163719680Y-92853155D01*
X163796845Y-92930320D01*
X163887582Y-92990949D01*
X163988404Y-93032711D01*
X164095436Y-93054000D01*
X164204564Y-93054000D01*
X164311596Y-93032711D01*
X164412418Y-92990949D01*
X164503155Y-92930320D01*
X164580320Y-92853155D01*
X164640949Y-92762418D01*
X164682711Y-92661596D01*
X164704000Y-92554564D01*
X164704000Y-92445436D01*
X164682711Y-92338404D01*
X164640949Y-92237582D01*
X164580320Y-92146845D01*
X164503155Y-92069680D01*
X164412418Y-92009051D01*
X164311596Y-91967289D01*
X164204564Y-91946000D01*
X164095436Y-91946000D01*
X163988404Y-91967289D01*
X163887582Y-92009051D01*
X163796845Y-92069680D01*
X163719680Y-92146845D01*
X163659051Y-92237582D01*
X163617289Y-92338404D01*
X163596000Y-92445436D01*
X145679000Y-92445436D01*
X145679000Y-90545436D01*
X147246000Y-90545436D01*
X147246000Y-90654564D01*
X147267289Y-90761596D01*
X147309051Y-90862418D01*
X147369680Y-90953155D01*
X147446845Y-91030320D01*
X147537582Y-91090949D01*
X147638404Y-91132711D01*
X147745436Y-91154000D01*
X147854564Y-91154000D01*
X147961596Y-91132711D01*
X148062418Y-91090949D01*
X148153155Y-91030320D01*
X148230320Y-90953155D01*
X148235477Y-90945436D01*
X163596000Y-90945436D01*
X163596000Y-91054564D01*
X163617289Y-91161596D01*
X163659051Y-91262418D01*
X163719680Y-91353155D01*
X163796845Y-91430320D01*
X163887582Y-91490949D01*
X163988404Y-91532711D01*
X164095436Y-91554000D01*
X164204564Y-91554000D01*
X164311596Y-91532711D01*
X164412418Y-91490949D01*
X164503155Y-91430320D01*
X164580320Y-91353155D01*
X164640949Y-91262418D01*
X164682711Y-91161596D01*
X164704000Y-91054564D01*
X164704000Y-90945436D01*
X164682711Y-90838404D01*
X164640949Y-90737582D01*
X164580320Y-90646845D01*
X164503155Y-90569680D01*
X164412418Y-90509051D01*
X164311596Y-90467289D01*
X164204564Y-90446000D01*
X164095436Y-90446000D01*
X163988404Y-90467289D01*
X163887582Y-90509051D01*
X163796845Y-90569680D01*
X163719680Y-90646845D01*
X163659051Y-90737582D01*
X163617289Y-90838404D01*
X163596000Y-90945436D01*
X148235477Y-90945436D01*
X148290949Y-90862418D01*
X148332711Y-90761596D01*
X148354000Y-90654564D01*
X148354000Y-90545436D01*
X148332711Y-90438404D01*
X148316789Y-90399964D01*
X167396000Y-90399964D01*
X167396000Y-90578036D01*
X167430740Y-90752687D01*
X167498886Y-90917205D01*
X167597817Y-91065266D01*
X167723734Y-91191183D01*
X167871795Y-91290114D01*
X168036313Y-91358260D01*
X168210964Y-91393000D01*
X168389036Y-91393000D01*
X168563687Y-91358260D01*
X168728205Y-91290114D01*
X168876266Y-91191183D01*
X169002183Y-91065266D01*
X169101114Y-90917205D01*
X169169260Y-90752687D01*
X169204000Y-90578036D01*
X169204000Y-90399964D01*
X169169260Y-90225313D01*
X169101114Y-90060795D01*
X169002183Y-89912734D01*
X168876266Y-89786817D01*
X168728205Y-89687886D01*
X168563687Y-89619740D01*
X168389036Y-89585000D01*
X168210964Y-89585000D01*
X168036313Y-89619740D01*
X167871795Y-89687886D01*
X167723734Y-89786817D01*
X167597817Y-89912734D01*
X167498886Y-90060795D01*
X167430740Y-90225313D01*
X167396000Y-90399964D01*
X148316789Y-90399964D01*
X148290949Y-90337582D01*
X148230320Y-90246845D01*
X148153155Y-90169680D01*
X148062418Y-90109051D01*
X147961596Y-90067289D01*
X147854564Y-90046000D01*
X147745436Y-90046000D01*
X147638404Y-90067289D01*
X147537582Y-90109051D01*
X147446845Y-90169680D01*
X147369680Y-90246845D01*
X147309051Y-90337582D01*
X147267289Y-90438404D01*
X147246000Y-90545436D01*
X145679000Y-90545436D01*
X145679000Y-89695436D01*
X155680997Y-89695436D01*
X155680997Y-89804564D01*
X155702286Y-89911596D01*
X155744048Y-90012418D01*
X155804677Y-90103155D01*
X155881842Y-90180320D01*
X155972579Y-90240949D01*
X156073401Y-90282711D01*
X156180433Y-90304000D01*
X156289561Y-90304000D01*
X156396593Y-90282711D01*
X156497415Y-90240949D01*
X156579999Y-90185768D01*
X156662582Y-90240949D01*
X156763404Y-90282711D01*
X156870436Y-90304000D01*
X156979564Y-90304000D01*
X157086596Y-90282711D01*
X157187418Y-90240949D01*
X157270002Y-90185768D01*
X157352585Y-90240949D01*
X157453407Y-90282711D01*
X157560439Y-90304000D01*
X157669567Y-90304000D01*
X157776599Y-90282711D01*
X157877421Y-90240949D01*
X157968158Y-90180320D01*
X158045323Y-90103155D01*
X158105952Y-90012418D01*
X158147714Y-89911596D01*
X158169003Y-89804564D01*
X158169003Y-89695436D01*
X158147714Y-89588404D01*
X158105952Y-89487582D01*
X158045323Y-89396845D01*
X157968158Y-89319680D01*
X157877421Y-89259051D01*
X157776599Y-89217289D01*
X157669567Y-89196000D01*
X157560439Y-89196000D01*
X157453407Y-89217289D01*
X157352585Y-89259051D01*
X157270002Y-89314232D01*
X157187418Y-89259051D01*
X157086596Y-89217289D01*
X156979564Y-89196000D01*
X156870436Y-89196000D01*
X156763404Y-89217289D01*
X156662582Y-89259051D01*
X156579999Y-89314232D01*
X156497415Y-89259051D01*
X156396593Y-89217289D01*
X156289561Y-89196000D01*
X156180433Y-89196000D01*
X156073401Y-89217289D01*
X155972579Y-89259051D01*
X155881842Y-89319680D01*
X155804677Y-89396845D01*
X155744048Y-89487582D01*
X155702286Y-89588404D01*
X155680997Y-89695436D01*
X145679000Y-89695436D01*
X145679000Y-87045436D01*
X146296000Y-87045436D01*
X146296000Y-87154564D01*
X146317289Y-87261596D01*
X146359051Y-87362418D01*
X146419680Y-87453155D01*
X146496845Y-87530320D01*
X146587582Y-87590949D01*
X146688404Y-87632711D01*
X146795436Y-87654000D01*
X146904564Y-87654000D01*
X147011596Y-87632711D01*
X147112418Y-87590949D01*
X147203155Y-87530320D01*
X147280320Y-87453155D01*
X147340949Y-87362418D01*
X147382711Y-87261596D01*
X147404000Y-87154564D01*
X147404000Y-87045436D01*
X147382711Y-86938404D01*
X147364914Y-86895436D01*
X164146000Y-86895436D01*
X164146000Y-87004564D01*
X164167289Y-87111596D01*
X164209051Y-87212418D01*
X164269680Y-87303155D01*
X164346845Y-87380320D01*
X164437582Y-87440949D01*
X164538404Y-87482711D01*
X164645436Y-87504000D01*
X164754564Y-87504000D01*
X164861596Y-87482711D01*
X164962418Y-87440949D01*
X165053155Y-87380320D01*
X165130320Y-87303155D01*
X165190949Y-87212418D01*
X165232711Y-87111596D01*
X165254000Y-87004564D01*
X165254000Y-86895436D01*
X167296000Y-86895436D01*
X167296000Y-87004564D01*
X167317289Y-87111596D01*
X167359051Y-87212418D01*
X167419680Y-87303155D01*
X167496845Y-87380320D01*
X167587582Y-87440949D01*
X167688404Y-87482711D01*
X167795436Y-87504000D01*
X167904564Y-87504000D01*
X168011596Y-87482711D01*
X168112418Y-87440949D01*
X168203155Y-87380320D01*
X168280320Y-87303155D01*
X168340949Y-87212418D01*
X168382711Y-87111596D01*
X168404000Y-87004564D01*
X168404000Y-86895436D01*
X168382711Y-86788404D01*
X168340949Y-86687582D01*
X168280320Y-86596845D01*
X168203155Y-86519680D01*
X168112418Y-86459051D01*
X168011596Y-86417289D01*
X167904564Y-86396000D01*
X167795436Y-86396000D01*
X167688404Y-86417289D01*
X167587582Y-86459051D01*
X167496845Y-86519680D01*
X167419680Y-86596845D01*
X167359051Y-86687582D01*
X167317289Y-86788404D01*
X167296000Y-86895436D01*
X165254000Y-86895436D01*
X165232711Y-86788404D01*
X165190949Y-86687582D01*
X165130320Y-86596845D01*
X165053155Y-86519680D01*
X164962418Y-86459051D01*
X164861596Y-86417289D01*
X164754564Y-86396000D01*
X164645436Y-86396000D01*
X164538404Y-86417289D01*
X164437582Y-86459051D01*
X164346845Y-86519680D01*
X164269680Y-86596845D01*
X164209051Y-86687582D01*
X164167289Y-86788404D01*
X164146000Y-86895436D01*
X147364914Y-86895436D01*
X147340949Y-86837582D01*
X147280320Y-86746845D01*
X147203155Y-86669680D01*
X147112418Y-86609051D01*
X147011596Y-86567289D01*
X146904564Y-86546000D01*
X146795436Y-86546000D01*
X146688404Y-86567289D01*
X146587582Y-86609051D01*
X146496845Y-86669680D01*
X146419680Y-86746845D01*
X146359051Y-86837582D01*
X146317289Y-86938404D01*
X146296000Y-87045436D01*
X145679000Y-87045436D01*
X145679000Y-85329000D01*
X173221001Y-85329000D01*
X173221000Y-104646000D01*
G37*
G04 #@! TD.AperFunction*
M02*
