G04 #@! TF.GenerationSoftware,KiCad,Pcbnew,5.1.10*
G04 #@! TF.CreationDate,2021-09-12T21:14:18-07:00*
G04 #@! TF.ProjectId,ACORN-CLE-DVI,41434f52-4e2d-4434-9c45-2d4456492e6b,rev?*
G04 #@! TF.SameCoordinates,Original*
G04 #@! TF.FileFunction,Copper,L1,Top*
G04 #@! TF.FilePolarity,Positive*
%FSLAX46Y46*%
G04 Gerber Fmt 4.6, Leading zero omitted, Abs format (unit mm)*
G04 Created by KiCad (PCBNEW 5.1.10) date 2021-09-12 21:14:18*
%MOMM*%
%LPD*%
G01*
G04 APERTURE LIST*
G04 #@! TA.AperFunction,SMDPad,CuDef*
%ADD10R,1.200000X3.200000*%
G04 #@! TD*
G04 #@! TA.AperFunction,SMDPad,CuDef*
%ADD11O,0.590000X0.220000*%
G04 #@! TD*
G04 #@! TA.AperFunction,SMDPad,CuDef*
%ADD12O,0.220000X0.590000*%
G04 #@! TD*
G04 #@! TA.AperFunction,SMDPad,CuDef*
%ADD13R,0.650000X1.060000*%
G04 #@! TD*
G04 #@! TA.AperFunction,ComponentPad*
%ADD14C,1.300000*%
G04 #@! TD*
G04 #@! TA.AperFunction,SMDPad,CuDef*
%ADD15R,1.400000X1.300000*%
G04 #@! TD*
G04 #@! TA.AperFunction,SMDPad,CuDef*
%ADD16R,2.200000X1.300000*%
G04 #@! TD*
G04 #@! TA.AperFunction,SMDPad,CuDef*
%ADD17R,2.600000X0.280000*%
G04 #@! TD*
G04 #@! TA.AperFunction,ViaPad*
%ADD18C,0.600000*%
G04 #@! TD*
G04 #@! TA.AperFunction,Conductor*
%ADD19C,0.152400*%
G04 #@! TD*
G04 #@! TA.AperFunction,Conductor*
%ADD20C,0.250000*%
G04 #@! TD*
G04 #@! TA.AperFunction,Conductor*
%ADD21C,0.125984*%
G04 #@! TD*
G04 #@! TA.AperFunction,Conductor*
%ADD22C,0.127000*%
G04 #@! TD*
G04 APERTURE END LIST*
D10*
X150450000Y-101500000D03*
D11*
X151695000Y-99700000D03*
G04 #@! TA.AperFunction,SMDPad,CuDef*
G36*
G01*
X151400000Y-100203400D02*
X151400000Y-99996600D01*
G75*
G02*
X151406600Y-99990000I6600J0D01*
G01*
X151983400Y-99990000D01*
G75*
G02*
X151990000Y-99996600I0J-6600D01*
G01*
X151990000Y-100203400D01*
G75*
G02*
X151983400Y-100210000I-6600J0D01*
G01*
X151406600Y-100210000D01*
G75*
G02*
X151400000Y-100203400I0J6600D01*
G01*
G37*
G04 #@! TD.AperFunction*
G04 #@! TA.AperFunction,SMDPad,CuDef*
G36*
G01*
X151400000Y-100603400D02*
X151400000Y-100396600D01*
G75*
G02*
X151406600Y-100390000I6600J0D01*
G01*
X151983400Y-100390000D01*
G75*
G02*
X151990000Y-100396600I0J-6600D01*
G01*
X151990000Y-100603400D01*
G75*
G02*
X151983400Y-100610000I-6600J0D01*
G01*
X151406600Y-100610000D01*
G75*
G02*
X151400000Y-100603400I0J6600D01*
G01*
G37*
G04 #@! TD.AperFunction*
G04 #@! TA.AperFunction,SMDPad,CuDef*
G36*
G01*
X151400000Y-101003400D02*
X151400000Y-100796600D01*
G75*
G02*
X151406600Y-100790000I6600J0D01*
G01*
X151983400Y-100790000D01*
G75*
G02*
X151990000Y-100796600I0J-6600D01*
G01*
X151990000Y-101003400D01*
G75*
G02*
X151983400Y-101010000I-6600J0D01*
G01*
X151406600Y-101010000D01*
G75*
G02*
X151400000Y-101003400I0J6600D01*
G01*
G37*
G04 #@! TD.AperFunction*
G04 #@! TA.AperFunction,SMDPad,CuDef*
G36*
G01*
X151400000Y-101403400D02*
X151400000Y-101196600D01*
G75*
G02*
X151406600Y-101190000I6600J0D01*
G01*
X151983400Y-101190000D01*
G75*
G02*
X151990000Y-101196600I0J-6600D01*
G01*
X151990000Y-101403400D01*
G75*
G02*
X151983400Y-101410000I-6600J0D01*
G01*
X151406600Y-101410000D01*
G75*
G02*
X151400000Y-101403400I0J6600D01*
G01*
G37*
G04 #@! TD.AperFunction*
G04 #@! TA.AperFunction,SMDPad,CuDef*
G36*
G01*
X151400000Y-101803400D02*
X151400000Y-101596600D01*
G75*
G02*
X151406600Y-101590000I6600J0D01*
G01*
X151983400Y-101590000D01*
G75*
G02*
X151990000Y-101596600I0J-6600D01*
G01*
X151990000Y-101803400D01*
G75*
G02*
X151983400Y-101810000I-6600J0D01*
G01*
X151406600Y-101810000D01*
G75*
G02*
X151400000Y-101803400I0J6600D01*
G01*
G37*
G04 #@! TD.AperFunction*
G04 #@! TA.AperFunction,SMDPad,CuDef*
G36*
G01*
X151400000Y-102203400D02*
X151400000Y-101996600D01*
G75*
G02*
X151406600Y-101990000I6600J0D01*
G01*
X151983400Y-101990000D01*
G75*
G02*
X151990000Y-101996600I0J-6600D01*
G01*
X151990000Y-102203400D01*
G75*
G02*
X151983400Y-102210000I-6600J0D01*
G01*
X151406600Y-102210000D01*
G75*
G02*
X151400000Y-102203400I0J6600D01*
G01*
G37*
G04 #@! TD.AperFunction*
G04 #@! TA.AperFunction,SMDPad,CuDef*
G36*
G01*
X151400000Y-102603400D02*
X151400000Y-102396600D01*
G75*
G02*
X151406600Y-102390000I6600J0D01*
G01*
X151983400Y-102390000D01*
G75*
G02*
X151990000Y-102396600I0J-6600D01*
G01*
X151990000Y-102603400D01*
G75*
G02*
X151983400Y-102610000I-6600J0D01*
G01*
X151406600Y-102610000D01*
G75*
G02*
X151400000Y-102603400I0J6600D01*
G01*
G37*
G04 #@! TD.AperFunction*
G04 #@! TA.AperFunction,SMDPad,CuDef*
G36*
G01*
X151400000Y-103003400D02*
X151400000Y-102796600D01*
G75*
G02*
X151406600Y-102790000I6600J0D01*
G01*
X151983400Y-102790000D01*
G75*
G02*
X151990000Y-102796600I0J-6600D01*
G01*
X151990000Y-103003400D01*
G75*
G02*
X151983400Y-103010000I-6600J0D01*
G01*
X151406600Y-103010000D01*
G75*
G02*
X151400000Y-103003400I0J6600D01*
G01*
G37*
G04 #@! TD.AperFunction*
X151695000Y-103300000D03*
X149205000Y-103300000D03*
G04 #@! TA.AperFunction,SMDPad,CuDef*
G36*
G01*
X148910000Y-103003400D02*
X148910000Y-102796600D01*
G75*
G02*
X148916600Y-102790000I6600J0D01*
G01*
X149493400Y-102790000D01*
G75*
G02*
X149500000Y-102796600I0J-6600D01*
G01*
X149500000Y-103003400D01*
G75*
G02*
X149493400Y-103010000I-6600J0D01*
G01*
X148916600Y-103010000D01*
G75*
G02*
X148910000Y-103003400I0J6600D01*
G01*
G37*
G04 #@! TD.AperFunction*
G04 #@! TA.AperFunction,SMDPad,CuDef*
G36*
G01*
X148910000Y-102603400D02*
X148910000Y-102396600D01*
G75*
G02*
X148916600Y-102390000I6600J0D01*
G01*
X149493400Y-102390000D01*
G75*
G02*
X149500000Y-102396600I0J-6600D01*
G01*
X149500000Y-102603400D01*
G75*
G02*
X149493400Y-102610000I-6600J0D01*
G01*
X148916600Y-102610000D01*
G75*
G02*
X148910000Y-102603400I0J6600D01*
G01*
G37*
G04 #@! TD.AperFunction*
G04 #@! TA.AperFunction,SMDPad,CuDef*
G36*
G01*
X148910000Y-102203400D02*
X148910000Y-101996600D01*
G75*
G02*
X148916600Y-101990000I6600J0D01*
G01*
X149493400Y-101990000D01*
G75*
G02*
X149500000Y-101996600I0J-6600D01*
G01*
X149500000Y-102203400D01*
G75*
G02*
X149493400Y-102210000I-6600J0D01*
G01*
X148916600Y-102210000D01*
G75*
G02*
X148910000Y-102203400I0J6600D01*
G01*
G37*
G04 #@! TD.AperFunction*
G04 #@! TA.AperFunction,SMDPad,CuDef*
G36*
G01*
X148910000Y-101803400D02*
X148910000Y-101596600D01*
G75*
G02*
X148916600Y-101590000I6600J0D01*
G01*
X149493400Y-101590000D01*
G75*
G02*
X149500000Y-101596600I0J-6600D01*
G01*
X149500000Y-101803400D01*
G75*
G02*
X149493400Y-101810000I-6600J0D01*
G01*
X148916600Y-101810000D01*
G75*
G02*
X148910000Y-101803400I0J6600D01*
G01*
G37*
G04 #@! TD.AperFunction*
G04 #@! TA.AperFunction,SMDPad,CuDef*
G36*
G01*
X148910000Y-101403400D02*
X148910000Y-101196600D01*
G75*
G02*
X148916600Y-101190000I6600J0D01*
G01*
X149493400Y-101190000D01*
G75*
G02*
X149500000Y-101196600I0J-6600D01*
G01*
X149500000Y-101403400D01*
G75*
G02*
X149493400Y-101410000I-6600J0D01*
G01*
X148916600Y-101410000D01*
G75*
G02*
X148910000Y-101403400I0J6600D01*
G01*
G37*
G04 #@! TD.AperFunction*
G04 #@! TA.AperFunction,SMDPad,CuDef*
G36*
G01*
X148910000Y-101003400D02*
X148910000Y-100796600D01*
G75*
G02*
X148916600Y-100790000I6600J0D01*
G01*
X149493400Y-100790000D01*
G75*
G02*
X149500000Y-100796600I0J-6600D01*
G01*
X149500000Y-101003400D01*
G75*
G02*
X149493400Y-101010000I-6600J0D01*
G01*
X148916600Y-101010000D01*
G75*
G02*
X148910000Y-101003400I0J6600D01*
G01*
G37*
G04 #@! TD.AperFunction*
G04 #@! TA.AperFunction,SMDPad,CuDef*
G36*
G01*
X148910000Y-100603400D02*
X148910000Y-100396600D01*
G75*
G02*
X148916600Y-100390000I6600J0D01*
G01*
X149493400Y-100390000D01*
G75*
G02*
X149500000Y-100396600I0J-6600D01*
G01*
X149500000Y-100603400D01*
G75*
G02*
X149493400Y-100610000I-6600J0D01*
G01*
X148916600Y-100610000D01*
G75*
G02*
X148910000Y-100603400I0J6600D01*
G01*
G37*
G04 #@! TD.AperFunction*
G04 #@! TA.AperFunction,SMDPad,CuDef*
G36*
G01*
X148910000Y-100203400D02*
X148910000Y-99996600D01*
G75*
G02*
X148916600Y-99990000I6600J0D01*
G01*
X149493400Y-99990000D01*
G75*
G02*
X149500000Y-99996600I0J-6600D01*
G01*
X149500000Y-100203400D01*
G75*
G02*
X149493400Y-100210000I-6600J0D01*
G01*
X148916600Y-100210000D01*
G75*
G02*
X148910000Y-100203400I0J6600D01*
G01*
G37*
G04 #@! TD.AperFunction*
X149205000Y-99700000D03*
D12*
X149650000Y-99255000D03*
G04 #@! TA.AperFunction,SMDPad,CuDef*
G36*
G01*
X149940000Y-99543400D02*
X149940000Y-98966600D01*
G75*
G02*
X149946600Y-98960000I6600J0D01*
G01*
X150153400Y-98960000D01*
G75*
G02*
X150160000Y-98966600I0J-6600D01*
G01*
X150160000Y-99543400D01*
G75*
G02*
X150153400Y-99550000I-6600J0D01*
G01*
X149946600Y-99550000D01*
G75*
G02*
X149940000Y-99543400I0J6600D01*
G01*
G37*
G04 #@! TD.AperFunction*
G04 #@! TA.AperFunction,SMDPad,CuDef*
G36*
G01*
X150340000Y-99543400D02*
X150340000Y-98966600D01*
G75*
G02*
X150346600Y-98960000I6600J0D01*
G01*
X150553400Y-98960000D01*
G75*
G02*
X150560000Y-98966600I0J-6600D01*
G01*
X150560000Y-99543400D01*
G75*
G02*
X150553400Y-99550000I-6600J0D01*
G01*
X150346600Y-99550000D01*
G75*
G02*
X150340000Y-99543400I0J6600D01*
G01*
G37*
G04 #@! TD.AperFunction*
G04 #@! TA.AperFunction,SMDPad,CuDef*
G36*
G01*
X150740000Y-99543400D02*
X150740000Y-98966600D01*
G75*
G02*
X150746600Y-98960000I6600J0D01*
G01*
X150953400Y-98960000D01*
G75*
G02*
X150960000Y-98966600I0J-6600D01*
G01*
X150960000Y-99543400D01*
G75*
G02*
X150953400Y-99550000I-6600J0D01*
G01*
X150746600Y-99550000D01*
G75*
G02*
X150740000Y-99543400I0J6600D01*
G01*
G37*
G04 #@! TD.AperFunction*
X151250000Y-99255000D03*
X151250000Y-103745000D03*
G04 #@! TA.AperFunction,SMDPad,CuDef*
G36*
G01*
X150740000Y-104033400D02*
X150740000Y-103456600D01*
G75*
G02*
X150746600Y-103450000I6600J0D01*
G01*
X150953400Y-103450000D01*
G75*
G02*
X150960000Y-103456600I0J-6600D01*
G01*
X150960000Y-104033400D01*
G75*
G02*
X150953400Y-104040000I-6600J0D01*
G01*
X150746600Y-104040000D01*
G75*
G02*
X150740000Y-104033400I0J6600D01*
G01*
G37*
G04 #@! TD.AperFunction*
G04 #@! TA.AperFunction,SMDPad,CuDef*
G36*
G01*
X150340000Y-104033400D02*
X150340000Y-103456600D01*
G75*
G02*
X150346600Y-103450000I6600J0D01*
G01*
X150553400Y-103450000D01*
G75*
G02*
X150560000Y-103456600I0J-6600D01*
G01*
X150560000Y-104033400D01*
G75*
G02*
X150553400Y-104040000I-6600J0D01*
G01*
X150346600Y-104040000D01*
G75*
G02*
X150340000Y-104033400I0J6600D01*
G01*
G37*
G04 #@! TD.AperFunction*
G04 #@! TA.AperFunction,SMDPad,CuDef*
G36*
G01*
X149940000Y-104033400D02*
X149940000Y-103456600D01*
G75*
G02*
X149946600Y-103450000I6600J0D01*
G01*
X150153400Y-103450000D01*
G75*
G02*
X150160000Y-103456600I0J-6600D01*
G01*
X150160000Y-104033400D01*
G75*
G02*
X150153400Y-104040000I-6600J0D01*
G01*
X149946600Y-104040000D01*
G75*
G02*
X149940000Y-104033400I0J6600D01*
G01*
G37*
G04 #@! TD.AperFunction*
X149650000Y-103745000D03*
G04 #@! TA.AperFunction,SMDPad,CuDef*
G36*
G01*
X153155000Y-106560000D02*
X153155000Y-106190000D01*
G75*
G02*
X153290000Y-106055000I135000J0D01*
G01*
X153560000Y-106055000D01*
G75*
G02*
X153695000Y-106190000I0J-135000D01*
G01*
X153695000Y-106560000D01*
G75*
G02*
X153560000Y-106695000I-135000J0D01*
G01*
X153290000Y-106695000D01*
G75*
G02*
X153155000Y-106560000I0J135000D01*
G01*
G37*
G04 #@! TD.AperFunction*
G04 #@! TA.AperFunction,SMDPad,CuDef*
G36*
G01*
X152135000Y-106560000D02*
X152135000Y-106190000D01*
G75*
G02*
X152270000Y-106055000I135000J0D01*
G01*
X152540000Y-106055000D01*
G75*
G02*
X152675000Y-106190000I0J-135000D01*
G01*
X152675000Y-106560000D01*
G75*
G02*
X152540000Y-106695000I-135000J0D01*
G01*
X152270000Y-106695000D01*
G75*
G02*
X152135000Y-106560000I0J135000D01*
G01*
G37*
G04 #@! TD.AperFunction*
G04 #@! TA.AperFunction,SMDPad,CuDef*
G36*
G01*
X153150000Y-105485000D02*
X153150000Y-105115000D01*
G75*
G02*
X153285000Y-104980000I135000J0D01*
G01*
X153555000Y-104980000D01*
G75*
G02*
X153690000Y-105115000I0J-135000D01*
G01*
X153690000Y-105485000D01*
G75*
G02*
X153555000Y-105620000I-135000J0D01*
G01*
X153285000Y-105620000D01*
G75*
G02*
X153150000Y-105485000I0J135000D01*
G01*
G37*
G04 #@! TD.AperFunction*
G04 #@! TA.AperFunction,SMDPad,CuDef*
G36*
G01*
X152130000Y-105485000D02*
X152130000Y-105115000D01*
G75*
G02*
X152265000Y-104980000I135000J0D01*
G01*
X152535000Y-104980000D01*
G75*
G02*
X152670000Y-105115000I0J-135000D01*
G01*
X152670000Y-105485000D01*
G75*
G02*
X152535000Y-105620000I-135000J0D01*
G01*
X152265000Y-105620000D01*
G75*
G02*
X152130000Y-105485000I0J135000D01*
G01*
G37*
G04 #@! TD.AperFunction*
G04 #@! TA.AperFunction,SMDPad,CuDef*
G36*
G01*
X144515000Y-109125000D02*
X144885000Y-109125000D01*
G75*
G02*
X145020000Y-109260000I0J-135000D01*
G01*
X145020000Y-109530000D01*
G75*
G02*
X144885000Y-109665000I-135000J0D01*
G01*
X144515000Y-109665000D01*
G75*
G02*
X144380000Y-109530000I0J135000D01*
G01*
X144380000Y-109260000D01*
G75*
G02*
X144515000Y-109125000I135000J0D01*
G01*
G37*
G04 #@! TD.AperFunction*
G04 #@! TA.AperFunction,SMDPad,CuDef*
G36*
G01*
X144515000Y-108105000D02*
X144885000Y-108105000D01*
G75*
G02*
X145020000Y-108240000I0J-135000D01*
G01*
X145020000Y-108510000D01*
G75*
G02*
X144885000Y-108645000I-135000J0D01*
G01*
X144515000Y-108645000D01*
G75*
G02*
X144380000Y-108510000I0J135000D01*
G01*
X144380000Y-108240000D01*
G75*
G02*
X144515000Y-108105000I135000J0D01*
G01*
G37*
G04 #@! TD.AperFunction*
G04 #@! TA.AperFunction,SMDPad,CuDef*
G36*
G01*
X144885000Y-110570000D02*
X144515000Y-110570000D01*
G75*
G02*
X144380000Y-110435000I0J135000D01*
G01*
X144380000Y-110165000D01*
G75*
G02*
X144515000Y-110030000I135000J0D01*
G01*
X144885000Y-110030000D01*
G75*
G02*
X145020000Y-110165000I0J-135000D01*
G01*
X145020000Y-110435000D01*
G75*
G02*
X144885000Y-110570000I-135000J0D01*
G01*
G37*
G04 #@! TD.AperFunction*
G04 #@! TA.AperFunction,SMDPad,CuDef*
G36*
G01*
X144885000Y-111590000D02*
X144515000Y-111590000D01*
G75*
G02*
X144380000Y-111455000I0J135000D01*
G01*
X144380000Y-111185000D01*
G75*
G02*
X144515000Y-111050000I135000J0D01*
G01*
X144885000Y-111050000D01*
G75*
G02*
X145020000Y-111185000I0J-135000D01*
G01*
X145020000Y-111455000D01*
G75*
G02*
X144885000Y-111590000I-135000J0D01*
G01*
G37*
G04 #@! TD.AperFunction*
D13*
X151500000Y-108775000D03*
X153400000Y-108775000D03*
X153400000Y-110975000D03*
X152450000Y-110975000D03*
X151500000Y-110975000D03*
G04 #@! TA.AperFunction,SMDPad,CuDef*
G36*
G01*
X148350000Y-110325000D02*
X150050000Y-110325000D01*
G75*
G02*
X150300000Y-110575000I0J-250000D01*
G01*
X150300000Y-111325000D01*
G75*
G02*
X150050000Y-111575000I-250000J0D01*
G01*
X148350000Y-111575000D01*
G75*
G02*
X148100000Y-111325000I0J250000D01*
G01*
X148100000Y-110575000D01*
G75*
G02*
X148350000Y-110325000I250000J0D01*
G01*
G37*
G04 #@! TD.AperFunction*
G04 #@! TA.AperFunction,SMDPad,CuDef*
G36*
G01*
X148350000Y-108175000D02*
X150050000Y-108175000D01*
G75*
G02*
X150300000Y-108425000I0J-250000D01*
G01*
X150300000Y-109175000D01*
G75*
G02*
X150050000Y-109425000I-250000J0D01*
G01*
X148350000Y-109425000D01*
G75*
G02*
X148100000Y-109175000I0J250000D01*
G01*
X148100000Y-108425000D01*
G75*
G02*
X148350000Y-108175000I250000J0D01*
G01*
G37*
G04 #@! TD.AperFunction*
G04 #@! TA.AperFunction,SMDPad,CuDef*
G36*
G01*
X145287500Y-95568750D02*
X145287500Y-96081250D01*
G75*
G02*
X145068750Y-96300000I-218750J0D01*
G01*
X144631250Y-96300000D01*
G75*
G02*
X144412500Y-96081250I0J218750D01*
G01*
X144412500Y-95568750D01*
G75*
G02*
X144631250Y-95350000I218750J0D01*
G01*
X145068750Y-95350000D01*
G75*
G02*
X145287500Y-95568750I0J-218750D01*
G01*
G37*
G04 #@! TD.AperFunction*
G04 #@! TA.AperFunction,SMDPad,CuDef*
G36*
G01*
X146862500Y-95568750D02*
X146862500Y-96081250D01*
G75*
G02*
X146643750Y-96300000I-218750J0D01*
G01*
X146206250Y-96300000D01*
G75*
G02*
X145987500Y-96081250I0J218750D01*
G01*
X145987500Y-95568750D01*
G75*
G02*
X146206250Y-95350000I218750J0D01*
G01*
X146643750Y-95350000D01*
G75*
G02*
X146862500Y-95568750I0J-218750D01*
G01*
G37*
G04 #@! TD.AperFunction*
G04 #@! TA.AperFunction,SMDPad,CuDef*
G36*
G01*
X151730000Y-107240000D02*
X151730000Y-107580000D01*
G75*
G02*
X151590000Y-107720000I-140000J0D01*
G01*
X151310000Y-107720000D01*
G75*
G02*
X151170000Y-107580000I0J140000D01*
G01*
X151170000Y-107240000D01*
G75*
G02*
X151310000Y-107100000I140000J0D01*
G01*
X151590000Y-107100000D01*
G75*
G02*
X151730000Y-107240000I0J-140000D01*
G01*
G37*
G04 #@! TD.AperFunction*
G04 #@! TA.AperFunction,SMDPad,CuDef*
G36*
G01*
X152690000Y-107240000D02*
X152690000Y-107580000D01*
G75*
G02*
X152550000Y-107720000I-140000J0D01*
G01*
X152270000Y-107720000D01*
G75*
G02*
X152130000Y-107580000I0J140000D01*
G01*
X152130000Y-107240000D01*
G75*
G02*
X152270000Y-107100000I140000J0D01*
G01*
X152550000Y-107100000D01*
G75*
G02*
X152690000Y-107240000I0J-140000D01*
G01*
G37*
G04 #@! TD.AperFunction*
G04 #@! TA.AperFunction,SMDPad,CuDef*
G36*
G01*
X152720000Y-112130000D02*
X152720000Y-112470000D01*
G75*
G02*
X152580000Y-112610000I-140000J0D01*
G01*
X152300000Y-112610000D01*
G75*
G02*
X152160000Y-112470000I0J140000D01*
G01*
X152160000Y-112130000D01*
G75*
G02*
X152300000Y-111990000I140000J0D01*
G01*
X152580000Y-111990000D01*
G75*
G02*
X152720000Y-112130000I0J-140000D01*
G01*
G37*
G04 #@! TD.AperFunction*
G04 #@! TA.AperFunction,SMDPad,CuDef*
G36*
G01*
X153680000Y-112130000D02*
X153680000Y-112470000D01*
G75*
G02*
X153540000Y-112610000I-140000J0D01*
G01*
X153260000Y-112610000D01*
G75*
G02*
X153120000Y-112470000I0J140000D01*
G01*
X153120000Y-112130000D01*
G75*
G02*
X153260000Y-111990000I140000J0D01*
G01*
X153540000Y-111990000D01*
G75*
G02*
X153680000Y-112130000I0J-140000D01*
G01*
G37*
G04 #@! TD.AperFunction*
G04 #@! TA.AperFunction,SMDPad,CuDef*
G36*
G01*
X145445000Y-94405000D02*
X145445000Y-94745000D01*
G75*
G02*
X145305000Y-94885000I-140000J0D01*
G01*
X145025000Y-94885000D01*
G75*
G02*
X144885000Y-94745000I0J140000D01*
G01*
X144885000Y-94405000D01*
G75*
G02*
X145025000Y-94265000I140000J0D01*
G01*
X145305000Y-94265000D01*
G75*
G02*
X145445000Y-94405000I0J-140000D01*
G01*
G37*
G04 #@! TD.AperFunction*
G04 #@! TA.AperFunction,SMDPad,CuDef*
G36*
G01*
X146405000Y-94405000D02*
X146405000Y-94745000D01*
G75*
G02*
X146265000Y-94885000I-140000J0D01*
G01*
X145985000Y-94885000D01*
G75*
G02*
X145845000Y-94745000I0J140000D01*
G01*
X145845000Y-94405000D01*
G75*
G02*
X145985000Y-94265000I140000J0D01*
G01*
X146265000Y-94265000D01*
G75*
G02*
X146405000Y-94405000I0J-140000D01*
G01*
G37*
G04 #@! TD.AperFunction*
G04 #@! TA.AperFunction,SMDPad,CuDef*
G36*
G01*
X144320000Y-105720000D02*
X144320000Y-105380000D01*
G75*
G02*
X144460000Y-105240000I140000J0D01*
G01*
X144740000Y-105240000D01*
G75*
G02*
X144880000Y-105380000I0J-140000D01*
G01*
X144880000Y-105720000D01*
G75*
G02*
X144740000Y-105860000I-140000J0D01*
G01*
X144460000Y-105860000D01*
G75*
G02*
X144320000Y-105720000I0J140000D01*
G01*
G37*
G04 #@! TD.AperFunction*
G04 #@! TA.AperFunction,SMDPad,CuDef*
G36*
G01*
X145280000Y-105720000D02*
X145280000Y-105380000D01*
G75*
G02*
X145420000Y-105240000I140000J0D01*
G01*
X145700000Y-105240000D01*
G75*
G02*
X145840000Y-105380000I0J-140000D01*
G01*
X145840000Y-105720000D01*
G75*
G02*
X145700000Y-105860000I-140000J0D01*
G01*
X145420000Y-105860000D01*
G75*
G02*
X145280000Y-105720000I0J140000D01*
G01*
G37*
G04 #@! TD.AperFunction*
G04 #@! TA.AperFunction,SMDPad,CuDef*
G36*
G01*
X144320000Y-104720000D02*
X144320000Y-104380000D01*
G75*
G02*
X144460000Y-104240000I140000J0D01*
G01*
X144740000Y-104240000D01*
G75*
G02*
X144880000Y-104380000I0J-140000D01*
G01*
X144880000Y-104720000D01*
G75*
G02*
X144740000Y-104860000I-140000J0D01*
G01*
X144460000Y-104860000D01*
G75*
G02*
X144320000Y-104720000I0J140000D01*
G01*
G37*
G04 #@! TD.AperFunction*
G04 #@! TA.AperFunction,SMDPad,CuDef*
G36*
G01*
X145280000Y-104720000D02*
X145280000Y-104380000D01*
G75*
G02*
X145420000Y-104240000I140000J0D01*
G01*
X145700000Y-104240000D01*
G75*
G02*
X145840000Y-104380000I0J-140000D01*
G01*
X145840000Y-104720000D01*
G75*
G02*
X145700000Y-104860000I-140000J0D01*
G01*
X145420000Y-104860000D01*
G75*
G02*
X145280000Y-104720000I0J140000D01*
G01*
G37*
G04 #@! TD.AperFunction*
G04 #@! TA.AperFunction,SMDPad,CuDef*
G36*
G01*
X144320000Y-103320000D02*
X144320000Y-102980000D01*
G75*
G02*
X144460000Y-102840000I140000J0D01*
G01*
X144740000Y-102840000D01*
G75*
G02*
X144880000Y-102980000I0J-140000D01*
G01*
X144880000Y-103320000D01*
G75*
G02*
X144740000Y-103460000I-140000J0D01*
G01*
X144460000Y-103460000D01*
G75*
G02*
X144320000Y-103320000I0J140000D01*
G01*
G37*
G04 #@! TD.AperFunction*
G04 #@! TA.AperFunction,SMDPad,CuDef*
G36*
G01*
X145280000Y-103320000D02*
X145280000Y-102980000D01*
G75*
G02*
X145420000Y-102840000I140000J0D01*
G01*
X145700000Y-102840000D01*
G75*
G02*
X145840000Y-102980000I0J-140000D01*
G01*
X145840000Y-103320000D01*
G75*
G02*
X145700000Y-103460000I-140000J0D01*
G01*
X145420000Y-103460000D01*
G75*
G02*
X145280000Y-103320000I0J140000D01*
G01*
G37*
G04 #@! TD.AperFunction*
G04 #@! TA.AperFunction,SMDPad,CuDef*
G36*
G01*
X144310000Y-102320000D02*
X144310000Y-101980000D01*
G75*
G02*
X144450000Y-101840000I140000J0D01*
G01*
X144730000Y-101840000D01*
G75*
G02*
X144870000Y-101980000I0J-140000D01*
G01*
X144870000Y-102320000D01*
G75*
G02*
X144730000Y-102460000I-140000J0D01*
G01*
X144450000Y-102460000D01*
G75*
G02*
X144310000Y-102320000I0J140000D01*
G01*
G37*
G04 #@! TD.AperFunction*
G04 #@! TA.AperFunction,SMDPad,CuDef*
G36*
G01*
X145270000Y-102320000D02*
X145270000Y-101980000D01*
G75*
G02*
X145410000Y-101840000I140000J0D01*
G01*
X145690000Y-101840000D01*
G75*
G02*
X145830000Y-101980000I0J-140000D01*
G01*
X145830000Y-102320000D01*
G75*
G02*
X145690000Y-102460000I-140000J0D01*
G01*
X145410000Y-102460000D01*
G75*
G02*
X145270000Y-102320000I0J140000D01*
G01*
G37*
G04 #@! TD.AperFunction*
G04 #@! TA.AperFunction,SMDPad,CuDef*
G36*
G01*
X144310000Y-100920000D02*
X144310000Y-100580000D01*
G75*
G02*
X144450000Y-100440000I140000J0D01*
G01*
X144730000Y-100440000D01*
G75*
G02*
X144870000Y-100580000I0J-140000D01*
G01*
X144870000Y-100920000D01*
G75*
G02*
X144730000Y-101060000I-140000J0D01*
G01*
X144450000Y-101060000D01*
G75*
G02*
X144310000Y-100920000I0J140000D01*
G01*
G37*
G04 #@! TD.AperFunction*
G04 #@! TA.AperFunction,SMDPad,CuDef*
G36*
G01*
X145270000Y-100920000D02*
X145270000Y-100580000D01*
G75*
G02*
X145410000Y-100440000I140000J0D01*
G01*
X145690000Y-100440000D01*
G75*
G02*
X145830000Y-100580000I0J-140000D01*
G01*
X145830000Y-100920000D01*
G75*
G02*
X145690000Y-101060000I-140000J0D01*
G01*
X145410000Y-101060000D01*
G75*
G02*
X145270000Y-100920000I0J140000D01*
G01*
G37*
G04 #@! TD.AperFunction*
G04 #@! TA.AperFunction,SMDPad,CuDef*
G36*
G01*
X144310000Y-99920000D02*
X144310000Y-99580000D01*
G75*
G02*
X144450000Y-99440000I140000J0D01*
G01*
X144730000Y-99440000D01*
G75*
G02*
X144870000Y-99580000I0J-140000D01*
G01*
X144870000Y-99920000D01*
G75*
G02*
X144730000Y-100060000I-140000J0D01*
G01*
X144450000Y-100060000D01*
G75*
G02*
X144310000Y-99920000I0J140000D01*
G01*
G37*
G04 #@! TD.AperFunction*
G04 #@! TA.AperFunction,SMDPad,CuDef*
G36*
G01*
X145270000Y-99920000D02*
X145270000Y-99580000D01*
G75*
G02*
X145410000Y-99440000I140000J0D01*
G01*
X145690000Y-99440000D01*
G75*
G02*
X145830000Y-99580000I0J-140000D01*
G01*
X145830000Y-99920000D01*
G75*
G02*
X145690000Y-100060000I-140000J0D01*
G01*
X145410000Y-100060000D01*
G75*
G02*
X145270000Y-99920000I0J140000D01*
G01*
G37*
G04 #@! TD.AperFunction*
G04 #@! TA.AperFunction,SMDPad,CuDef*
G36*
G01*
X144310000Y-98520000D02*
X144310000Y-98180000D01*
G75*
G02*
X144450000Y-98040000I140000J0D01*
G01*
X144730000Y-98040000D01*
G75*
G02*
X144870000Y-98180000I0J-140000D01*
G01*
X144870000Y-98520000D01*
G75*
G02*
X144730000Y-98660000I-140000J0D01*
G01*
X144450000Y-98660000D01*
G75*
G02*
X144310000Y-98520000I0J140000D01*
G01*
G37*
G04 #@! TD.AperFunction*
G04 #@! TA.AperFunction,SMDPad,CuDef*
G36*
G01*
X145270000Y-98520000D02*
X145270000Y-98180000D01*
G75*
G02*
X145410000Y-98040000I140000J0D01*
G01*
X145690000Y-98040000D01*
G75*
G02*
X145830000Y-98180000I0J-140000D01*
G01*
X145830000Y-98520000D01*
G75*
G02*
X145690000Y-98660000I-140000J0D01*
G01*
X145410000Y-98660000D01*
G75*
G02*
X145270000Y-98520000I0J140000D01*
G01*
G37*
G04 #@! TD.AperFunction*
G04 #@! TA.AperFunction,SMDPad,CuDef*
G36*
G01*
X144310000Y-97520000D02*
X144310000Y-97180000D01*
G75*
G02*
X144450000Y-97040000I140000J0D01*
G01*
X144730000Y-97040000D01*
G75*
G02*
X144870000Y-97180000I0J-140000D01*
G01*
X144870000Y-97520000D01*
G75*
G02*
X144730000Y-97660000I-140000J0D01*
G01*
X144450000Y-97660000D01*
G75*
G02*
X144310000Y-97520000I0J140000D01*
G01*
G37*
G04 #@! TD.AperFunction*
G04 #@! TA.AperFunction,SMDPad,CuDef*
G36*
G01*
X145270000Y-97520000D02*
X145270000Y-97180000D01*
G75*
G02*
X145410000Y-97040000I140000J0D01*
G01*
X145690000Y-97040000D01*
G75*
G02*
X145830000Y-97180000I0J-140000D01*
G01*
X145830000Y-97520000D01*
G75*
G02*
X145690000Y-97660000I-140000J0D01*
G01*
X145410000Y-97660000D01*
G75*
G02*
X145270000Y-97520000I0J140000D01*
G01*
G37*
G04 #@! TD.AperFunction*
G04 #@! TA.AperFunction,SMDPad,CuDef*
G36*
G01*
X140615000Y-111839000D02*
X141765000Y-111839000D01*
G75*
G02*
X141990000Y-112064000I0J-225000D01*
G01*
X141990000Y-112514000D01*
G75*
G02*
X141765000Y-112739000I-225000J0D01*
G01*
X140615000Y-112739000D01*
G75*
G02*
X140390000Y-112514000I0J225000D01*
G01*
X140390000Y-112064000D01*
G75*
G02*
X140615000Y-111839000I225000J0D01*
G01*
G37*
G04 #@! TD.AperFunction*
G04 #@! TA.AperFunction,SMDPad,CuDef*
G36*
G01*
X140615000Y-94139000D02*
X141765000Y-94139000D01*
G75*
G02*
X141990000Y-94364000I0J-225000D01*
G01*
X141990000Y-94814000D01*
G75*
G02*
X141765000Y-95039000I-225000J0D01*
G01*
X140615000Y-95039000D01*
G75*
G02*
X140390000Y-94814000I0J225000D01*
G01*
X140390000Y-94364000D01*
G75*
G02*
X140615000Y-94139000I225000J0D01*
G01*
G37*
G04 #@! TD.AperFunction*
G04 #@! TA.AperFunction,SMDPad,CuDef*
G36*
G01*
X142735000Y-110789000D02*
X143485000Y-110789000D01*
G75*
G02*
X143610000Y-110914000I0J-125000D01*
G01*
X143610000Y-111164000D01*
G75*
G02*
X143485000Y-111289000I-125000J0D01*
G01*
X142735000Y-111289000D01*
G75*
G02*
X142610000Y-111164000I0J125000D01*
G01*
X142610000Y-110914000D01*
G75*
G02*
X142735000Y-110789000I125000J0D01*
G01*
G37*
G04 #@! TD.AperFunction*
G04 #@! TA.AperFunction,SMDPad,CuDef*
G36*
G01*
X142735000Y-109989000D02*
X143485000Y-109989000D01*
G75*
G02*
X143610000Y-110114000I0J-125000D01*
G01*
X143610000Y-110364000D01*
G75*
G02*
X143485000Y-110489000I-125000J0D01*
G01*
X142735000Y-110489000D01*
G75*
G02*
X142610000Y-110364000I0J125000D01*
G01*
X142610000Y-110114000D01*
G75*
G02*
X142735000Y-109989000I125000J0D01*
G01*
G37*
G04 #@! TD.AperFunction*
G04 #@! TA.AperFunction,SMDPad,CuDef*
G36*
G01*
X142735000Y-109189000D02*
X143485000Y-109189000D01*
G75*
G02*
X143610000Y-109314000I0J-125000D01*
G01*
X143610000Y-109564000D01*
G75*
G02*
X143485000Y-109689000I-125000J0D01*
G01*
X142735000Y-109689000D01*
G75*
G02*
X142610000Y-109564000I0J125000D01*
G01*
X142610000Y-109314000D01*
G75*
G02*
X142735000Y-109189000I125000J0D01*
G01*
G37*
G04 #@! TD.AperFunction*
G04 #@! TA.AperFunction,SMDPad,CuDef*
G36*
G01*
X142735000Y-108389000D02*
X143485000Y-108389000D01*
G75*
G02*
X143610000Y-108514000I0J-125000D01*
G01*
X143610000Y-108764000D01*
G75*
G02*
X143485000Y-108889000I-125000J0D01*
G01*
X142735000Y-108889000D01*
G75*
G02*
X142610000Y-108764000I0J125000D01*
G01*
X142610000Y-108514000D01*
G75*
G02*
X142735000Y-108389000I125000J0D01*
G01*
G37*
G04 #@! TD.AperFunction*
G04 #@! TA.AperFunction,SMDPad,CuDef*
G36*
G01*
X142735000Y-107589000D02*
X143485000Y-107589000D01*
G75*
G02*
X143610000Y-107714000I0J-125000D01*
G01*
X143610000Y-107964000D01*
G75*
G02*
X143485000Y-108089000I-125000J0D01*
G01*
X142735000Y-108089000D01*
G75*
G02*
X142610000Y-107964000I0J125000D01*
G01*
X142610000Y-107714000D01*
G75*
G02*
X142735000Y-107589000I125000J0D01*
G01*
G37*
G04 #@! TD.AperFunction*
G04 #@! TA.AperFunction,SMDPad,CuDef*
G36*
G01*
X142735000Y-106789000D02*
X143485000Y-106789000D01*
G75*
G02*
X143610000Y-106914000I0J-125000D01*
G01*
X143610000Y-107164000D01*
G75*
G02*
X143485000Y-107289000I-125000J0D01*
G01*
X142735000Y-107289000D01*
G75*
G02*
X142610000Y-107164000I0J125000D01*
G01*
X142610000Y-106914000D01*
G75*
G02*
X142735000Y-106789000I125000J0D01*
G01*
G37*
G04 #@! TD.AperFunction*
G04 #@! TA.AperFunction,SMDPad,CuDef*
G36*
G01*
X142735000Y-105989000D02*
X143485000Y-105989000D01*
G75*
G02*
X143610000Y-106114000I0J-125000D01*
G01*
X143610000Y-106364000D01*
G75*
G02*
X143485000Y-106489000I-125000J0D01*
G01*
X142735000Y-106489000D01*
G75*
G02*
X142610000Y-106364000I0J125000D01*
G01*
X142610000Y-106114000D01*
G75*
G02*
X142735000Y-105989000I125000J0D01*
G01*
G37*
G04 #@! TD.AperFunction*
G04 #@! TA.AperFunction,SMDPad,CuDef*
G36*
G01*
X142735000Y-105189000D02*
X143485000Y-105189000D01*
G75*
G02*
X143610000Y-105314000I0J-125000D01*
G01*
X143610000Y-105564000D01*
G75*
G02*
X143485000Y-105689000I-125000J0D01*
G01*
X142735000Y-105689000D01*
G75*
G02*
X142610000Y-105564000I0J125000D01*
G01*
X142610000Y-105314000D01*
G75*
G02*
X142735000Y-105189000I125000J0D01*
G01*
G37*
G04 #@! TD.AperFunction*
G04 #@! TA.AperFunction,SMDPad,CuDef*
G36*
G01*
X142735000Y-104389000D02*
X143485000Y-104389000D01*
G75*
G02*
X143610000Y-104514000I0J-125000D01*
G01*
X143610000Y-104764000D01*
G75*
G02*
X143485000Y-104889000I-125000J0D01*
G01*
X142735000Y-104889000D01*
G75*
G02*
X142610000Y-104764000I0J125000D01*
G01*
X142610000Y-104514000D01*
G75*
G02*
X142735000Y-104389000I125000J0D01*
G01*
G37*
G04 #@! TD.AperFunction*
G04 #@! TA.AperFunction,SMDPad,CuDef*
G36*
G01*
X142735000Y-103589000D02*
X143485000Y-103589000D01*
G75*
G02*
X143610000Y-103714000I0J-125000D01*
G01*
X143610000Y-103964000D01*
G75*
G02*
X143485000Y-104089000I-125000J0D01*
G01*
X142735000Y-104089000D01*
G75*
G02*
X142610000Y-103964000I0J125000D01*
G01*
X142610000Y-103714000D01*
G75*
G02*
X142735000Y-103589000I125000J0D01*
G01*
G37*
G04 #@! TD.AperFunction*
G04 #@! TA.AperFunction,SMDPad,CuDef*
G36*
G01*
X142735000Y-102789000D02*
X143485000Y-102789000D01*
G75*
G02*
X143610000Y-102914000I0J-125000D01*
G01*
X143610000Y-103164000D01*
G75*
G02*
X143485000Y-103289000I-125000J0D01*
G01*
X142735000Y-103289000D01*
G75*
G02*
X142610000Y-103164000I0J125000D01*
G01*
X142610000Y-102914000D01*
G75*
G02*
X142735000Y-102789000I125000J0D01*
G01*
G37*
G04 #@! TD.AperFunction*
G04 #@! TA.AperFunction,SMDPad,CuDef*
G36*
G01*
X142735000Y-101989000D02*
X143485000Y-101989000D01*
G75*
G02*
X143610000Y-102114000I0J-125000D01*
G01*
X143610000Y-102364000D01*
G75*
G02*
X143485000Y-102489000I-125000J0D01*
G01*
X142735000Y-102489000D01*
G75*
G02*
X142610000Y-102364000I0J125000D01*
G01*
X142610000Y-102114000D01*
G75*
G02*
X142735000Y-101989000I125000J0D01*
G01*
G37*
G04 #@! TD.AperFunction*
G04 #@! TA.AperFunction,SMDPad,CuDef*
G36*
G01*
X142735000Y-101189000D02*
X143485000Y-101189000D01*
G75*
G02*
X143610000Y-101314000I0J-125000D01*
G01*
X143610000Y-101564000D01*
G75*
G02*
X143485000Y-101689000I-125000J0D01*
G01*
X142735000Y-101689000D01*
G75*
G02*
X142610000Y-101564000I0J125000D01*
G01*
X142610000Y-101314000D01*
G75*
G02*
X142735000Y-101189000I125000J0D01*
G01*
G37*
G04 #@! TD.AperFunction*
G04 #@! TA.AperFunction,SMDPad,CuDef*
G36*
G01*
X142735000Y-100389000D02*
X143485000Y-100389000D01*
G75*
G02*
X143610000Y-100514000I0J-125000D01*
G01*
X143610000Y-100764000D01*
G75*
G02*
X143485000Y-100889000I-125000J0D01*
G01*
X142735000Y-100889000D01*
G75*
G02*
X142610000Y-100764000I0J125000D01*
G01*
X142610000Y-100514000D01*
G75*
G02*
X142735000Y-100389000I125000J0D01*
G01*
G37*
G04 #@! TD.AperFunction*
G04 #@! TA.AperFunction,SMDPad,CuDef*
G36*
G01*
X142735000Y-99589000D02*
X143485000Y-99589000D01*
G75*
G02*
X143610000Y-99714000I0J-125000D01*
G01*
X143610000Y-99964000D01*
G75*
G02*
X143485000Y-100089000I-125000J0D01*
G01*
X142735000Y-100089000D01*
G75*
G02*
X142610000Y-99964000I0J125000D01*
G01*
X142610000Y-99714000D01*
G75*
G02*
X142735000Y-99589000I125000J0D01*
G01*
G37*
G04 #@! TD.AperFunction*
G04 #@! TA.AperFunction,SMDPad,CuDef*
G36*
G01*
X142735000Y-98789000D02*
X143485000Y-98789000D01*
G75*
G02*
X143610000Y-98914000I0J-125000D01*
G01*
X143610000Y-99164000D01*
G75*
G02*
X143485000Y-99289000I-125000J0D01*
G01*
X142735000Y-99289000D01*
G75*
G02*
X142610000Y-99164000I0J125000D01*
G01*
X142610000Y-98914000D01*
G75*
G02*
X142735000Y-98789000I125000J0D01*
G01*
G37*
G04 #@! TD.AperFunction*
G04 #@! TA.AperFunction,SMDPad,CuDef*
G36*
G01*
X142735000Y-97989000D02*
X143485000Y-97989000D01*
G75*
G02*
X143610000Y-98114000I0J-125000D01*
G01*
X143610000Y-98364000D01*
G75*
G02*
X143485000Y-98489000I-125000J0D01*
G01*
X142735000Y-98489000D01*
G75*
G02*
X142610000Y-98364000I0J125000D01*
G01*
X142610000Y-98114000D01*
G75*
G02*
X142735000Y-97989000I125000J0D01*
G01*
G37*
G04 #@! TD.AperFunction*
G04 #@! TA.AperFunction,SMDPad,CuDef*
G36*
G01*
X142735000Y-97189000D02*
X143485000Y-97189000D01*
G75*
G02*
X143610000Y-97314000I0J-125000D01*
G01*
X143610000Y-97564000D01*
G75*
G02*
X143485000Y-97689000I-125000J0D01*
G01*
X142735000Y-97689000D01*
G75*
G02*
X142610000Y-97564000I0J125000D01*
G01*
X142610000Y-97314000D01*
G75*
G02*
X142735000Y-97189000I125000J0D01*
G01*
G37*
G04 #@! TD.AperFunction*
G04 #@! TA.AperFunction,SMDPad,CuDef*
G36*
G01*
X142735000Y-96389000D02*
X143485000Y-96389000D01*
G75*
G02*
X143610000Y-96514000I0J-125000D01*
G01*
X143610000Y-96764000D01*
G75*
G02*
X143485000Y-96889000I-125000J0D01*
G01*
X142735000Y-96889000D01*
G75*
G02*
X142610000Y-96764000I0J125000D01*
G01*
X142610000Y-96514000D01*
G75*
G02*
X142735000Y-96389000I125000J0D01*
G01*
G37*
G04 #@! TD.AperFunction*
G04 #@! TA.AperFunction,SMDPad,CuDef*
G36*
G01*
X142735000Y-95589000D02*
X143485000Y-95589000D01*
G75*
G02*
X143610000Y-95714000I0J-125000D01*
G01*
X143610000Y-95964000D01*
G75*
G02*
X143485000Y-96089000I-125000J0D01*
G01*
X142735000Y-96089000D01*
G75*
G02*
X142610000Y-95964000I0J125000D01*
G01*
X142610000Y-95714000D01*
G75*
G02*
X142735000Y-95589000I125000J0D01*
G01*
G37*
G04 #@! TD.AperFunction*
D14*
X162650000Y-107939000D03*
X162650000Y-98939000D03*
D15*
X163410000Y-95389000D03*
X163410000Y-111489000D03*
D16*
X157450000Y-111489000D03*
X157450000Y-95389000D03*
D17*
X156690000Y-107939000D03*
X156690000Y-107439000D03*
X156690000Y-106939000D03*
X156690000Y-106439000D03*
X156690000Y-105939000D03*
X156690000Y-105439000D03*
X156690000Y-104939000D03*
X156690000Y-104439000D03*
X156690000Y-103939000D03*
X156690000Y-98939000D03*
X156690000Y-99439000D03*
X156690000Y-99939000D03*
X156690000Y-100439000D03*
X156690000Y-100939000D03*
X156690000Y-101439000D03*
X156690000Y-101939000D03*
X156690000Y-102439000D03*
X156690000Y-102939000D03*
X156690000Y-103439000D03*
D18*
X150450000Y-102600000D03*
X142100000Y-111050000D03*
X141200000Y-111350000D03*
X142100000Y-108650000D03*
X142100000Y-106250000D03*
X142100000Y-103850000D03*
X142150000Y-101450000D03*
X142150000Y-99050000D03*
X141200000Y-95550000D03*
X158500000Y-99450000D03*
X158500000Y-100950000D03*
X158500000Y-102450000D03*
X158500000Y-103950000D03*
X158500000Y-106950000D03*
X159050000Y-95400000D03*
X162200000Y-95400000D03*
X159050000Y-111500000D03*
X162200000Y-111500000D03*
X150450000Y-101500000D03*
X144336000Y-94589000D03*
X152440000Y-109810000D03*
X150450000Y-100375000D03*
X150680000Y-107410000D03*
X147550000Y-95825000D03*
X151500000Y-112025000D03*
X154225000Y-110975000D03*
X144700000Y-107600000D03*
X144700000Y-112025000D03*
X152875000Y-101700000D03*
X149625000Y-98400000D03*
X150450000Y-98400000D03*
X156700000Y-108575000D03*
X151250000Y-98400000D03*
X154525000Y-106439000D03*
X154525000Y-105300000D03*
X152050000Y-98400000D03*
X151475000Y-104875000D03*
X150625000Y-104875000D03*
X148820000Y-98400000D03*
D19*
X150450000Y-99180000D02*
X150450000Y-100375000D01*
X150450000Y-101500000D02*
X150450000Y-101500000D01*
X150050000Y-101100000D02*
X150450000Y-101500000D01*
X150050000Y-99180000D02*
X150050000Y-101100000D01*
D20*
X141200000Y-94599000D02*
X141190000Y-94589000D01*
X141200000Y-95550000D02*
X141200000Y-94599000D01*
X143099000Y-99050000D02*
X143110000Y-99039000D01*
X142150000Y-99050000D02*
X143099000Y-99050000D01*
X143099000Y-101450000D02*
X143110000Y-101439000D01*
X142150000Y-101450000D02*
X143099000Y-101450000D01*
X143099000Y-103850000D02*
X143110000Y-103839000D01*
X142100000Y-103850000D02*
X143099000Y-103850000D01*
X143099000Y-106250000D02*
X143110000Y-106239000D01*
X142100000Y-106250000D02*
X143099000Y-106250000D01*
X143099000Y-108650000D02*
X143110000Y-108639000D01*
X142100000Y-108650000D02*
X143099000Y-108650000D01*
X143099000Y-111050000D02*
X143110000Y-111039000D01*
X142100000Y-111050000D02*
X143099000Y-111050000D01*
X141200000Y-112279000D02*
X141190000Y-112289000D01*
X141200000Y-111350000D02*
X141200000Y-112279000D01*
X159039000Y-95389000D02*
X159050000Y-95400000D01*
X157450000Y-95389000D02*
X159039000Y-95389000D01*
X163399000Y-95400000D02*
X163410000Y-95389000D01*
X162200000Y-95400000D02*
X163399000Y-95400000D01*
X163399000Y-111500000D02*
X163410000Y-111489000D01*
X162200000Y-111500000D02*
X163399000Y-111500000D01*
X157461000Y-111500000D02*
X157450000Y-111489000D01*
X159050000Y-111500000D02*
X157461000Y-111500000D01*
X156701000Y-106950000D02*
X156690000Y-106939000D01*
X158500000Y-106950000D02*
X156701000Y-106950000D01*
X156701000Y-103950000D02*
X156690000Y-103939000D01*
X158500000Y-103950000D02*
X156701000Y-103950000D01*
X156701000Y-102450000D02*
X156690000Y-102439000D01*
X158500000Y-102450000D02*
X156701000Y-102450000D01*
X156701000Y-100950000D02*
X156690000Y-100939000D01*
X158500000Y-100950000D02*
X156701000Y-100950000D01*
X156701000Y-99450000D02*
X156690000Y-99439000D01*
X158500000Y-99450000D02*
X156701000Y-99450000D01*
D19*
X150450000Y-103820000D02*
X150450000Y-101500000D01*
D20*
X144336000Y-94589000D02*
X145151000Y-94589000D01*
X145151000Y-94589000D02*
X145165000Y-94575000D01*
X152440000Y-110965000D02*
X152450000Y-110975000D01*
X152450000Y-112290000D02*
X152440000Y-112300000D01*
X152450000Y-110975000D02*
X152450000Y-112290000D01*
X152440000Y-109810000D02*
X152440000Y-110965000D01*
D19*
X150450000Y-100375000D02*
X150450000Y-101500000D01*
D20*
X151450000Y-107410000D02*
X150680000Y-107410000D01*
X152400000Y-106370000D02*
X152405000Y-106375000D01*
X152400000Y-105300000D02*
X152400000Y-106370000D01*
X152405000Y-107405000D02*
X152410000Y-107410000D01*
X152405000Y-106375000D02*
X152405000Y-107405000D01*
X152439000Y-107439000D02*
X152410000Y-107410000D01*
X156690000Y-107439000D02*
X152439000Y-107439000D01*
X152410000Y-107785000D02*
X153400000Y-108775000D01*
X152410000Y-107410000D02*
X152410000Y-107785000D01*
D21*
X154739999Y-104439000D02*
X156690000Y-104439000D01*
X151770000Y-103300000D02*
X151856208Y-103213792D01*
X154353791Y-104052792D02*
X154739999Y-104439000D01*
X151856208Y-103213792D02*
X152402864Y-103213792D01*
X152402864Y-103213792D02*
X153241864Y-104052792D01*
X153241864Y-104052792D02*
X154353791Y-104052792D01*
X151766208Y-103213792D02*
X151856208Y-103213792D01*
X151695000Y-103285000D02*
X151766208Y-103213792D01*
X151695000Y-103300000D02*
X151695000Y-103285000D01*
X152402864Y-100186208D02*
X153263864Y-99325208D01*
X151856208Y-100186208D02*
X152402864Y-100186208D01*
X151770000Y-100100000D02*
X151856208Y-100186208D01*
X153263864Y-99325208D02*
X154353791Y-99325208D01*
X154739999Y-98939000D02*
X156690000Y-98939000D01*
X154353791Y-99325208D02*
X154739999Y-98939000D01*
X151746208Y-100186208D02*
X151856208Y-100186208D01*
X151695000Y-100135000D02*
X151746208Y-100186208D01*
X151695000Y-100100000D02*
X151695000Y-100135000D01*
X152497136Y-100413792D02*
X153358136Y-99552792D01*
X151770000Y-100500000D02*
X151856208Y-100413792D01*
X151856208Y-100413792D02*
X152497136Y-100413792D01*
X153358136Y-99552792D02*
X154353791Y-99552792D01*
X154739999Y-99939000D02*
X156690000Y-99939000D01*
X154353791Y-99552792D02*
X154739999Y-99939000D01*
X151766208Y-100413792D02*
X151856208Y-100413792D01*
X151695000Y-100485000D02*
X151766208Y-100413792D01*
X151695000Y-100500000D02*
X151695000Y-100485000D01*
X154739999Y-100439000D02*
X154353791Y-100825208D01*
X156690000Y-100439000D02*
X154739999Y-100439000D01*
X151856208Y-100986208D02*
X151770000Y-100900000D01*
X153152864Y-100986208D02*
X151856208Y-100986208D01*
X153313864Y-100825208D02*
X153152864Y-100986208D01*
X153313864Y-100825208D02*
X154353791Y-100825208D01*
X151756208Y-100986208D02*
X151856208Y-100986208D01*
X151695000Y-100925000D02*
X151756208Y-100986208D01*
X151695000Y-100900000D02*
X151695000Y-100925000D01*
X154739999Y-101439000D02*
X154353791Y-101052792D01*
X156690000Y-101439000D02*
X154739999Y-101439000D01*
X151856208Y-101213792D02*
X151770000Y-101300000D01*
X153247136Y-101213792D02*
X151856208Y-101213792D01*
X153408136Y-101052792D02*
X153247136Y-101213792D01*
X153408136Y-101052792D02*
X154353791Y-101052792D01*
X151766208Y-101213792D02*
X151856208Y-101213792D01*
X151695000Y-101285000D02*
X151766208Y-101213792D01*
X151695000Y-101300000D02*
X151695000Y-101285000D01*
X156690000Y-101939000D02*
X154739999Y-101939000D01*
X154739999Y-101939000D02*
X154353791Y-102325208D01*
X151856208Y-102186208D02*
X151770000Y-102100000D01*
X153386136Y-102325208D02*
X153247136Y-102186208D01*
X153247136Y-102186208D02*
X151856208Y-102186208D01*
X153386136Y-102325208D02*
X154353791Y-102325208D01*
X151756208Y-102186208D02*
X151856208Y-102186208D01*
X151695000Y-102125000D02*
X151756208Y-102186208D01*
X151695000Y-102100000D02*
X151695000Y-102125000D01*
X151856208Y-102413792D02*
X151770000Y-102500000D01*
X154739999Y-102939000D02*
X154353791Y-102552792D01*
X153291864Y-102552792D02*
X153152864Y-102413792D01*
X153152864Y-102413792D02*
X151856208Y-102413792D01*
X156690000Y-102939000D02*
X154739999Y-102939000D01*
X153291864Y-102552792D02*
X154353791Y-102552792D01*
X151766208Y-102413792D02*
X151856208Y-102413792D01*
X151695000Y-102485000D02*
X151766208Y-102413792D01*
X151695000Y-102500000D02*
X151695000Y-102485000D01*
X151770000Y-102900000D02*
X151856208Y-102986208D01*
X151856208Y-102986208D02*
X152497136Y-102986208D01*
X152497136Y-102986208D02*
X153336136Y-103825208D01*
X154353791Y-103825208D02*
X154739999Y-103439000D01*
X154739999Y-103439000D02*
X156690000Y-103439000D01*
X153336136Y-103825208D02*
X154353791Y-103825208D01*
X151766208Y-102986208D02*
X151856208Y-102986208D01*
X151695000Y-102915000D02*
X151766208Y-102986208D01*
X151695000Y-102900000D02*
X151695000Y-102915000D01*
D20*
X146425000Y-95825000D02*
X147550000Y-95825000D01*
X146425000Y-94875000D02*
X146125000Y-94575000D01*
X146425000Y-95825000D02*
X146425000Y-94875000D01*
X153400000Y-110975000D02*
X153400000Y-112300000D01*
X151475000Y-110950000D02*
X151500000Y-110975000D01*
X149200000Y-110950000D02*
X151475000Y-110950000D01*
X151500000Y-110975000D02*
X151500000Y-112025000D01*
X153400000Y-110975000D02*
X154225000Y-110975000D01*
X144700000Y-108375000D02*
X144700000Y-107600000D01*
X144700000Y-111320000D02*
X144700000Y-112025000D01*
D22*
X149650000Y-98425000D02*
X149625000Y-98400000D01*
X149650000Y-99180000D02*
X149650000Y-98425000D01*
X151770000Y-101700000D02*
X152875000Y-101700000D01*
X150850000Y-98800000D02*
X150450000Y-98400000D01*
D21*
X156690000Y-107939000D02*
X156690000Y-108565000D01*
X156690000Y-108565000D02*
X156700000Y-108575000D01*
D22*
X150850000Y-99180000D02*
X150850000Y-98800000D01*
X151250000Y-99180000D02*
X151250000Y-98400000D01*
X156690000Y-106439000D02*
X154525000Y-106439000D01*
X154461000Y-106375000D02*
X154525000Y-106439000D01*
X153489000Y-106439000D02*
X153425000Y-106375000D01*
X154525000Y-106439000D02*
X153489000Y-106439000D01*
X155164000Y-105939000D02*
X154525000Y-105300000D01*
X156690000Y-105939000D02*
X155164000Y-105939000D01*
X153420000Y-105300000D02*
X154525000Y-105300000D01*
D21*
X152050000Y-99345000D02*
X151695000Y-99700000D01*
X152050000Y-98400000D02*
X152050000Y-99345000D01*
X150050000Y-104850000D02*
X150050000Y-103820000D01*
D20*
X144639000Y-110239000D02*
X144700000Y-110300000D01*
X143110000Y-110239000D02*
X144639000Y-110239000D01*
D21*
X144700000Y-110300000D02*
X150050000Y-104950000D01*
X150050000Y-104950000D02*
X150050000Y-104850000D01*
X149650000Y-104450000D02*
X149650000Y-103820000D01*
D20*
X144656000Y-109439000D02*
X144700000Y-109395000D01*
X143110000Y-109439000D02*
X144656000Y-109439000D01*
D21*
X149645000Y-104450000D02*
X144700000Y-109395000D01*
X149650000Y-104450000D02*
X149645000Y-104450000D01*
X148912500Y-104262500D02*
X146136000Y-107039000D01*
X146136000Y-107039000D02*
X143110000Y-107039000D01*
X148912500Y-103592500D02*
X148912500Y-104262500D01*
X149205000Y-103300000D02*
X148912500Y-103592500D01*
X143110000Y-105439000D02*
X143383006Y-105165994D01*
X144215994Y-105165994D02*
X144600000Y-105550000D01*
X143383006Y-105165994D02*
X144215994Y-105165994D01*
X143110000Y-104639000D02*
X143421000Y-104950000D01*
X144200000Y-104950000D02*
X144600000Y-104550000D01*
X143421000Y-104950000D02*
X144200000Y-104950000D01*
X143110000Y-103039000D02*
X143383006Y-102765994D01*
X144215994Y-102765994D02*
X144600000Y-103150000D01*
X143383006Y-102765994D02*
X144215994Y-102765994D01*
X143110000Y-102239000D02*
X143421000Y-102550000D01*
X144190000Y-102550000D02*
X144590000Y-102150000D01*
X143421000Y-102550000D02*
X144190000Y-102550000D01*
X143110000Y-100639000D02*
X143383006Y-100365994D01*
X144205994Y-100365994D02*
X144590000Y-100750000D01*
X143383006Y-100365994D02*
X144205994Y-100365994D01*
X143110000Y-99839000D02*
X143421000Y-100150000D01*
X144190000Y-100150000D02*
X144590000Y-99750000D01*
X143421000Y-100150000D02*
X144190000Y-100150000D01*
X143110000Y-98239000D02*
X143383006Y-97965994D01*
X144205994Y-97965994D02*
X144590000Y-98350000D01*
X143383006Y-97965994D02*
X144205994Y-97965994D01*
X143110000Y-97439000D02*
X143421000Y-97750000D01*
X144190000Y-97750000D02*
X144590000Y-97350000D01*
X143421000Y-97750000D02*
X144190000Y-97750000D01*
X149043792Y-102813792D02*
X149130000Y-102900000D01*
X145560000Y-105550000D02*
X148296208Y-102813792D01*
X149118792Y-102813792D02*
X149205000Y-102900000D01*
X148773792Y-102813792D02*
X149118792Y-102813792D01*
X148296208Y-102813792D02*
X148773792Y-102813792D01*
X148773792Y-102813792D02*
X149043792Y-102813792D01*
X149043792Y-102586208D02*
X149130000Y-102500000D01*
X146238147Y-104550000D02*
X148201939Y-102586208D01*
X145560000Y-104550000D02*
X146238147Y-104550000D01*
X149118792Y-102586208D02*
X149205000Y-102500000D01*
X148843792Y-102586208D02*
X149118792Y-102586208D01*
X148201939Y-102586208D02*
X148843792Y-102586208D01*
X148843792Y-102586208D02*
X149043792Y-102586208D01*
X149043792Y-102013792D02*
X149130000Y-102100000D01*
X145560000Y-103150000D02*
X146696208Y-102013792D01*
X149118792Y-102013792D02*
X149205000Y-102100000D01*
X148843792Y-102013792D02*
X149118792Y-102013792D01*
X146696208Y-102013792D02*
X148843792Y-102013792D01*
X148843792Y-102013792D02*
X149043792Y-102013792D01*
X149043792Y-101786208D02*
X149130000Y-101700000D01*
X146238147Y-102150000D02*
X146601939Y-101786208D01*
X145550000Y-102150000D02*
X146238147Y-102150000D01*
X149118792Y-101786208D02*
X149205000Y-101700000D01*
X148776208Y-101786208D02*
X149118792Y-101786208D01*
X146601939Y-101786208D02*
X148776208Y-101786208D01*
X148776208Y-101786208D02*
X149043792Y-101786208D01*
X146228147Y-100750000D02*
X146691939Y-101213792D01*
X145550000Y-100750000D02*
X146228147Y-100750000D01*
X149043792Y-101213792D02*
X149130000Y-101300000D01*
X148776208Y-101213792D02*
X149118792Y-101213792D01*
X149118792Y-101213792D02*
X149205000Y-101300000D01*
X146691939Y-101213792D02*
X148776208Y-101213792D01*
X148776208Y-101213792D02*
X149043792Y-101213792D01*
X149043792Y-100986208D02*
X149130000Y-100900000D01*
X145550000Y-99750000D02*
X146786208Y-100986208D01*
X149118792Y-100986208D02*
X149205000Y-100900000D01*
X148733792Y-100986208D02*
X149118792Y-100986208D01*
X146786208Y-100986208D02*
X148733792Y-100986208D01*
X148733792Y-100986208D02*
X149043792Y-100986208D01*
X149043792Y-100413792D02*
X149130000Y-100500000D01*
X146228147Y-98350000D02*
X148291939Y-100413792D01*
X145550000Y-98350000D02*
X146228147Y-98350000D01*
X149118792Y-100413792D02*
X149205000Y-100500000D01*
X148783792Y-100413792D02*
X149118792Y-100413792D01*
X148291939Y-100413792D02*
X148783792Y-100413792D01*
X148783792Y-100413792D02*
X149043792Y-100413792D01*
X145550000Y-97350000D02*
X148386208Y-100186208D01*
X148793792Y-100186208D02*
X149118792Y-100186208D01*
X148386208Y-100186208D02*
X148793792Y-100186208D01*
X149118792Y-100186208D02*
X149205000Y-100100000D01*
X148793792Y-100186208D02*
X149043792Y-100186208D01*
D20*
X144836000Y-95839000D02*
X144850000Y-95825000D01*
X143110000Y-95839000D02*
X144836000Y-95839000D01*
X143110000Y-95839000D02*
X143110000Y-96639000D01*
X149225000Y-108775000D02*
X149200000Y-108800000D01*
X151500000Y-108775000D02*
X149225000Y-108775000D01*
D22*
X151475000Y-104450000D02*
X151250000Y-104225000D01*
X151475000Y-104875000D02*
X151475000Y-104450000D01*
X151250000Y-103820000D02*
X151250000Y-104225000D01*
X150625000Y-104450000D02*
X150850000Y-104225000D01*
X150625000Y-104875000D02*
X150625000Y-104450000D01*
X150850000Y-103820000D02*
X150850000Y-104225000D01*
D21*
X148820000Y-99315000D02*
X149205000Y-99700000D01*
X148820000Y-98400000D02*
X148820000Y-99315000D01*
M02*
