G04 #@! TF.GenerationSoftware,KiCad,Pcbnew,5.1.10*
G04 #@! TF.CreationDate,2021-09-12T22:44:31-07:00*
G04 #@! TF.ProjectId,ACORN-CLE-DVI,41434f52-4e2d-4434-9c45-2d4456492e6b,rev?*
G04 #@! TF.SameCoordinates,Original*
G04 #@! TF.FileFunction,Copper,L4,Bot*
G04 #@! TF.FilePolarity,Positive*
%FSLAX46Y46*%
G04 Gerber Fmt 4.6, Leading zero omitted, Abs format (unit mm)*
G04 Created by KiCad (PCBNEW 5.1.10) date 2021-09-12 22:44:31*
%MOMM*%
%LPD*%
G01*
G04 APERTURE LIST*
G04 #@! TA.AperFunction,SMDPad,CuDef*
%ADD10R,1.500000X1.000000*%
G04 #@! TD*
G04 #@! TA.AperFunction,SMDPad,CuDef*
%ADD11C,0.100000*%
G04 #@! TD*
G04 #@! TA.AperFunction,ComponentPad*
%ADD12C,1.300000*%
G04 #@! TD*
G04 #@! TA.AperFunction,ViaPad*
%ADD13C,0.600000*%
G04 #@! TD*
G04 #@! TA.AperFunction,Conductor*
%ADD14C,0.127000*%
G04 #@! TD*
G04 APERTURE END LIST*
D10*
X146150000Y-106275000D03*
G04 #@! TA.AperFunction,SMDPad,CuDef*
D11*
G36*
X146899398Y-107575000D02*
G01*
X146899398Y-107599534D01*
X146894588Y-107648365D01*
X146885016Y-107696490D01*
X146870772Y-107743445D01*
X146851995Y-107788778D01*
X146828864Y-107832051D01*
X146801604Y-107872850D01*
X146770476Y-107910779D01*
X146735779Y-107945476D01*
X146697850Y-107976604D01*
X146657051Y-108003864D01*
X146613778Y-108026995D01*
X146568445Y-108045772D01*
X146521490Y-108060016D01*
X146473365Y-108069588D01*
X146424534Y-108074398D01*
X146400000Y-108074398D01*
X146400000Y-108075000D01*
X145900000Y-108075000D01*
X145900000Y-108074398D01*
X145875466Y-108074398D01*
X145826635Y-108069588D01*
X145778510Y-108060016D01*
X145731555Y-108045772D01*
X145686222Y-108026995D01*
X145642949Y-108003864D01*
X145602150Y-107976604D01*
X145564221Y-107945476D01*
X145529524Y-107910779D01*
X145498396Y-107872850D01*
X145471136Y-107832051D01*
X145448005Y-107788778D01*
X145429228Y-107743445D01*
X145414984Y-107696490D01*
X145405412Y-107648365D01*
X145400602Y-107599534D01*
X145400602Y-107575000D01*
X145400000Y-107575000D01*
X145400000Y-107025000D01*
X146900000Y-107025000D01*
X146900000Y-107575000D01*
X146899398Y-107575000D01*
G37*
G04 #@! TD.AperFunction*
G04 #@! TA.AperFunction,SMDPad,CuDef*
G36*
X145400000Y-105525000D02*
G01*
X145400000Y-104975000D01*
X145400602Y-104975000D01*
X145400602Y-104950466D01*
X145405412Y-104901635D01*
X145414984Y-104853510D01*
X145429228Y-104806555D01*
X145448005Y-104761222D01*
X145471136Y-104717949D01*
X145498396Y-104677150D01*
X145529524Y-104639221D01*
X145564221Y-104604524D01*
X145602150Y-104573396D01*
X145642949Y-104546136D01*
X145686222Y-104523005D01*
X145731555Y-104504228D01*
X145778510Y-104489984D01*
X145826635Y-104480412D01*
X145875466Y-104475602D01*
X145900000Y-104475602D01*
X145900000Y-104475000D01*
X146400000Y-104475000D01*
X146400000Y-104475602D01*
X146424534Y-104475602D01*
X146473365Y-104480412D01*
X146521490Y-104489984D01*
X146568445Y-104504228D01*
X146613778Y-104523005D01*
X146657051Y-104546136D01*
X146697850Y-104573396D01*
X146735779Y-104604524D01*
X146770476Y-104639221D01*
X146801604Y-104677150D01*
X146828864Y-104717949D01*
X146851995Y-104761222D01*
X146870772Y-104806555D01*
X146885016Y-104853510D01*
X146894588Y-104901635D01*
X146899398Y-104950466D01*
X146899398Y-104975000D01*
X146900000Y-104975000D01*
X146900000Y-105525000D01*
X145400000Y-105525000D01*
G37*
G04 #@! TD.AperFunction*
D10*
X146150000Y-100625000D03*
G04 #@! TA.AperFunction,SMDPad,CuDef*
D11*
G36*
X146899398Y-101925000D02*
G01*
X146899398Y-101949534D01*
X146894588Y-101998365D01*
X146885016Y-102046490D01*
X146870772Y-102093445D01*
X146851995Y-102138778D01*
X146828864Y-102182051D01*
X146801604Y-102222850D01*
X146770476Y-102260779D01*
X146735779Y-102295476D01*
X146697850Y-102326604D01*
X146657051Y-102353864D01*
X146613778Y-102376995D01*
X146568445Y-102395772D01*
X146521490Y-102410016D01*
X146473365Y-102419588D01*
X146424534Y-102424398D01*
X146400000Y-102424398D01*
X146400000Y-102425000D01*
X145900000Y-102425000D01*
X145900000Y-102424398D01*
X145875466Y-102424398D01*
X145826635Y-102419588D01*
X145778510Y-102410016D01*
X145731555Y-102395772D01*
X145686222Y-102376995D01*
X145642949Y-102353864D01*
X145602150Y-102326604D01*
X145564221Y-102295476D01*
X145529524Y-102260779D01*
X145498396Y-102222850D01*
X145471136Y-102182051D01*
X145448005Y-102138778D01*
X145429228Y-102093445D01*
X145414984Y-102046490D01*
X145405412Y-101998365D01*
X145400602Y-101949534D01*
X145400602Y-101925000D01*
X145400000Y-101925000D01*
X145400000Y-101375000D01*
X146900000Y-101375000D01*
X146900000Y-101925000D01*
X146899398Y-101925000D01*
G37*
G04 #@! TD.AperFunction*
G04 #@! TA.AperFunction,SMDPad,CuDef*
G36*
X145400000Y-99875000D02*
G01*
X145400000Y-99325000D01*
X145400602Y-99325000D01*
X145400602Y-99300466D01*
X145405412Y-99251635D01*
X145414984Y-99203510D01*
X145429228Y-99156555D01*
X145448005Y-99111222D01*
X145471136Y-99067949D01*
X145498396Y-99027150D01*
X145529524Y-98989221D01*
X145564221Y-98954524D01*
X145602150Y-98923396D01*
X145642949Y-98896136D01*
X145686222Y-98873005D01*
X145731555Y-98854228D01*
X145778510Y-98839984D01*
X145826635Y-98830412D01*
X145875466Y-98825602D01*
X145900000Y-98825602D01*
X145900000Y-98825000D01*
X146400000Y-98825000D01*
X146400000Y-98825602D01*
X146424534Y-98825602D01*
X146473365Y-98830412D01*
X146521490Y-98839984D01*
X146568445Y-98854228D01*
X146613778Y-98873005D01*
X146657051Y-98896136D01*
X146697850Y-98923396D01*
X146735779Y-98954524D01*
X146770476Y-98989221D01*
X146801604Y-99027150D01*
X146828864Y-99067949D01*
X146851995Y-99111222D01*
X146870772Y-99156555D01*
X146885016Y-99203510D01*
X146894588Y-99251635D01*
X146899398Y-99300466D01*
X146899398Y-99325000D01*
X146900000Y-99325000D01*
X146900000Y-99875000D01*
X145400000Y-99875000D01*
G37*
G04 #@! TD.AperFunction*
G04 #@! TA.AperFunction,SMDPad,CuDef*
G36*
G01*
X151450000Y-101530000D02*
X151450000Y-101870000D01*
G75*
G02*
X151310000Y-102010000I-140000J0D01*
G01*
X151030000Y-102010000D01*
G75*
G02*
X150890000Y-101870000I0J140000D01*
G01*
X150890000Y-101530000D01*
G75*
G02*
X151030000Y-101390000I140000J0D01*
G01*
X151310000Y-101390000D01*
G75*
G02*
X151450000Y-101530000I0J-140000D01*
G01*
G37*
G04 #@! TD.AperFunction*
G04 #@! TA.AperFunction,SMDPad,CuDef*
G36*
G01*
X152410000Y-101530000D02*
X152410000Y-101870000D01*
G75*
G02*
X152270000Y-102010000I-140000J0D01*
G01*
X151990000Y-102010000D01*
G75*
G02*
X151850000Y-101870000I0J140000D01*
G01*
X151850000Y-101530000D01*
G75*
G02*
X151990000Y-101390000I140000J0D01*
G01*
X152270000Y-101390000D01*
G75*
G02*
X152410000Y-101530000I0J-140000D01*
G01*
G37*
G04 #@! TD.AperFunction*
G04 #@! TA.AperFunction,SMDPad,CuDef*
G36*
G01*
X149455000Y-99855000D02*
X149795000Y-99855000D01*
G75*
G02*
X149935000Y-99995000I0J-140000D01*
G01*
X149935000Y-100275000D01*
G75*
G02*
X149795000Y-100415000I-140000J0D01*
G01*
X149455000Y-100415000D01*
G75*
G02*
X149315000Y-100275000I0J140000D01*
G01*
X149315000Y-99995000D01*
G75*
G02*
X149455000Y-99855000I140000J0D01*
G01*
G37*
G04 #@! TD.AperFunction*
G04 #@! TA.AperFunction,SMDPad,CuDef*
G36*
G01*
X149455000Y-98895000D02*
X149795000Y-98895000D01*
G75*
G02*
X149935000Y-99035000I0J-140000D01*
G01*
X149935000Y-99315000D01*
G75*
G02*
X149795000Y-99455000I-140000J0D01*
G01*
X149455000Y-99455000D01*
G75*
G02*
X149315000Y-99315000I0J140000D01*
G01*
X149315000Y-99035000D01*
G75*
G02*
X149455000Y-98895000I140000J0D01*
G01*
G37*
G04 #@! TD.AperFunction*
G04 #@! TA.AperFunction,SMDPad,CuDef*
G36*
G01*
X148480000Y-99845000D02*
X148820000Y-99845000D01*
G75*
G02*
X148960000Y-99985000I0J-140000D01*
G01*
X148960000Y-100265000D01*
G75*
G02*
X148820000Y-100405000I-140000J0D01*
G01*
X148480000Y-100405000D01*
G75*
G02*
X148340000Y-100265000I0J140000D01*
G01*
X148340000Y-99985000D01*
G75*
G02*
X148480000Y-99845000I140000J0D01*
G01*
G37*
G04 #@! TD.AperFunction*
G04 #@! TA.AperFunction,SMDPad,CuDef*
G36*
G01*
X148480000Y-98885000D02*
X148820000Y-98885000D01*
G75*
G02*
X148960000Y-99025000I0J-140000D01*
G01*
X148960000Y-99305000D01*
G75*
G02*
X148820000Y-99445000I-140000J0D01*
G01*
X148480000Y-99445000D01*
G75*
G02*
X148340000Y-99305000I0J140000D01*
G01*
X148340000Y-99025000D01*
G75*
G02*
X148480000Y-98885000I140000J0D01*
G01*
G37*
G04 #@! TD.AperFunction*
D12*
X162650000Y-107939000D03*
X162650000Y-98939000D03*
D13*
X150450000Y-102600000D03*
X142100000Y-111050000D03*
X141200000Y-111350000D03*
X142100000Y-108650000D03*
X142100000Y-106250000D03*
X142100000Y-103850000D03*
X142150000Y-101450000D03*
X142150000Y-99050000D03*
X141200000Y-95550000D03*
X158500000Y-99450000D03*
X158500000Y-100950000D03*
X158500000Y-102450000D03*
X158500000Y-103950000D03*
X158500000Y-106950000D03*
X159050000Y-95400000D03*
X162200000Y-95400000D03*
X159050000Y-111500000D03*
X162200000Y-111500000D03*
X150450000Y-101500000D03*
X144336000Y-94589000D03*
X152440000Y-109810000D03*
X150450000Y-100375000D03*
X150680000Y-107410000D03*
X147550000Y-95825000D03*
X151500000Y-112025000D03*
X154225000Y-110975000D03*
X144700000Y-107600000D03*
X144700000Y-112025000D03*
X152875000Y-101700000D03*
X149625000Y-98400000D03*
X150450000Y-98400000D03*
X156700000Y-108575000D03*
X151250000Y-98400000D03*
X154525000Y-106439000D03*
X154525000Y-105300000D03*
X152050000Y-98400000D03*
X151475000Y-104875000D03*
X150625000Y-104875000D03*
X148820000Y-98400000D03*
D14*
X149615000Y-100125000D02*
X149625000Y-100135000D01*
X148650000Y-100125000D02*
X149615000Y-100125000D01*
X149865000Y-100375000D02*
X149625000Y-100135000D01*
X150450000Y-100375000D02*
X149865000Y-100375000D01*
X146150000Y-104975000D02*
X146150000Y-101925000D01*
X142625000Y-101925000D02*
X142150000Y-101450000D01*
X146150000Y-101925000D02*
X142625000Y-101925000D01*
X143225000Y-104975000D02*
X142100000Y-103850000D01*
X146150000Y-104975000D02*
X143225000Y-104975000D01*
X150650000Y-101700000D02*
X150450000Y-101500000D01*
X151170000Y-101700000D02*
X150650000Y-101700000D01*
X149625000Y-98400000D02*
X149625000Y-99175000D01*
X152875000Y-101700000D02*
X152130000Y-101700000D01*
X144725000Y-107575000D02*
X144700000Y-107600000D01*
X146150000Y-107575000D02*
X144725000Y-107575000D01*
X146150000Y-97225000D02*
X147550000Y-95825000D01*
X146150000Y-99325000D02*
X146150000Y-97225000D01*
X151050000Y-97800000D02*
X150450000Y-98400000D01*
X152325000Y-97800000D02*
X151050000Y-97800000D01*
X155175000Y-107050000D02*
X156700000Y-108575000D01*
X155175000Y-100650000D02*
X155175000Y-107050000D01*
X155175000Y-100650000D02*
X152325000Y-97800000D01*
X154071499Y-105985499D02*
X154525000Y-106439000D01*
X154000000Y-105914000D02*
X154071499Y-105985499D01*
X154000000Y-101150000D02*
X154000000Y-105914000D01*
X151250000Y-98400000D02*
X154000000Y-101150000D01*
X152050000Y-98400000D02*
X154272000Y-100622000D01*
X154525000Y-100875000D02*
X154272000Y-100622000D01*
X154525000Y-105300000D02*
X154525000Y-100875000D01*
X147050000Y-100625000D02*
X146150000Y-100625000D01*
X150025000Y-103600000D02*
X147050000Y-100625000D01*
X150600000Y-103600000D02*
X150025000Y-103600000D01*
X151475000Y-104475000D02*
X150600000Y-103600000D01*
X151475000Y-104875000D02*
X151475000Y-104475000D01*
X146150000Y-106275000D02*
X149650000Y-106275000D01*
X150625000Y-105300000D02*
X150625000Y-104875000D01*
X149650000Y-106275000D02*
X150625000Y-105300000D01*
X148650000Y-98570000D02*
X148820000Y-98400000D01*
X148650000Y-99165000D02*
X148650000Y-98570000D01*
M02*
